<svg xmlns="http://www.w3.org/2000/svg" viewBox="0 0 750 500"><g id="freepik--background-complete--inject-14"><path d="M683.24,369.21c5.15-2.66,11.21-3,16.93-2.06,3.07.51,6.27,1.43,8.36,3.74s2.49,6.36.09,8.34c-1.43,1.18-3.42,1.36-5.27,1.34-4.48-.05-9.45-.84-13,1.86-2,1.53-3.4,4.09-5.84,4.84s-5.08-.67-6.34-2.82a9.83,9.83,0,0,1-.72-7.27A11.11,11.11,0,0,1,683.24,369.21Z" style="fill:#ebebeb"></path><path d="M671.44,346.43c3.15,4.5,9.27,3,12.11.27s4-6.73,5.13-10.52c2.49-8.67,5-17.76,3.15-26.59a14.78,14.78,0,0,0-3.39-7.23,7.72,7.72,0,0,0-7.32-2.43c-3.08.81-5,3.83-6.39,6.71a63.42,63.42,0,0,0-6.26,27.2c0,4.38.5,9,3,12.59" style="fill:#ebebeb"></path><path d="M662.79,352.89c3.42-4.06,4.07-10,2.55-15.06s-5-9.41-8.92-12.94a47.87,47.87,0,0,0-16-9.42,16.8,16.8,0,0,0-7.18-1.22,7.51,7.51,0,0,0-6,3.64c-1.68,3.21-.07,7.1,1.67,10.27a121.39,121.39,0,0,0,10.49,16c3.15,4.06,6.75,8.06,11.54,9.89s9.77,1.61,12.31-1.71" style="fill:#ebebeb"></path><path d="M671.23,414.28a10.11,10.11,0,0,0,.28-2q.22-2.24.55-5.57a81.41,81.41,0,0,1,1.25-8.19,63.77,63.77,0,0,1,3-9.65,36.22,36.22,0,0,1,4.93-8.74,18.41,18.41,0,0,1,6.24-5.18,17.14,17.14,0,0,1,5.25-1.63,9.84,9.84,0,0,0,2-.3,9.19,9.19,0,0,0-2.07,0,15.83,15.83,0,0,0-5.47,1.42,18.4,18.4,0,0,0-6.58,5.23,35,35,0,0,0-5.11,8.91,59.07,59.07,0,0,0-3,9.82,69.68,69.68,0,0,0-1.09,8.28c-.18,2.37-.24,4.29-.28,5.61A9.9,9.9,0,0,0,671.23,414.28Z" style="fill:#e0e0e0"></path><path d="M671.61,410a3.79,3.79,0,0,0,.06-.94c0-.72,0-1.61,0-2.72,0-2.35,0-5.75.12-10,.21-8.41.93-17.46,2.33-30.22,1.33-12,3.1-26,5-35.05.4-2.06.81-3.92,1.19-5.55s.67-3,1-4.17.47-1.95.64-2.64a4,4,0,0,0,.16-.93,3.67,3.67,0,0,0-.33.89c-.2.68-.46,1.54-.78,2.59s-.71,2.53-1.12,4.15-.87,3.48-1.31,5.54a308.45,308.45,0,0,0-5.24,32.52c-1.4,12.78-2,24.43-2.09,32.86,0,4.22,0,7.63.15,10,.07,1.1.12,2,.17,2.71A3.57,3.57,0,0,0,671.61,410Z" style="fill:#e0e0e0"></path><path d="M671.67,387.53a17.67,17.67,0,0,0,0-2.84c-.11-1.82-.36-4.45-.87-7.67a100.77,100.77,0,0,0-2.49-11.18,92.57,92.57,0,0,0-4.68-13.23,70.59,70.59,0,0,0-13.73-21.38,35.71,35.71,0,0,0-3.23-3c-.5-.41-.94-.83-1.38-1.16l-1.25-.87a17.52,17.52,0,0,0-2.39-1.52c-.13.18,3.38,2.25,7.82,7a74.33,74.33,0,0,1,13.39,21.3,105.13,105.13,0,0,1,4.7,13.11c1.22,4.11,2,7.89,2.65,11.07s.93,5.8,1.13,7.6A18,18,0,0,0,671.67,387.53Z" style="fill:#e0e0e0"></path><polygon points="649.96 427.14 652.21 457.97 691.82 457.97 694.07 427.14 649.96 427.14" style="fill:#e0e0e0"></polygon><rect x="646.14" y="414.99" width="52.66" height="12.15" style="fill:#e0e0e0"></rect><polygon points="646.14 456.79 646.14 460.16 648.61 460.16 697.92 460.16 697.92 456.79 646.14 456.79" style="fill:#ebebeb"></polygon><polygon points="651.04 466.09 648.61 460.16 696.04 460.16 693.21 466.09 651.04 466.09" style="fill:#e0e0e0"></polygon><path d="M693.33,437.22s-.05.1-.18.28l-.59.79c-.57.72-1.34,1.7-2.31,2.95l-.1.13-.1-.14-5.67-7.84h.33l-5.59,7.9-.17.25-.2-.23-6.61-7.88h.38l-.37.46-5.92,7.42-.19.24-.18-.25-5.59-7.9h.33l-6.88,7.84-.12.14-.09-.16-2.16-3.62-.55-1a2,2,0,0,1-.17-.34s.09.09.23.3l.61.93,2.26,3.55-.21,0,6.76-7.93.17-.2.16.22,5.63,7.86h-.38l5.91-7.43.36-.46.19-.23.19.23,6.6,7.89h-.37c2-2.84,3.94-5.48,5.64-7.86l.16-.23.17.23,5.54,7.93h-.2l2.4-2.88.65-.74C693.24,437.29,693.32,437.21,693.33,437.22Z" style="fill:#f5f5f5"></path><path d="M694.62,426.94c0,.13-9.92.25-22.16.25s-22.17-.12-22.17-.25,9.92-.25,22.17-.25S694.62,426.8,694.62,426.94Z" style="fill:#f5f5f5"></path><path d="M696.62,460.49c0,.14-10.78.25-24.09.25s-24.09-.11-24.09-.25,10.79-.24,24.09-.24S696.62,460.36,696.62,460.49Z" style="fill:#f5f5f5"></path><polygon points="102.32 365.76 102.32 396.56 147.35 396.56 197.03 396.56 197.03 365.76 102.32 365.76" style="fill:#f5f5f5"></polygon><polygon points="98.34 357.15 98.34 365.76 200.34 365.76 200.34 357.15 147.35 357.15 98.34 357.15" style="fill:#e0e0e0"></polygon><polygon points="149.34 396.56 197.03 396.56 197.03 365.76 200.34 365.76 200.34 357.15 147.35 357.15 147.35 364.97 149.34 396.56" style="fill:#e0e0e0"></polygon><rect x="115.56" y="370.73" width="19.21" height="4.64" style="fill:#e0e0e0"></rect><rect x="113.09" y="381.16" width="24.66" height="9.79" style="fill:#fff"></rect><path d="M211.25,462.76,209.26,41H201.1V124H180L179.61,41h-8.17V124H98.88L98.48,41H90.32V124h-21L68.89,41H60.73V462.76H70.88l-.27-56.6H90.32v56.6h10.15l-.26-56.6h71.23v56.6H181.6l-.27-56.6H201.1v56.6ZM79.93,350.27,72.64,319h15Zm10.39-29.35v73.85l-8.84-37.88Zm0-107.35-8.84-37.88,8.84-36Zm-1.58,6.78H70.5l9.36-38Zm-8.81-51.29-8.35-35.8H88.73Zm-1.62,6.61-8.62,35.06-.34-73.46ZM70.22,322.21l8.09,34.66-7.78,31.65Zm9.63,41.29,7.81,33.44h-16Zm-9.36-53.72-.07-.28-.26.06-.38-80H90.32v80.21Zm28.89-80.21h72.06v80.21H99.75Zm90.68-47.28L199,220.35H180.71Zm-9.66,26.4-.33-69.19,8.45,36.17ZM201.1,216l-9.41-40.32,9.41-38.3Zm0,4.21v.13h-.57Zm0,102.89v69.35l-8.3-35.57Zm-9.85,27.16L184,319h15Zm-1.11-181.21-8.36-35.8h17.16Zm11,60.51v80.21H181.8l-.06-.28-.86.2-.38-80.13Zm-11.47,127.3-8.37,34-.33-71.32Zm1.54,6.63L199,396.94H183ZM171.44,133.26v87.09H99.33l-.41-87.09Zm-70,263.68h-1.31L99.8,319h71.64v77.94Z" style="fill:#e0e0e0"></path><rect x="151.63" y="157.84" width="13.49" height="62.87" style="fill:#e0e0e0"></rect><path d="M161.32,205.63a2.67,2.67,0,1,1-2.67-2.67A2.68,2.68,0,0,1,161.32,205.63Z" style="fill:#fafafa"></path><rect x="156.47" y="174.5" width="4.13" height="25.69" style="fill:#fafafa"></rect><rect x="137.93" y="157.84" width="13.49" height="62.87" style="fill:#ebebeb"></rect><path d="M147.62,205.63a2.68,2.68,0,1,1-2.68-2.67A2.68,2.68,0,0,1,147.62,205.63Z" style="fill:#fafafa"></path><rect x="142.76" y="174.5" width="4.13" height="25.69" style="fill:#fafafa"></rect><rect x="124.88" y="157.84" width="13.49" height="62.87" style="fill:#f5f5f5"></rect><path d="M134.57,205.63a2.68,2.68,0,1,1-2.68-2.67A2.68,2.68,0,0,1,134.57,205.63Z" style="fill:#e0e0e0"></path><rect x="129.72" y="174.5" width="4.13" height="25.69" style="fill:#e0e0e0"></rect><polygon points="108.2 219.75 124.41 164.45 118.82 162 102.19 217.75 108.2 219.75" style="fill:#f5f5f5"></polygon><polygon points="84.18 309.79 84.18 300.26 151.42 300.26 151.63 309.79 84.18 309.79" style="fill:#f5f5f5"></polygon><path d="M151.45,301.82s-59.63.44-63.49,1.35c-.83.19-1.68,3.85,0,4.19s63.49.84,63.49.84Z" style="fill:#fff"></path><polygon points="91.99 299.89 91.99 290.37 145.25 290.37 145.42 299.89 91.99 299.89" style="fill:#ebebeb"></polygon><path d="M145.28,291.92S98,292.36,95,293.27c-.65.2-1.32,3.86,0,4.19s50.3.84,50.3.84Z" style="fill:#fafafa"></path><polygon points="91.75 290.48 91.75 280.97 145.01 280.97 145.18 290.48 91.75 290.48" style="fill:#e0e0e0"></polygon><path d="M145,282.52s-47.23.44-50.29,1.35c-.66.19-1.33,3.85,0,4.19s50.29.84,50.29.84Z" style="fill:#fafafa"></path><rect x="157.68" y="62.38" width="13.49" height="62.87" style="fill:#f5f5f5"></rect><path d="M167.37,110.17a2.67,2.67,0,1,1-2.67-2.67A2.66,2.66,0,0,1,167.37,110.17Z" style="fill:#e0e0e0"></path><rect x="162.52" y="79.04" width="4.13" height="25.69" style="fill:#e0e0e0"></rect><rect x="143.98" y="62.38" width="13.49" height="62.87" style="fill:#ebebeb"></rect><path d="M153.67,110.17A2.67,2.67,0,1,1,151,107.5,2.67,2.67,0,0,1,153.67,110.17Z" style="fill:#fafafa"></path><rect x="148.82" y="79.04" width="4.13" height="25.69" style="fill:#fafafa"></rect><rect x="130.93" y="62.38" width="13.49" height="62.87" style="fill:#e0e0e0"></rect><path d="M140.62,110.17A2.67,2.67,0,1,1,138,107.5,2.67,2.67,0,0,1,140.62,110.17Z" style="fill:#fafafa"></path><rect x="135.77" y="79.04" width="4.13" height="25.69" style="fill:#fafafa"></rect><polygon points="345.09 433.49 345.09 466.83 393.84 466.83 447.61 466.83 447.61 433.49 345.09 433.49" style="fill:#f5f5f5"></polygon><polygon points="340.79 424.17 340.79 433.49 451.19 433.49 451.19 424.17 393.84 424.17 340.79 424.17" style="fill:#ebebeb"></polygon><polygon points="395.99 466.83 447.61 466.83 447.61 433.49 451.19 433.49 451.19 424.17 393.84 424.17 393.84 432.63 395.99 466.83" style="fill:#ebebeb"></polygon><rect x="359.43" y="438.87" width="20.79" height="5.02" style="fill:#e0e0e0"></rect><rect x="356.75" y="450.16" width="26.7" height="10.6" style="fill:#fff"></rect><polygon points="360.86 390.88 360.86 424.21 409.61 424.21 463.38 424.21 463.38 390.88 360.86 390.88" style="fill:#f5f5f5"></polygon><polygon points="356.56 381.56 356.56 390.88 466.97 390.88 466.97 381.56 409.61 381.56 356.56 381.56" style="fill:#ebebeb"></polygon><polygon points="411.76 424.21 463.38 424.21 463.38 390.88 466.97 390.88 466.97 381.56 409.61 381.56 409.61 390.02 411.76 424.21" style="fill:#ebebeb"></polygon><rect x="375.2" y="396.25" width="20.79" height="5.02" style="fill:#e0e0e0"></rect><rect x="372.53" y="407.55" width="26.7" height="10.6" style="fill:#fff"></rect><rect x="602.09" y="42.29" width="96.22" height="139.47" style="fill:#e0e0e0"></rect><rect x="597.27" y="42.29" width="96.22" height="139.47" style="fill:#f5f5f5"></rect><rect x="609.22" y="57.4" width="72.31" height="109.26" style="fill:#fff"></rect><path d="M681.53,166.65s0-.18,0-.53,0-.88,0-1.55c0-1.37,0-3.38,0-6,0-5.24,0-12.87-.07-22.51,0-19.27-.07-46.55-.12-78.67l.24.24-72.3,0h0l.27-.26c0,41.21,0,79.21-.06,109.25l-.21-.21,52.64.11,14.54.06,3.82,0,1.31,0s-.42,0-1.27,0l-3.78,0-14.49.05-52.77.11H609v-.21c0-30,0-68-.06-109.25v-.27h.27l72.3,0h.25v.24c0,32.19-.08,59.52-.11,78.83,0,9.61,0,17.23-.07,22.45,0,2.59,0,4.58,0,5.94,0,.67,0,1.17,0,1.53S681.53,166.65,681.53,166.65Z" style="fill:#e0e0e0"></path><path d="M693.76,42.29A16.4,16.4,0,0,1,692,44.78c-1.11,1.5-2.7,3.53-4.51,5.73S684,54.65,682.77,56a17,17,0,0,1-2.11,2.16,16.72,16.72,0,0,1,1.83-2.4l4.64-5.62c1.75-2.13,3.34-4.06,4.62-5.63A19.25,19.25,0,0,1,693.76,42.29Z" style="fill:#e0e0e0"></path><path d="M681.9,166.3a89.14,89.14,0,0,0,12.62,15.77" style="fill:#fff"></path><path d="M694.52,182.07a13.51,13.51,0,0,1-2.2-2,66.67,66.67,0,0,1-4.76-5.36,71.63,71.63,0,0,1-4.19-5.82,14.69,14.69,0,0,1-1.47-2.59,18.85,18.85,0,0,1,1.78,2.38c1.06,1.49,2.55,3.52,4.29,5.7s3.4,4.08,4.62,5.44A22.37,22.37,0,0,1,694.52,182.07Z" style="fill:#e0e0e0"></path><path d="M597.26,181.65l12.6-15.55" style="fill:#fff"></path><path d="M609.86,166.1a98.28,98.28,0,0,1-6.1,7.94,98.15,98.15,0,0,1-6.5,7.61,92.15,92.15,0,0,1,6.09-7.94A94.66,94.66,0,0,1,609.86,166.1Z" style="fill:#e0e0e0"></path><path d="M597.27,42.29a89.9,89.9,0,0,1,6.12,7.31,85.67,85.67,0,0,1,5.7,7.64A86.7,86.7,0,0,1,603,49.93,87.11,87.11,0,0,1,597.27,42.29Z" style="fill:#e0e0e0"></path><rect x="634.79" y="79.58" width="24.21" height="68.75" style="fill:#e0e0e0"></rect></g></svg>