<svg xmlns="http://www.w3.org/2000/svg" viewBox="0 0 750 500"><g id="freepik--background-simple--inject-14"><path d="M621.79,108.55l-2.66-4.38C596.72,67.24,556.21,45,513.49,47.68a111.41,111.41,0,0,0-16.35,2.25c-38.84,8.31-72.63,37.68-86.64,75.29-8.24,22.13-10.54,47.6-26.17,65.15C364,213.23,329.44,213.94,299.07,213s-64.93-.14-85.18,22.8c-12.68,14.37-16.71,34.8-15.69,54,2.71,51,38.21,96.5,83.36,119.14s98.29,24.67,147.7,14.71c69.22-13.95,135-52.27,174.61-111.45S653.44,172.43,621.79,108.55Z" style="fill:#f5f5f5"></path><circle cx="111.58" cy="169.6" r="43.65" style="fill:#f5f5f5"></circle></g></svg>