<svg xmlns="http://www.w3.org/2000/svg" viewBox="0 0 500 500"><g id="freepik--background-complete--inject-13"><path d="M452.43,345.3l-41.07-15.64a5.51,5.51,0,0,1-3.19-7.1l21.65-56.84a5.51,5.51,0,0,1,7.1-3.19L463,272.45l12.25,28.46-15.7,41.21A5.49,5.49,0,0,1,452.43,345.3Z" style="fill:#ebebeb"></path><path d="M463,272.45l-6.1,16a5.12,5.12,0,0,0,3,6.6l15.39,5.86Z" style="fill:#e0e0e0"></path><path d="M453.68,286.49c-.08.2-4.4-1.25-9.64-3.25s-9.44-3.78-9.36-4,4.39,1.25,9.64,3.25S453.76,286.28,453.68,286.49Z" style="fill:#fff"></path><path d="M462.51,300.21c-.08.2-7.15-2.3-15.78-5.59s-15.58-6.12-15.5-6.32,7.14,2.29,15.78,5.58S462.58,300,462.51,300.21Z" style="fill:#fff"></path><path d="M462.44,308.83c-.07.21-7.77-2.53-17.18-6.12s-17-6.65-16.9-6.86,7.77,2.53,17.18,6.12S462.52,308.63,462.44,308.83Z" style="fill:#fff"></path><path d="M459.73,316c-.08.21-7.77-2.53-17.18-6.12s-17-6.66-16.91-6.86,7.77,2.53,17.19,6.12S459.81,315.75,459.73,316Z" style="fill:#fff"></path><path d="M457,323.09c-.08.2-7.78-2.54-17.19-6.12s-17-6.66-16.9-6.87,7.77,2.54,17.18,6.12S457.09,322.88,457,323.09Z" style="fill:#fff"></path><path d="M454.3,330.21c-.08.21-7.77-2.53-17.18-6.11s-17-6.66-16.91-6.87,7.77,2.53,17.19,6.12S454.38,330,454.3,330.21Z" style="fill:#fff"></path><path d="M258,162.9c-.12-1.26-.26-2.5-.43-3.73s-.37-2.61-.59-3.91c.22,1.3.42,2.6.59,3.91S257.83,161.64,258,162.9Z" style="fill:#f5f5f5"></path><path d="M247.94,178.36c-1.08-2.44-1.32-5.14-2-7.71a5.09,5.09,0,0,0-2.31-3.45,21.17,21.17,0,0,0-2.78-.63c-3.26-1-4.14-5.52-7.23-6.93a10.33,10.33,0,0,0-3.1-.65c-4.13-.49-8.41-1.92-11-5.16a20.46,20.46,0,0,0-2.55-3.14c-1.06-.85-2.7-1.22-3.73-.35q1.31,2.63,2.58,5.22a13.77,13.77,0,0,0,2.9,4.34,4.64,4.64,0,0,0,4.86,1,3.24,3.24,0,0,1,1.64-.57,1.76,1.76,0,0,1,1.06.68c2.25,2.49,1.52,6.62-.68,9.17s-5.42,3.85-8.54,5.09a6.69,6.69,0,0,1-3.49.68c-2.16-.4-3.31-2.76-3.94-4.87-1.41-4.67-2.09-9.74-5-13.68a16.67,16.67,0,0,1-2.63-3.82c-.6-1.57-.46-3.4-1.4-4.77s-3.05-2.29-3.19-4a3.19,3.19,0,0,1,2-2.83c1.12-.54,2.37-.69,3.52-1.16.45-.2,1-.53,1-1,0-.74-1-1-1.28-1.71s.51-1.49.84-2.23c.72-1.71-1.06-3.44-2.79-4.14s-3.78-1.2-4.58-2.87a10,10,0,0,1-.56-2.5,5.45,5.45,0,0,0-4.08-4.49c-2.14-.35-4.51,1.55-4.17,3.68.21,1.16,1.09,2.07,1.56,3.15s.34,2.69-.77,3c-1.83.56-3.59-2.79-5.13-1.63.63,2.14,1.24,4.28,1.87,6.45-2.41,1.22-5.28-1-6.31-3.51s-1.07-5.35-2.29-7.76-4.51-4.21-6.6-2.51c-.11,3.11,4,4.36,5.8,6.87,1.31,1.82,1.12,4.76-.82,5.91s-5-.85-4.23-3c.26-.73.87-1.34.94-2.13.07-1-.75-1.76-1.5-2.39l-3.5-2.94a7.38,7.38,0,0,0-2.5-1.57c-2.4-.7-4.81,1.25-6.08,3.4s-2,4.69-3.75,6.48c-2.53,2.62-7.32,2.77-9.69,0s-1.17-7.87,2.33-8.86c1.33-.36,3-.33,3.7-1.5,1.22-2.07-2.27-4.72-1.06-6.81.92-1.61,3.36-.88,5.14-1.42s2.75-2.31,3.8-3.85,2.65-3,4.46-2.65a5.58,5.58,0,0,1,.19-3.17,2,2,0,0,1,2.67-1c-.89,1.47.18,3.51,1.73,4.24a9.35,9.35,0,0,0,5.07.36c1.71-.2,3.85-.83,4-2.54,0-.56-.16-1.15,0-1.67.75-2,4.52.76,6-.88.83-.85-.09-2.37-1.26-2.65s-2.35.14-3.54.18-2.63-.58-2.68-1.76,1.25-2,1.39-3.16c.23-2-3.08-2.45-4.25-.87s-.75,3.77-.4,5.7.54,4.22-.89,5.58c-.61.92-2.2.44-2.72-.54a7.92,7.92,0,0,1-.51-3.26c-.08-1.12-.57-2.37-1.65-2.67a6,6,0,0,0-2.32.26c-3,.37-5.14-3.55-4.19-6.45s3.7-4.77,6.37-6.25c2-1.08,4.37-2.1,6.31-1,.9.51,1.53,1.38,2.42,1.9,1.54.91,3.44.58,5.2.61a12.13,12.13,0,0,1,7.58,3c.78.71,1.52,1.9.91,2.75s-2.57,1.1-2.24,2.16a3.78,3.78,0,0,0,4.75-3,3.2,3.2,0,0,1,1.83,2.58,5.66,5.66,0,0,1,8.28.68,7.09,7.09,0,0,0,1.53,2c.7.46,1.92.23,2-.59a1.88,1.88,0,0,0-.14-.77c-.42-1.18-.86-2.35-1.28-3.52,1.63-.87,3.54.49,4.64,2,4.08,5.45,7,2.17,12.74,3.06,3.89.6,5.6,3.09,7.8,6.1,6.73,9.28,15.62,16.88,21.74,26.57.64,1,1.23,2,1.79,3.09-.1-.26-.19-.53-.3-.79a106.71,106.71,0,0,0-8.89-18.07c-.75-1.22-1.51-2.43-2.3-3.61-.49-.74-1-1.48-1.5-2.2-.64-.94-1.32-1.85-2-2.75-.54-.74-1.08-1.45-1.64-2.15-.38-.49-.78-1-1.19-1.46a20.36,20.36,0,0,0-1.36-1.64L230.93,101c-.14-.18-.3-.35-.47-.53-.51-.59-1.05-1.16-1.59-1.74a.4.4,0,0,0-.15-.17c-.14-.16-.3-.32-.46-.47-.43-.49-.9-1-1.36-1.43-.75-.77-1.51-1.54-2.3-2.27-.64-.64-1.3-1.25-2-1.86s-1.19-1.09-1.8-1.61-1.19-1-1.8-1.53-1.48-1.24-2.25-1.85h0c-2.11-1.69-4.29-3.29-6.52-4.79-.56-.39-1.1-.75-1.66-1.12s-1.13-.73-1.69-1.08-1.13-.72-1.71-1.05-1.15-.69-1.72-1-.93-.54-1.4-.78a6.36,6.36,0,0,0-.71-.4c-1-.56-2-1.1-3-1.6-.5-.27-1-.53-1.53-.77s-1.31-.65-2-.94a1.38,1.38,0,0,0-.3-.14c-.59-.28-1.18-.56-1.79-.82-.86-.37-1.71-.73-2.57-1.08s-1.95-.8-2.94-1.17-2.2-.82-3.32-1.19-2.24-.75-3.38-1.09-2.26-.67-3.41-1q-3.41-.91-6.89-1.62s-.09,0-.12,0c-.89-.17-1.78-.34-2.67-.48a.68.68,0,0,0-.17,0c-.39-.07-.79-.14-1.19-.19-1.65-.28-3.33-.51-5-.7l-.61-.07c-.49-.07-1-.1-1.48-.15-1.12-.11-2.23-.2-3.37-.27s-2.35-.14-3.53-.17-2.48-.07-3.72-.07c-3.27,0-6.52.14-9.73.44-.76,0-1.51.12-2.26.2l-2.35.28c-.79.11-1.57.21-2.34.33l-2.34.39c-.66.1-1.34.22-2,.36q-2.46.48-4.86,1c-.75.17-1.5.37-2.25.58s-1.5.4-2.24.61c-1.23.34-2.44.73-3.64,1.11h0c-1,.33-2,.66-2.92,1,0,0-.06,0-.07,0-1,.35-2,.71-2.93,1.1l-.16,0c-.89.35-1.78.72-2.65,1.08-1.1.45-2.18.94-3.24,1.43-.91.42-1.8.84-2.67,1.27s-1.88.94-2.81,1.43l-.1.06c-.89.47-1.78,1-2.65,1.46s-1.8,1-2.69,1.59h0c-.84.5-1.66,1-2.48,1.53-.31.19-.61.4-.92.61-.87.56-1.71,1.13-2.56,1.73-1,.71-2.06,1.46-3.07,2.21s-1.76,1.34-2.62,2a110,110,0,0,0-13.7,13c-1.48,1.64-2.88,3.31-4.24,5q-1.72,2.19-3.33,4.48c-1,1.33-1.88,2.69-2.77,4.07.89-1.38,1.82-2.74,2.77-4.07l.84-.09a12.84,12.84,0,0,0,4.64-.75c1.31-.64,2.23-1.81,3.42-2.65,3-2.16,8-2.56,8.82-6.19.28-1.22-.06-2.54.4-3.71.85-2.18,3.76-2.49,6.1-2.46,1,0,2.16.14,2.61,1a2.53,2.53,0,0,1-.1,2,18.93,18.93,0,0,1-8,9.83c-3,1.85-7,3.28-7.83,6.73.42,1.17,2.55,1.08,2.72,2.3.12,1-1.13,1.48-1.59,2.35-.66,1.28.86,2.83,2.3,2.76s2.65-1.12,3.72-2.09c3.17-3,6.5-6.12,7.65-10.31.49-1.72.66-3.75,2.06-4.9a3.4,3.4,0,0,1,5.17,1.66c1.38-.77,3.53-1.34,4.24.09a7.42,7.42,0,0,1,.3,1.64c.45,2.23,3.5,3.24,3.82,5.49.36,2.59-3,3.94-5.57,4.34l-7.06,1.11a6.54,6.54,0,0,0-2.92.94,2.3,2.3,0,0,0-.88,2.74,6.92,6.92,0,0,0,1.22,1.26c2,2,.35,6-2.4,6.06-.94,0-1.87-.31-2.81-.35-2.79-.12-5,2.34-6.33,4.8s-2.31,5.26-4.55,6.94c-3.59,2.7-9.78,2.07-11.52,6.22-.7,1.67-.33,3.56,0,5.35s.4,3.77-.65,5.25-3.71,1.78-4.48.14a4.06,4.06,0,0,1-.1-2.32c.42-2.58.82-5.16,1.22-7.74.3-1.92.56-4.06-.58-5.63-1.58-2.2-5.14-2-7.2-.23s-2.89,4.52-3.46,7.15a31.22,31.22,0,0,1-2,6.94h0c-.37,2.16-.67,4.36-.89,6.57s-.39,4.52-.47,6.82a11,11,0,0,0,.89-.84c1.1-1.13,3.31-5.93,5.3-3.57a1.79,1.79,0,0,1,0,2.18c-.61.78-1.83,1-2.3,1.81-.57,1,.23,2.26,1.17,2.93s2.09,1.09,2.75,2.05c1.28,1.83.06,4.61,1.29,6.47,1.07,1.61,3.33,1.71,5.27,1.92l.66.1c.54-3.83,2.34-6.95,7.57-8.14,7.21-1.64,16.7,4.34,20.76,9.78,4.53,6.09,6.67,14.7,13.61,17.75,5,2.18,12,1.39,14.45,6.26,2.17,4.36-1.6,9.25-2.18,14.08-.36,3.19.68,6.37.93,9.56s-.72,6.93-3.63,8.28c-1.62.73-3.66.64-5,1.86-2.31,2.2-.41,6.73-2.73,8.93a12.19,12.19,0,0,1-3,1.55c-5.21,2.63-5.07,10.3-2.65,15.62.09.19.18.36.26.56A110.17,110.17,0,0,0,200,271.08h0a111.79,111.79,0,0,0,9.74-5.87,109.15,109.15,0,0,0,13.69-10.88,107.65,107.65,0,0,0,8.36-8.73c1.85-2.13,3.6-4.34,5.27-6.61.85-1.17,1.69-2.34,2.47-3.54a105.15,105.15,0,0,0,6.58-11,106.73,106.73,0,0,0,7.13-17.19,107.86,107.86,0,0,0,4.2-18.67c.33-2.47.59-5,.76-7.51a6.34,6.34,0,0,1-4.42,2C251.19,183,249,180.8,247.94,178.36Z" style="fill:#f5f5f5"></path><path d="M52.59,202.76c-.34-3.15.7-6.31.75-9.5,0-2.19-.12-4.51-.15-6.73a29.39,29.39,0,0,1-5.6-.78,1.73,1.73,0,0,1-1-.52,2,2,0,0,1-.22-1.17c-.14-2.48-2.53-4.11-4.67-5.35a18.52,18.52,0,0,0-3.4-1.68c0,.27,0,.51,0,.77a109.89,109.89,0,0,0,7,34.95A104.74,104.74,0,0,0,52,227.19c1.08,2,2.27,4,3.5,5.91,1.54,2.39,3.14,4.72,4.87,7s3.31,4.27,5.11,6.29a105.26,105.26,0,0,0,7.79,8c2.42,2.27,4.95,4.41,7.58,6.45-6-16.14-11.68-32.61-22-46.35C56.2,210.89,53.1,207.23,52.59,202.76Z" style="fill:#f5f5f5"></path><path d="M38.25,171.82c0,.67,0,1.33,0,2s0,1.07,0,1.61c0-.54,0-1.07,0-1.61S38.24,172.49,38.25,171.82Z" style="fill:#f5f5f5"></path><g style="opacity:0.6000000000000001"><path d="M87,265.3c.92.62,1.86,1.23,2.81,1.83l2,1.22-2-1.22C88.9,266.53,88,265.92,87,265.3Z" style="fill:#f5f5f5"></path></g><path d="M180.33,258.39a9.4,9.4,0,0,1-2.05-.22,6.73,6.73,0,0,1-4.86-3.68,12.51,12.51,0,0,1-.85-4.8,18,18,0,0,0-.35-3.28,17.26,17.26,0,0,0-2.58-5.26,18.33,18.33,0,0,1-3.45-12.42l0-.68c-.58-19.37-6-35.1-15.62-45.48a10.6,10.6,0,0,0-4.73-3.35,5.9,5.9,0,0,0-6.07,2.1,12.33,12.33,0,0,0-.91,1.49,8.46,8.46,0,0,1-1.59,2.27,4.55,4.55,0,0,1-3.88,1,7,7,0,0,1-4.84-3.34c-1.71-3-1.4-6.72-1.15-9.71l1-12c.16-1.86.37-4.4,1.87-6.14a10.26,10.26,0,0,1,4.47-2.56,13.32,13.32,0,0,0,3.44-1.65c1.93-1.45,2.79-3.73,3.7-6.14a24.77,24.77,0,0,1,1.75-4,7.41,7.41,0,0,1,6.9-3.39,3.19,3.19,0,0,1,2.53,1.69,7.59,7.59,0,0,1,4.49-4.11c4-1.15,8.84,2,13.53,5.05,4.29,2.79,8.33,5.41,11.51,4.83a24.71,24.71,0,0,0,2.4-.59,12.67,12.67,0,0,1,5.17-.71c4.63.65,7,5.67,8.53,10l7.53,21c.94,2.62,2.15,5.49,4.64,6.46a9.47,9.47,0,0,0,3.14.46,10.5,10.5,0,0,1,3.28.47,5.26,5.26,0,0,1,3.46,4.24c.64,3.48-1.1,8-4.05,10.58h0a48.76,48.76,0,0,1-4.42,3.25c-3.4,2.32-6.62,4.51-8,8.11a19.47,19.47,0,0,0-.93,6.15,18.93,18.93,0,0,1-1.07,6.63,19.15,19.15,0,0,1-3.27,4.77,29.54,29.54,0,0,0-2.19,2.79c-2.41,3.63-3.08,8.14-3.73,12.49-.08.56-.16,1.12-.25,1.67-.75,4.86-2.05,10.27-6,13.65A10.17,10.17,0,0,1,180.33,258.39Z" style="fill:#ebebeb"></path><g style="opacity:0.6000000000000001"><path d="M38.32,169.22h0c0,.21,0,.4,0,.61,0,.66,0,1.33,0,2,0-.66,0-1.33,0-2C38.28,169.62,38.3,169.43,38.32,169.22Z" style="fill:#f5f5f5"></path></g><g style="opacity:0.6000000000000001"><path d="M38.24,175.42c0,.54,0,1.08,0,1.61h0C38.25,176.5,38.25,176,38.24,175.42Z" style="fill:#f5f5f5"></path></g><path d="M53.38,182.26l-.66-.1c-1.94-.21-4.2-.31-5.27-1.92-1.23-1.86,0-4.64-1.29-6.47-.66-1-1.81-1.37-2.75-2.05s-1.75-1.92-1.17-2.93c.47-.86,1.69-1,2.3-1.81a1.79,1.79,0,0,0,0-2.18c-2-2.36-4.2,2.44-5.3,3.57a11,11,0,0,1-.89.84h0c0,.21,0,.4,0,.61,0,.66,0,1.33,0,2s0,1.33,0,2,0,1.07,0,1.61,0,1.08,0,1.61a18.13,18.13,0,0,1,3.39,1.68c2.15,1.23,4.54,2.87,4.68,5.35a2,2,0,0,0,.22,1.17,1.73,1.73,0,0,0,1,.52,29.39,29.39,0,0,0,5.6.78" style="fill:#ebebeb"></path><path d="M53.19,186.53c0,2.22.19,4.54.15,6.73-.05,3.19-1.09,6.35-.74,9.5.5,4.47,3.6,8.13,6.31,11.72,10.28,13.74,16,30.21,22,46.35h0c1.11.89,2.25,1.73,3.4,2.55.9.65,1.82,1.29,2.75,1.92s1.86,1.23,2.81,1.83l2,1.22c-.08-.2-.17-.37-.26-.56-2.42-5.32-2.56-13,2.65-15.62a12.19,12.19,0,0,0,3-1.55c2.32-2.2.42-6.73,2.73-8.93,1.31-1.22,3.35-1.13,5-1.86,2.91-1.35,3.86-5.08,3.63-8.28s-1.29-6.37-.93-9.56c.58-4.83,4.35-9.72,2.18-14.08-2.42-4.87-9.48-4.08-14.45-6.26C88.38,198.6,86.24,190,81.71,183.9c-4.06-5.44-13.55-11.42-20.76-9.78-5.23,1.19-7,4.31-7.57,8.14" style="fill:#ebebeb"></path><path d="M45.13,141.73c2.06-1.76,5.62-2,7.2.23,1.14,1.57.88,3.71.58,5.63-.4,2.58-.8,5.16-1.22,7.74a4.06,4.06,0,0,0,.1,2.32c.77,1.64,3.45,1.32,4.48-.14s.93-3.47.65-5.25-.65-3.68,0-5.35c1.74-4.15,7.93-3.52,11.52-6.22,2.24-1.68,3.23-4.48,4.55-6.94s3.54-4.92,6.33-4.8c.94,0,1.87.39,2.81.35,2.75-.08,4.36-4.11,2.4-6.06A6.92,6.92,0,0,1,83.36,122a2.3,2.3,0,0,1,.88-2.74,6.54,6.54,0,0,1,2.92-.94l7.06-1.11c2.6-.4,5.93-1.75,5.57-4.34-.32-2.25-3.37-3.26-3.82-5.49a7.42,7.42,0,0,0-.3-1.64c-.71-1.43-2.86-.86-4.24-.09A3.4,3.4,0,0,0,86.26,104c-1.4,1.15-1.57,3.18-2.06,4.9-1.15,4.19-4.48,7.36-7.65,10.31-1.07,1-2.27,2-3.72,2.09s-3-1.48-2.3-2.76c.46-.87,1.71-1.37,1.59-2.35-.17-1.22-2.3-1.13-2.72-2.3.84-3.45,4.79-4.88,7.83-6.73a18.93,18.93,0,0,0,8-9.83,2.53,2.53,0,0,0,.1-2c-.45-.87-1.62-1-2.61-1-2.34,0-5.25.28-6.1,2.46-.46,1.17-.12,2.49-.4,3.71-.82,3.63-5.79,4-8.82,6.19-1.19.84-2.11,2-3.42,2.65a12.84,12.84,0,0,1-4.64.75l-.84.09c-1,1.33-1.88,2.69-2.77,4.07S54,117,53.15,118.39a109.49,109.49,0,0,0-9.55,21.3c-.85,2.61-1.61,5.26-2.26,7.95s-1.21,5.42-1.66,8.18a31.22,31.22,0,0,0,2-6.94C42.24,146.25,43.09,143.49,45.13,141.73Z" style="fill:#ebebeb"></path><path d="M137.54,90.64c1-1.37.73-3.33,1.41-4.91,1.12-2.62,4.61-3.56,5.82-6.15.46-1,.58-2.21,1.39-2.94s1.68-.75,2.4-1.3c1.63-1.25.95-4.08-.77-5.18-4.32-2.76-12.27.43-16,3.14-4.8,3.47-9.49,7.65-15.88,7.24-1.76-.11-3.59-.59-5.24,0s-2.67,3.1-1.25,4.14c.79.59,1.91.42,2.81.84,1.64.76,1.81,3.14,1,4.77S111,93.16,110,94.71a8.26,8.26,0,0,0-1.18,5,4.58,4.58,0,0,0,1.49,3.25c2,1.58,5,.22,6.69-1.68s2.85-4.37,5-5.68a12.36,12.36,0,0,1,3.58-1.24l8.33-2A6.1,6.1,0,0,0,137.54,90.64Z" style="fill:#ebebeb"></path><g style="opacity:0.6000000000000001"><path d="M258.46,172.29c0-1.58-.06-3.16-.15-4.72.09,1.56.14,3.14.15,4.72,0,.51,0,1,0,1.52,0,2.44-.09,4.84-.23,7.25.14-2.41.23-4.81.23-7.25C258.49,173.3,258.49,172.8,258.46,172.29Z" style="fill:#f5f5f5"></path></g><g style="opacity:0.6000000000000001"><path d="M251.57,135.34c.52,1.39,1,2.79,1.48,4.21-.46-1.42-1-2.82-1.48-4.21,0,0,0,0,0,0h0Z" style="fill:#f5f5f5"></path></g><path d="M258.46,172.29c0-1.58-.06-3.16-.15-4.72s-.2-3.12-.36-4.67c-.12-1.26-.26-2.5-.43-3.73s-.37-2.61-.59-3.91a106.48,106.48,0,0,0-2.57-11.44c-.41-1.43-.85-2.86-1.31-4.27s-1-2.82-1.48-4.21v0h0c-.56-1-1.15-2.08-1.79-3.09-6.12-9.69-15-17.29-21.74-26.57-2.2-3-3.91-5.5-7.8-6.1-5.75-.89-8.66,2.39-12.74-3.06-1.1-1.47-3-2.83-4.64-2,.42,1.17.86,2.34,1.28,3.52a1.88,1.88,0,0,1,.14.77c-.09.82-1.31,1-2,.59a7.09,7.09,0,0,1-1.53-2,5.66,5.66,0,0,0-8.28-.68,3.2,3.2,0,0,0-1.83-2.58,3.78,3.78,0,0,1-4.75,3c-.33-1.06,1.57-1.25,2.24-2.16s-.13-2-.91-2.75a12.13,12.13,0,0,0-7.58-3c-1.76,0-3.66.3-5.2-.61-.89-.52-1.52-1.39-2.42-1.9-1.94-1.1-4.36-.08-6.31,1-2.67,1.48-5.42,3.34-6.37,6.25s1.16,6.82,4.19,6.45a6,6,0,0,1,2.32-.26c1.08.3,1.57,1.55,1.65,2.67a7.92,7.92,0,0,0,.51,3.26c.52,1,2.11,1.46,2.72.54,1.43-1.36,1.25-3.64.89-5.58s-.75-4.11.4-5.7,4.48-1.08,4.25.87c-.14,1.15-1.44,2-1.39,3.16s1.5,1.81,2.68,1.76,2.39-.47,3.54-.18,2.09,1.8,1.26,2.65c-1.45,1.64-5.22-1.16-6,.88-.21.52,0,1.11,0,1.67-.14,1.71-2.28,2.34-4,2.54a9.35,9.35,0,0,1-5.07-.36c-1.55-.73-2.62-2.77-1.73-4.24a2,2,0,0,0-2.67,1,5.58,5.58,0,0,0-.19,3.17c-1.81-.4-3.43,1.13-4.46,2.65s-2,3.31-3.8,3.85-4.22-.19-5.14,1.42c-1.21,2.09,2.28,4.74,1.06,6.81-.7,1.17-2.37,1.14-3.7,1.5-3.5,1-4.72,6.12-2.33,8.86s7.16,2.58,9.69,0c1.76-1.79,2.48-4.32,3.75-6.48s3.68-4.1,6.08-3.4a7.38,7.38,0,0,1,2.5,1.57l3.5,2.94c.75.63,1.57,1.41,1.5,2.39-.07.79-.68,1.4-.94,2.13-.73,2.11,2.32,4.11,4.23,3s2.13-4.09.82-5.91c-1.81-2.51-5.91-3.76-5.8-6.87,2.09-1.7,5.38.09,6.6,2.51s1.26,5.27,2.29,7.76,3.9,4.73,6.31,3.51c-.63-2.17-1.24-4.31-1.87-6.45,1.54-1.16,3.3,2.19,5.13,1.63,1.11-.34,1.25-2,.77-3s-1.35-2-1.56-3.15c-.34-2.13,2-4,4.17-3.68a5.45,5.45,0,0,1,4.08,4.49,10,10,0,0,0,.56,2.5c.8,1.67,2.87,2.18,4.58,2.87s3.51,2.43,2.79,4.14c-.33.74-1.11,1.46-.84,2.23s1.28,1,1.28,1.71c0,.48-.53.81-1,1-1.15.47-2.4.62-3.52,1.16a3.19,3.19,0,0,0-2,2.83c.14,1.74,2.21,2.58,3.19,4s.8,3.2,1.4,4.77a16.67,16.67,0,0,0,2.63,3.82c2.89,3.94,3.57,9,5,13.68.63,2.11,1.78,4.47,3.94,4.87a6.69,6.69,0,0,0,3.49-.68c3.12-1.24,6.36-2.56,8.54-5.09s2.93-6.68.68-9.17a1.76,1.76,0,0,0-1.06-.68,3.24,3.24,0,0,0-1.64.57,4.64,4.64,0,0,1-4.86-1,13.77,13.77,0,0,1-2.9-4.34q-1.28-2.59-2.58-5.22c1-.87,2.67-.5,3.73.35a20.46,20.46,0,0,1,2.55,3.14c2.59,3.24,6.87,4.67,11,5.16a10.33,10.33,0,0,1,3.1.65c3.09,1.41,4,6,7.23,6.93a21.17,21.17,0,0,1,2.78.63,5.09,5.09,0,0,1,2.31,3.45c.72,2.57,1,5.27,2,7.71s3.25,4.65,5.9,4.69a6.34,6.34,0,0,0,4.42-2v0c.14-2.41.23-4.81.23-7.25C258.49,173.3,258.49,172.8,258.46,172.29Z" style="fill:#ebebeb"></path><path d="M213.87,218c-1.64.32-2,1.28-2.86,2.5-1.16,1.58-2.82,3.17-3.88,4.73-1.79,2.65-.18,6.77-2.54,9-.48.46-1.1.75-1.53,1.25a2.79,2.79,0,0,0,.57,3.85,3.78,3.78,0,0,0,4.1.08,6.07,6.07,0,0,0,2.52-3.44,5.75,5.75,0,0,1,1.27-2.82c1.35-1.18,3.45-.3,5.22-.55C224.3,231.56,221.05,216.6,213.87,218Z" style="fill:#ebebeb"></path><path d="M211.68,442.9l-39.34,12.3a5.16,5.16,0,0,1-6.46-3.39l-17-54.45a5.16,5.16,0,0,1,3.39-6.46l24.94-7.8L202.72,397l12.34,39.47A5.16,5.16,0,0,1,211.68,442.9Z" style="fill:#ebebeb"></path><path d="M163.19,429.07h51.53a0,0,0,0,1,0,0v15a5.46,5.46,0,0,1-5.46,5.46H168.53a5.33,5.33,0,0,1-5.33-5.33V429.07A0,0,0,0,1,163.19,429.07Z" transform="translate(-122.48 76.4) rotate(-17.36)" style="fill:#e0e0e0"></path><path d="M182.34,436.74l2.49,7.95-1.77.56-1-3.27-3.46,1.09,1,3.26-1.76.55-2.48-7.95,1.76-.55,1,3.13,3.46-1.08-1-3.14Z" style="fill:#fff"></path><path d="M190.2,442.69a2.47,2.47,0,0,1-1.26.82,2.06,2.06,0,0,1-2.87-1.51l-.79-2.51-.9.28-.43-1.36.91-.28-.47-1.49,1.7-.53.46,1.49,1.46-.46.43,1.36L187,439l.78,2.49a.72.72,0,0,0,1,.57,1.06,1.06,0,0,0,.61-.44Z" style="fill:#fff"></path><path d="M200.05,436.09l1.09,3.5-1.69.53-1-3.22c-.31-1-.88-1.31-1.56-1.1s-1.14.92-.8,2l1,3.07-1.7.53-1-3.23c-.31-1-.86-1.32-1.56-1.1s-1.13.92-.79,2l1,3.06-1.7.53-1.91-6.11,1.62-.5.22.7a2.46,2.46,0,0,1,1.59-1.37,2.27,2.27,0,0,1,2.24.4,2.72,2.72,0,0,1,1.8-1.66C198.2,433.7,199.47,434.23,200.05,436.09Z" style="fill:#fff"></path><path d="M200,430.69l1.7-.53,2.63,8.42-1.7.53Z" style="fill:#fff"></path><path d="M174.41,409.75l-5.67,4.82,7.4.7.88,2.84-10.63-1.19-.92-2.95,8.06-7Z" style="fill:#fff"></path><path d="M178.82,399.15l2.72-.85.21,23.42-2.73.85Z" style="fill:#fff"></path><path d="M194.28,405l.92,3-8.06,7-.89-2.84,5.68-4.79-7.4-.73-.88-2.81Z" style="fill:#fff"></path><g style="opacity:0.30000000000000004"><path d="M177.18,383.1l4.8,15.33a4.79,4.79,0,0,0,6,3.14l14.74-4.6Z" style="fill:#fff"></path></g><path d="M182.6,399.71a5.32,5.32,0,0,0,5.58,3.67,4.55,4.55,0,0,0,.52,0c2-.26,15.4-2,15.31-2.25L202.72,397,188,401.58S184.27,402.6,182.6,399.71Z" style="fill:#e0e0e0"></path></g></svg>