<svg xmlns="http://www.w3.org/2000/svg" viewBox="0 0 500 500"><g id="freepik--background-complete--inject-13"><circle cx="92.5" cy="152.76" r="34.81" style="fill:#fafafa"></circle><path d="M127.65,152.69a10.55,10.55,0,0,1-.28-2.23,18.61,18.61,0,0,0-.33-2.68,26.74,26.74,0,0,0-.75-3.6,33.7,33.7,0,0,0-3.86-9.22,34.87,34.87,0,0,0-8.75-9.83A34.38,34.38,0,0,0,81.22,120a32.21,32.21,0,0,0-8.71,4.58,31.67,31.67,0,0,0-7.31,7.19,34.11,34.11,0,0,0-.47,40.43,31.24,31.24,0,0,0,7.14,7.36,32.27,32.27,0,0,0,8.59,4.79,34.4,34.4,0,0,0,32.58-4.4,35,35,0,0,0,9-9.62,33.92,33.92,0,0,0,4.07-9.14,27.58,27.58,0,0,0,.84-3.57,19.86,19.86,0,0,0,.39-2.68,10.4,10.4,0,0,1,.33-2.22,9.22,9.22,0,0,1,.06,2.25,16.16,16.16,0,0,1-.22,2.73,23.76,23.76,0,0,1-.67,3.68,32.85,32.85,0,0,1-3.88,9.51,35.64,35.64,0,0,1-24.21,16.81A35.91,35.91,0,0,1,79.84,186a33.59,33.59,0,0,1-9.09-5,40.67,40.67,0,0,1-4.06-3.51,38.61,38.61,0,0,1-3.5-4.22,35.85,35.85,0,0,1,.5-42.67,41.76,41.76,0,0,1,3.6-4.13,41.72,41.72,0,0,1,4.14-3.42,34,34,0,0,1,9.2-4.76,35.87,35.87,0,0,1,18.92-1.24,35.58,35.58,0,0,1,23.81,17.36A32.86,32.86,0,0,1,127,144a24.39,24.39,0,0,1,.59,3.7,15.31,15.31,0,0,1,.15,2.73A9.07,9.07,0,0,1,127.65,152.69Z" style="fill:#e0e0e0"></path><path d="M120.35,130.82c.08.11-.55.67-1.76,1.6l-2.24,1.65c-.45.31-.91.66-1.43,1l-1.72.92a39.65,39.65,0,0,1-20.6,5.47l-3.12-.1-3-.44c-.49-.07-1-.13-1.46-.22l-1.41-.36c-.92-.24-1.84-.45-2.71-.72a45.28,45.28,0,0,1-8.82-3.92c-4.74-2.79-7.07-5.35-6.89-5.52s2.77,1.91,7.55,4.32a52.93,52.93,0,0,0,8.67,3.42c.84.23,1.73.41,2.62.62l1.35.32,1.4.19,2.87.39,3,.08a42.71,42.71,0,0,0,19.95-4.74l1.74-.78c.53-.29,1-.59,1.48-.86l2.38-1.35C119.49,131.07,120.27,130.72,120.35,130.82Z" style="fill:#e0e0e0"></path><path d="M64.66,174.26c-.08-.11.55-.67,1.76-1.59L68.66,171c.45-.32.91-.67,1.43-1l1.72-.93a39.66,39.66,0,0,1,20.6-5.46l3.12.1,3,.43c.49.08,1,.13,1.46.23l1.41.35c.92.25,1.84.45,2.71.72a44.68,44.68,0,0,1,8.82,3.93c4.74,2.78,7.07,5.35,6.89,5.51s-2.77-1.91-7.55-4.31a52,52,0,0,0-8.67-3.43c-.84-.23-1.73-.4-2.62-.62l-1.35-.32-1.4-.19-2.87-.39-3-.08a42.83,42.83,0,0,0-20,4.74l-1.74.79c-.53.28-1,.59-1.48.85l-2.38,1.35C65.52,174,64.74,174.37,64.66,174.26Z" style="fill:#e0e0e0"></path><path d="M127.64,153.51c0,.53-15.74.78-35.15.55s-35.14-.84-35.14-1.38,15.75-.78,35.16-.55S127.65,153,127.64,153.51Z" style="fill:#e0e0e0"></path><path d="M91.31,187.4c-.53,0-.78-15.74-.56-35.14s.85-35.13,1.38-35.13.78,15.74.56,35.15S91.84,187.41,91.31,187.4Z" style="fill:#e0e0e0"></path><path d="M91.31,187.35c-.13.21-4-2.37-8.58-8.26a47.51,47.51,0,0,1-6.42-11.32,42.39,42.39,0,0,1-2.92-15.71,40.33,40.33,0,0,1,3.35-15.64,48.82,48.82,0,0,1,6.73-11.14c4.66-5.77,8.53-8.36,8.66-8.16s-3.3,3.14-7.58,9a52.87,52.87,0,0,0-6.16,11,40.41,40.41,0,0,0-3.07,15A43,43,0,0,0,78,167.14a50.92,50.92,0,0,0,5.87,11.15C88,184.23,91.5,187.14,91.31,187.35Z" style="fill:#e0e0e0"></path><path d="M92.92,117.13c.13-.2,4,2.37,8.58,8.26a47.39,47.39,0,0,1,6.42,11.33,42.51,42.51,0,0,1,2.92,15.71,40.32,40.32,0,0,1-3.35,15.63,48.6,48.6,0,0,1-6.73,11.14c-4.66,5.78-8.53,8.36-8.66,8.16s3.3-3.14,7.58-9a52.36,52.36,0,0,0,6.16-11,40.4,40.4,0,0,0,3.07-15,42.91,42.91,0,0,0-2.65-15.07,50.47,50.47,0,0,0-5.87-11.15C96.25,120.26,92.73,117.35,92.92,117.13Z" style="fill:#e0e0e0"></path><path d="M92.08,186.33c.15,0,.26,5.07.26,11.32S92.23,209,92.08,209s-.26-5.07-.26-11.33S91.94,186.33,92.08,186.33Z" style="fill:#ebebeb"></path><path d="M118.66,97.22a2.48,2.48,0,0,1-.47,0l-1.33,0L112,97.4c-4.15,0-9.88.08-16.2.08H91.68l.25-.25c0,5.31-.06,10-.08,13.44,0,1.62-.06,3-.08,4a9.12,9.12,0,0,1-.09,1.43,7.79,7.79,0,0,1-.09-1.43c0-1,0-2.35-.08-4,0-3.45-.05-8.13-.09-13.44V97h4.33c6.32,0,12,0,16.2.07l4.91.09,1.33,0A1.47,1.47,0,0,1,118.66,97.22Z" style="fill:#ebebeb"></path><rect x="329.82" y="428.28" width="10.78" height="50.89" style="fill:#ebebeb"></rect><rect x="421.46" y="428.28" width="10.78" height="50.89" style="fill:#ebebeb"></rect><rect x="311.98" y="364.3" width="136.04" height="12.58" style="fill:#ebebeb"></rect><polygon points="442.6 428.92 320.26 429.19 320.26 376.89 442.6 376.89 442.6 428.92" style="fill:#ebebeb"></polygon><path d="M448,376.89c0,.13-30.45.24-68,.24s-68-.11-68-.24,30.45-.25,68-.25S448,376.75,448,376.89Z" style="fill:#e0e0e0"></path><path d="M442.15,429.19c0,.13-27.18.24-60.71.24s-60.73-.11-60.73-.24,27.18-.25,60.73-.25S442.15,429.05,442.15,429.19Z" style="fill:#e0e0e0"></path><path d="M432.52,418.59s0-.21,0-.6,0-1,0-1.74c0-1.54,0-3.78,0-6.69,0-5.83-.05-14.29-.09-24.91l.16.16-102.15.09h0l.25-.25c0,11.79,0,23.23,0,33.94l-.24-.24,73.07.11,21.35.07,5.74,0H432l.52,0H432l-1.46,0-5.69,0-21.3.07-73.23.11h-.24V384.41h.25l102.15.08h.17v.16c0,10.66-.07,19.16-.09,25,0,2.89,0,5.12,0,6.65,0,.74,0,1.31,0,1.71S432.52,418.59,432.52,418.59Z" style="fill:#e0e0e0"></path><path d="M334.4,414.14a8.56,8.56,0,0,1-1.77,2.26,8.82,8.82,0,0,1-2.13,1.93,8.38,8.38,0,0,1,1.77-2.26A8.62,8.62,0,0,1,334.4,414.14Z" style="fill:#e0e0e0"></path><path d="M334.4,389.1a9.13,9.13,0,0,1-2.2-2.05,9.57,9.57,0,0,1-1.85-2.39,9.45,9.45,0,0,1,2.21,2.06A9.24,9.24,0,0,1,334.4,389.1Z" style="fill:#e0e0e0"></path><path d="M432.7,384.76a9.13,9.13,0,0,1-2.23,2.35,13.48,13.48,0,0,1-2.54,2,8.77,8.77,0,0,1,2.22-2.35A13.36,13.36,0,0,1,432.7,384.76Z" style="fill:#e0e0e0"></path><path d="M432.52,418.59a10.43,10.43,0,0,1-2.47-2,10.56,10.56,0,0,1-2.12-2.4,10.5,10.5,0,0,1,2.46,2.05A11,11,0,0,1,432.52,418.59Z" style="fill:#e0e0e0"></path><path d="M427.93,414.14s0-.15,0-.44,0-.72,0-1.27c0-1.14,0-2.78,0-4.92,0-4.28-.05-10.52-.08-18.41l.15.15-93.52.1h0l.24-.25v25l-.24-.24,66.74.11,19.64.07,5.29,0h1.38l.48,0h-.45l-1.35,0-5.24,0-19.59.07-66.9.11h-.24v-.24c0-8,0-16.43,0-25v-.24h.26l93.52.09h.15v.15c0,7.93-.06,14.2-.08,18.5,0,2.12,0,3.76,0,4.88,0,.54,0,.95,0,1.25S427.93,414.14,427.93,414.14Z" style="fill:#e0e0e0"></path><path d="M390.43,399.29a9.64,9.64,0,0,0-2.51-1.14,8,8,0,0,0-2.48-.39h-6.89a7.92,7.92,0,0,0-5.48,2.12,4.22,4.22,0,0,0-.82,1,2.84,2.84,0,0,0,.26,3.37c.89.83,2.7.42,2.85-.78a3,3,0,0,0,3.17,2.81,4,4,0,0,0,3.38-2.93,2.69,2.69,0,0,0,5.35.4c.85,1.11,2.11,2.14,3.56,1.67a2.56,2.56,0,0,0,1.65-1.84A4.14,4.14,0,0,0,390.43,399.29Z" style="fill:#e0e0e0"></path><path d="M379.78,397.73a13.65,13.65,0,0,0-2.83,2.59,13.5,13.5,0,0,0-1.59,3.48c-.06,0-.1-.45,0-1.17a6.82,6.82,0,0,1,3.28-4.5C379.31,397.77,379.76,397.67,379.78,397.73Z" style="fill:#ebebeb"></path><path d="M382.42,398a15.89,15.89,0,0,1-.57,5.43,7.57,7.57,0,0,1,0-2.74A7.68,7.68,0,0,1,382.42,398Z" style="fill:#ebebeb"></path><path d="M385.74,397.94c0-.05.39.09.79.54a4.27,4.27,0,0,1,1,2.12,7.36,7.36,0,0,1,0,2.3c-.08.57-.17.92-.24.92s-.09-.37-.1-.94a14.25,14.25,0,0,0-.15-2.19,5.19,5.19,0,0,0-.76-2C386,398.23,385.69,398,385.74,397.94Z" style="fill:#ebebeb"></path><rect x="339.42" y="445.42" width="83.83" height="9.82" style="fill:#ebebeb"></rect><path d="M402.17,351.56v12.65H347.8a6.32,6.32,0,0,1-6.32-6.33h0a6.32,6.32,0,0,1,6.32-6.32" style="fill:#e0e0e0"></path><path d="M383.87,354.21h18.3a0,0,0,0,1,0,0v7.34a0,0,0,0,1,0,0h-18.3a3.28,3.28,0,0,1-3.28-3.28v-.79A3.28,3.28,0,0,1,383.87,354.21Z" style="fill:#ebebeb"></path><path d="M402.17,338.92v12.64H347.8a6.32,6.32,0,0,1-6.32-6.32h0a6.32,6.32,0,0,1,6.32-6.32Z" style="fill:#ebebeb"></path><path d="M383.87,341.57h18.3a0,0,0,0,1,0,0v7.34a0,0,0,0,1,0,0h-18.3a3.28,3.28,0,0,1-3.28-3.28v-.79A3.28,3.28,0,0,1,383.87,341.57Z" style="fill:#f5f5f5"></path><polygon points="362.9 318.64 354.27 338.92 359.83 338.92 363.66 328.09 362.9 318.64" style="fill:#e0e0e0"></polygon><polygon points="389.42 300.29 392.75 338.92 364.53 338.92 361.43 300.29 389.42 300.29" style="fill:#f5f5f5"></polygon><polygon points="386.66 303.35 389.58 335.71 368.4 335.99 365.54 303.16 386.66 303.35" style="fill:#fafafa"></polygon><polygon points="382.17 307.83 383.83 330.1 372.53 330.1 370.53 307.83 382.17 307.83" style="fill:#e0e0e0"></polygon><path d="M340.65,96.54c-.09-.93-.19-1.85-.32-2.77s-.27-1.93-.43-2.9c.16,1,.3,1.93.43,2.9S340.56,95.61,340.65,96.54Z" style="fill:#263238"></path><path d="M333.22,108a42.6,42.6,0,0,1-1.52-5.72A3.76,3.76,0,0,0,330,99.74a13.71,13.71,0,0,0-2.06-.46c-2.42-.73-3.08-4.11-5.37-5.16a7.86,7.86,0,0,0-2.3-.48c-3.07-.36-6.25-1.42-8.17-3.83a14.86,14.86,0,0,0-1.9-2.33,2.26,2.26,0,0,0-2.77-.26q1,1.95,1.92,3.87a10.2,10.2,0,0,0,2.15,3.23,3.46,3.46,0,0,0,3.61.77,2.33,2.33,0,0,1,1.22-.42,1.35,1.35,0,0,1,.79.5c1.67,1.85,1.13,4.92-.51,6.81s-4,2.86-6.34,3.78a4.92,4.92,0,0,1-2.59.51c-1.61-.3-2.46-2-2.93-3.61-1.05-3.47-1.55-7.24-3.7-10.17a12.53,12.53,0,0,1-1.95-2.83c-.45-1.17-.34-2.53-1-3.55s-2.27-1.7-2.37-3a2.38,2.38,0,0,1,1.51-2.1c.83-.4,1.77-.52,2.62-.87.34-.14.71-.39.73-.75,0-.54-.76-.76-.95-1.27s.38-1.1.62-1.66c.53-1.27-.79-2.55-2.07-3.06s-2.81-.9-3.41-2.14a7.64,7.64,0,0,1-.41-1.85,4,4,0,0,0-3-3.34c-1.59-.26-3.35,1.15-3.09,2.73a10.81,10.81,0,0,0,1.15,2.34c.36.8.26,2-.57,2.26-1.36.41-2.67-2.08-3.81-1.22.47,1.59.92,3.18,1.39,4.79-1.79.91-3.93-.74-4.69-2.6s-.79-4-1.7-5.77-3.35-3.13-4.9-1.86c-.08,2.3,3,3.24,4.31,5.1,1,1.35.83,3.54-.61,4.39s-3.69-.63-3.15-2.2c.2-.54.65-1,.7-1.58a2.33,2.33,0,0,0-1.11-1.77l-2.6-2.19a5.52,5.52,0,0,0-1.86-1.17c-1.78-.52-3.57.93-4.51,2.53s-1.48,3.48-2.79,4.81c-1.88,2-5.44,2.06-7.2,0s-.87-5.84,1.74-6.58c1-.27,2.22-.24,2.74-1.11.91-1.54-1.68-3.51-.79-5.06.69-1.2,2.5-.65,3.82-1.05s2.05-1.72,2.82-2.86,2-2.27,3.32-2a4.19,4.19,0,0,1,.14-2.36,1.44,1.44,0,0,1,2-.72c-.66,1.08.13,2.6,1.29,3.14a6.83,6.83,0,0,0,3.76.27c1.27-.15,2.86-.62,3-1.89,0-.41-.12-.85,0-1.24.55-1.51,3.35.57,4.43-.65.62-.63-.07-1.76-.94-2a9.36,9.36,0,0,0-2.63.12c-.88,0-1.95-.42-2-1.3s.93-1.49,1-2.35c.16-1.45-2.3-1.82-3.16-.64s-.56,2.79-.3,4.23.4,3.13-.66,4.14c-.45.69-1.63.33-2-.4a5.92,5.92,0,0,1-.38-2.42,2.07,2.07,0,0,0-1.23-2,4.45,4.45,0,0,0-1.72.19c-2.25.28-3.82-2.64-3.11-4.79s2.75-3.55,4.73-4.65c1.45-.8,3.25-1.55,4.69-.73.67.37,1.14,1,1.8,1.41,1.14.67,2.55.42,3.86.45a9,9,0,0,1,5.63,2.19c.58.53,1.12,1.41.67,2s-1.9.81-1.66,1.6a2.81,2.81,0,0,0,3.53-2.27A2.39,2.39,0,0,1,292,47.43a4.19,4.19,0,0,1,6.15.51,5.28,5.28,0,0,0,1.14,1.46c.51.34,1.42.17,1.48-.44a1.11,1.11,0,0,0-.1-.57c-.31-.88-.63-1.75-.94-2.62,1.2-.64,2.62.37,3.44,1.45,3,4.06,5.19,1.62,9.46,2.28,2.89.44,4.16,2.29,5.79,4.53,5,6.89,11.6,12.54,16.15,19.74.48.75.92,1.51,1.33,2.29-.07-.19-.14-.39-.22-.58a79.31,79.31,0,0,0-6.6-13.43c-.56-.91-1.13-1.8-1.71-2.68-.36-.54-.74-1.1-1.11-1.63-.48-.7-1-1.37-1.49-2.05s-.81-1.07-1.22-1.59c-.28-.36-.58-.73-.88-1.09s-.65-.81-1-1.22l-1.09-1.25a4.1,4.1,0,0,0-.35-.39c-.37-.44-.77-.87-1.18-1.29a.24.24,0,0,0-.11-.13c-.11-.12-.22-.24-.34-.35-.32-.37-.67-.72-1-1.07q-.84-.86-1.71-1.68c-.48-.48-1-.93-1.47-1.38s-.88-.81-1.34-1.2l-1.33-1.14-1.67-1.37h0q-2.35-1.87-4.85-3.56c-.41-.28-.81-.56-1.23-.83s-.84-.54-1.25-.8l-1.27-.78c-.43-.27-.86-.51-1.28-.76s-.69-.4-1-.58a4.74,4.74,0,0,0-.53-.3c-.74-.42-1.49-.82-2.24-1.19-.38-.2-.75-.39-1.14-.57s-1-.48-1.46-.7a1.07,1.07,0,0,0-.22-.1c-.44-.21-.88-.42-1.34-.61-.63-.28-1.27-.55-1.9-.81s-1.45-.59-2.19-.86-1.63-.61-2.46-.88-1.67-.56-2.51-.82-1.68-.49-2.54-.73c-1.68-.45-3.39-.85-5.11-1.2,0,0-.07,0-.09,0-.66-.12-1.32-.25-2-.36l-.12,0c-.29-.06-.59-.11-.89-.15q-1.85-.3-3.72-.51c-.15,0-.3,0-.46-.06-.36,0-.72-.07-1.1-.11-.83-.08-1.66-.14-2.5-.2s-1.75-.1-2.63-.13-1.83-.05-2.75-.05q-3.66,0-7.23.33c-.57,0-1.13.09-1.68.15s-1.17.13-1.75.21-1.17.15-1.74.24l-1.73.29c-.49.08-1,.17-1.49.27-1.22.23-2.42.49-3.61.78-.56.13-1.12.27-1.67.43s-1.12.29-1.66.45c-.92.26-1.81.54-2.71.83h0l-2.17.74-.06,0c-.73.26-1.45.53-2.17.82l-.12,0c-.66.25-1.32.53-2,.8-.81.34-1.61.7-2.4,1.06s-1.34.62-2,.95-1.39.69-2.08,1.06l-.08,0c-.66.35-1.32.71-2,1.08s-1.33.77-2,1.18h0c-.62.38-1.23.75-1.84,1.14-.23.14-.45.3-.69.45-.64.42-1.27.85-1.9,1.29-.78.53-1.53,1.08-2.28,1.64s-1.31,1-1.94,1.5a81.54,81.54,0,0,0-10.18,9.65C197,51.5,196,52.74,195,54c-.85,1.09-1.68,2.19-2.47,3.33-.71,1-1.4,2-2.06,3,.66-1,1.35-2,2.06-3,.21,0,.42-.06.62-.07a9.47,9.47,0,0,0,3.45-.56,19.69,19.69,0,0,0,2.53-2c2.26-1.61,5.95-1.91,6.56-4.6a19.26,19.26,0,0,1,.29-2.76c.64-1.62,2.8-1.85,4.54-1.82.73,0,1.6.1,1.94.75a1.88,1.88,0,0,1-.08,1.5,14.07,14.07,0,0,1-5.94,7.3c-2.26,1.37-5.19,2.44-5.82,5,.31.87,1.89.8,2,1.71.09.72-.84,1.1-1.17,1.75-.5.94.63,2.1,1.7,2a4.73,4.73,0,0,0,2.76-1.55c2.36-2.19,4.83-4.55,5.69-7.65.36-1.28.49-2.79,1.52-3.64A2.54,2.54,0,0,1,217,54c1-.57,2.62-1,3.15.06a5.58,5.58,0,0,1,.22,1.22c.33,1.66,2.6,2.41,2.83,4.08.27,1.93-2.2,2.93-4.13,3.22l-5.24.83a4.92,4.92,0,0,0-2.18.7,1.69,1.69,0,0,0-.64,2,4.7,4.7,0,0,0,.9.94,2.78,2.78,0,0,1-1.79,4.5c-.69,0-1.38-.23-2.08-.26-2.07-.09-3.72,1.74-4.7,3.56s-1.72,3.91-3.38,5.16c-2.67,2-7.26,1.54-8.56,4.62a7.46,7.46,0,0,0,0,4,5.26,5.26,0,0,1-.48,3.89c-.76,1.09-2.75,1.32-3.32.11a3,3,0,0,1-.08-1.73c.31-1.91.61-3.83.9-5.74.22-1.43.42-3-.42-4.19-1.18-1.63-3.82-1.47-5.35-.17s-2.15,3.36-2.58,5.31a23.22,23.22,0,0,1-1.47,5.16h0c-.27,1.6-.5,3.23-.66,4.88s-.29,3.35-.35,5.06a8.8,8.8,0,0,0,.66-.62c.81-.84,2.46-4.4,3.93-2.66a1.32,1.32,0,0,1,0,1.62c-.45.59-1.36.72-1.71,1.35s.17,1.68.87,2.18a7.4,7.4,0,0,1,2,1.52c.95,1.36,0,3.42,1,4.81.79,1.19,2.47,1.27,3.91,1.42l.49.08c.41-2.85,1.74-5.17,5.62-6.05,5.36-1.21,12.41,3.23,15.42,7.27,3.37,4.52,5,10.91,10.12,13.18,3.69,1.62,8.93,1,10.73,4.65,1.61,3.23-1.19,6.87-1.62,10.46-.27,2.37.51,4.72.69,7.09s-.53,5.16-2.69,6.15c-1.21.55-2.72.48-3.69,1.39-1.73,1.63-.31,5-2,6.63a8.63,8.63,0,0,1-2.19,1.15c-3.87,2-3.76,7.65-2,11.6.06.15.13.28.19.42a81.82,81.82,0,0,0,80.36,2h0a82.62,82.62,0,0,0,17.4-12.44,79.37,79.37,0,0,0,6.22-6.49q2.06-2.37,3.91-4.91c.63-.86,1.25-1.73,1.84-2.63a80.29,80.29,0,0,0,10.17-20.93,80,80,0,0,0,3.13-13.87c.24-1.84.44-3.7.57-5.58a4.69,4.69,0,0,1-3.29,1.46C335.63,111.49,334,109.84,333.22,108Z" style="fill:#f5f5f5"></path><path d="M188.12,126.16c-.26-2.35.52-4.69.56-7.06,0-1.63-.09-3.35-.12-5a22.18,22.18,0,0,1-4.15-.58,1.3,1.3,0,0,1-.77-.39,1.6,1.6,0,0,1-.17-.87c-.1-1.84-1.87-3.05-3.47-4a13.75,13.75,0,0,0-2.52-1.25c0,.2,0,.38,0,.57a81.42,81.42,0,0,0,5.21,26,77.34,77.34,0,0,0,5,10.72c.81,1.49,1.69,2.95,2.61,4.39,1.14,1.77,2.33,3.51,3.61,5.18s2.46,3.17,3.79,4.67q2.75,3.12,5.79,6c1.8,1.68,3.68,3.27,5.63,4.79-4.46-12-8.67-24.23-16.31-34.43C190.8,132.19,188.5,129.47,188.12,126.16Z" style="fill:#f5f5f5"></path><path d="M177.47,103.17c0,.5,0,1,0,1.48s0,.8,0,1.2c0-.4,0-.8,0-1.2S177.46,103.67,177.47,103.17Z" style="fill:#263238"></path><g style="opacity:0.6000000000000001"><path d="M213.7,172.6c.69.47,1.39.92,2.09,1.36.49.31,1,.61,1.49.91-.5-.3-1-.6-1.49-.91C215.09,173.52,214.39,173.07,213.7,172.6Z" style="fill:#263238"></path></g><path d="M283,167.47a7.16,7.16,0,0,1-1.53-.16,5,5,0,0,1-3.61-2.74,9.41,9.41,0,0,1-.62-3.56,14,14,0,0,0-.26-2.43,13.1,13.1,0,0,0-1.92-3.92,18.36,18.36,0,0,1-1.67-3,17.91,17.91,0,0,1-.89-6.21l0-.5c-.43-14.39-4.44-26.07-11.6-33.78a7.82,7.82,0,0,0-3.52-2.49,4.37,4.37,0,0,0-4.5,1.56,8.9,8.9,0,0,0-.68,1.11A6.23,6.23,0,0,1,251,113a3.38,3.38,0,0,1-2.88.78,5.22,5.22,0,0,1-3.6-2.48c-1.27-2.24-1-5-.85-7.21l.74-8.93c.11-1.38.27-3.27,1.38-4.56a7.63,7.63,0,0,1,3.32-1.9,9.93,9.93,0,0,0,2.56-1.23c1.43-1.07,2.07-2.77,2.74-4.56a20.47,20.47,0,0,1,1.3-3,5.53,5.53,0,0,1,5.13-2.53,2.38,2.38,0,0,1,1.88,1.26,5.63,5.63,0,0,1,3.34-3c3-.85,6.56,1.49,10.05,3.75,3.18,2.07,6.19,4,8.55,3.59.59-.11,1.2-.28,1.78-.44a9.47,9.47,0,0,1,3.84-.53c3.44.48,5.19,4.21,6.34,7.41l5.59,15.63c.7,1.94,1.59,4.08,3.44,4.79a7.17,7.17,0,0,0,2.34.34,8.07,8.07,0,0,1,2.43.35,3.91,3.91,0,0,1,2.57,3.16,9.12,9.12,0,0,1-3,7.85h0A34.24,34.24,0,0,1,306.7,124c-2.53,1.72-4.91,3.35-5.94,6a14.31,14.31,0,0,0-.69,4.57,14,14,0,0,1-.8,4.92,14.16,14.16,0,0,1-2.43,3.55,23.56,23.56,0,0,0-1.63,2.07c-1.79,2.7-2.28,6-2.76,9.28-.06.41-.13.83-.19,1.24-.56,3.6-1.53,7.62-4.45,10.13A7.5,7.5,0,0,1,283,167.47Z" style="fill:#e0e0e0"></path><g style="opacity:0.6000000000000001"><path d="M177.52,101.24h0a3.55,3.55,0,0,0,0,.46c0,.48,0,1,0,1.47,0-.49,0-1,0-1.47A3.55,3.55,0,0,1,177.52,101.24Z" style="fill:#263238"></path></g><g style="opacity:0.6000000000000001"><path d="M177.46,105.85c0,.4,0,.8,0,1.19h0C177.47,106.65,177.47,106.25,177.46,105.85Z" style="fill:#263238"></path></g><path d="M188.7,110.93l-.49-.08c-1.44-.15-3.12-.23-3.91-1.42-.92-1.39,0-3.45-1-4.81a7.4,7.4,0,0,0-2-1.52c-.7-.5-1.3-1.43-.87-2.18s1.26-.76,1.71-1.35a1.32,1.32,0,0,0,0-1.62c-1.47-1.74-3.12,1.82-3.93,2.66a8.8,8.8,0,0,1-.66.62h0a3.55,3.55,0,0,0,0,.46c0,.48,0,1,0,1.47s0,1,0,1.48,0,.8,0,1.2,0,.8,0,1.19a13.75,13.75,0,0,1,2.52,1.25c1.6.92,3.37,2.13,3.47,4a1.6,1.6,0,0,0,.17.87,1.3,1.3,0,0,0,.77.39,22.3,22.3,0,0,0,4.15.58" style="fill:#e0e0e0"></path><path d="M188.56,114.1c0,1.65.14,3.37.12,5,0,2.37-.82,4.71-.56,7.06.38,3.31,2.68,6,4.69,8.7,7.64,10.2,11.85,22.44,16.31,34.43h0c.83.66,1.67,1.28,2.52,1.89.67.48,1.35,1,2,1.42s1.39.92,2.09,1.36c.49.31,1,.61,1.49.91-.06-.14-.13-.27-.19-.42-1.8-3.95-1.91-9.64,2-11.6a8.63,8.63,0,0,0,2.19-1.15c1.73-1.63.31-5,2-6.63,1-.91,2.48-.84,3.69-1.39,2.16-1,2.86-3.76,2.69-6.15s-1-4.72-.69-7.09c.43-3.59,3.23-7.23,1.62-10.46-1.8-3.62-7-3-10.73-4.65-5.16-2.27-6.75-8.66-10.12-13.18-3-4-10.06-8.48-15.42-7.27-3.88.88-5.21,3.2-5.62,6.05" style="fill:#e0e0e0"></path><path d="M182.58,80.82c1.53-1.3,4.17-1.46,5.35.17.84,1.17.64,2.76.42,4.19-.29,1.91-.59,3.83-.9,5.74a3,3,0,0,0,.08,1.73c.57,1.21,2.56,1,3.32-.11a5.26,5.26,0,0,0,.48-3.89,7.46,7.46,0,0,1,0-4c1.3-3.08,5.89-2.62,8.56-4.62,1.66-1.25,2.4-3.33,3.38-5.16s2.63-3.65,4.7-3.56c.7,0,1.39.29,2.08.26a2.78,2.78,0,0,0,1.79-4.5,4.7,4.7,0,0,1-.9-.94,1.69,1.69,0,0,1,.64-2,4.92,4.92,0,0,1,2.18-.7l5.24-.83c1.93-.29,4.4-1.29,4.13-3.22-.23-1.67-2.5-2.42-2.83-4.08a5.58,5.58,0,0,0-.22-1.22C219.59,53,218,53.44,217,54a2.54,2.54,0,0,0-3.85-1.23c-1,.85-1.16,2.36-1.52,3.64-.86,3.1-3.33,5.46-5.69,7.65a4.73,4.73,0,0,1-2.76,1.55c-1.07.06-2.2-1.1-1.7-2,.33-.65,1.26-1,1.17-1.75-.13-.91-1.71-.84-2-1.71.63-2.56,3.56-3.63,5.82-5a14.07,14.07,0,0,0,5.94-7.3,1.88,1.88,0,0,0,.08-1.5c-.34-.65-1.21-.75-1.94-.75-1.74,0-3.9.2-4.54,1.82a19.26,19.26,0,0,0-.29,2.76c-.61,2.69-4.3,3-6.56,4.6a19.69,19.69,0,0,1-2.53,2,9.47,9.47,0,0,1-3.45.56c-.2,0-.41,0-.62.07-.71,1-1.4,2-2.06,3s-1.3,2.07-1.91,3.13a80.79,80.79,0,0,0-7.1,15.82c-.63,1.94-1.19,3.9-1.68,5.9s-.9,4-1.23,6.08A23.22,23.22,0,0,0,180,86.13C180.43,84.18,181.06,82.13,182.58,80.82Z" style="fill:#e0e0e0"></path><path d="M251.21,42.87c.78-1,.55-2.47,1-3.64.84-1.95,3.42-2.65,4.32-4.57.35-.74.43-1.64,1-2.19s1.24-.55,1.78-1c1.21-.92.71-3-.57-3.84-3.21-2.05-9.12.32-11.89,2.32-3.57,2.58-7.05,5.69-11.8,5.38-1.3-.08-2.66-.44-3.89,0s-2,2.3-.92,3.07c.58.44,1.41.31,2.08.62,1.22.57,1.34,2.34.74,3.55s-1.67,2.11-2.37,3.26a6.07,6.07,0,0,0-.88,3.74A3.4,3.4,0,0,0,231,52.05c1.47,1.18,3.72.17,5-1.24s2.11-3.25,3.73-4.22a9.13,9.13,0,0,1,2.66-.92l6.18-1.47A4.46,4.46,0,0,0,251.21,42.87Z" style="fill:#e0e0e0"></path><g style="opacity:0.6000000000000001"><path d="M341,103.52c0-1.18,0-2.34-.11-3.51.07,1.17.1,2.33.11,3.51,0,.38,0,.75,0,1.13,0,1.81-.06,3.6-.16,5.39.1-1.79.16-3.58.16-5.39C341.05,104.27,341.05,103.9,341,103.52Z" style="fill:#263238"></path></g><g style="opacity:0.6000000000000001"><path d="M335.91,76.07c.39,1,.76,2.08,1.1,3.13-.34-1-.71-2.09-1.1-3.13,0,0,0,0,0,0h0Z" style="fill:#263238"></path></g><path d="M341,103.52c0-1.18,0-2.34-.11-3.51s-.15-2.31-.27-3.47c-.09-.93-.19-1.85-.32-2.77s-.27-1.93-.43-2.9A80.32,80.32,0,0,0,338,82.38c-.3-1.07-.62-2.13-1-3.18s-.71-2.09-1.1-3.13h0c-.41-.78-.85-1.54-1.33-2.29C330,66.57,323.43,60.92,318.43,54c-1.63-2.24-2.9-4.09-5.79-4.53-4.27-.66-6.43,1.78-9.46-2.28-.82-1.08-2.24-2.09-3.44-1.45.31.87.63,1.74.94,2.62a1.11,1.11,0,0,1,.1.57c-.06.61-1,.78-1.48.44a5.28,5.28,0,0,1-1.14-1.46,4.19,4.19,0,0,0-6.15-.51,2.39,2.39,0,0,0-1.36-1.92,2.81,2.81,0,0,1-3.53,2.27c-.24-.79,1.17-.93,1.66-1.6s-.09-1.52-.67-2a9,9,0,0,0-5.63-2.19c-1.31,0-2.72.22-3.86-.45-.66-.39-1.13-1-1.8-1.41-1.44-.82-3.24-.07-4.69.73-2,1.1-4,2.49-4.73,4.65s.86,5.07,3.11,4.79a4.45,4.45,0,0,1,1.72-.19,2.07,2.07,0,0,1,1.23,2,5.92,5.92,0,0,0,.38,2.42c.39.73,1.57,1.09,2,.4,1.06-1,.93-2.7.66-4.14s-.56-3.06.3-4.23,3.32-.81,3.16.64c-.11.86-1.08,1.48-1,2.35s1.11,1.34,2,1.3a9.36,9.36,0,0,1,2.63-.12c.87.2,1.56,1.33.94,2-1.08,1.22-3.88-.86-4.43.65-.16.39,0,.83,0,1.24-.11,1.27-1.7,1.74-3,1.89a6.83,6.83,0,0,1-3.76-.27c-1.16-.54-1.95-2.06-1.29-3.14a1.44,1.44,0,0,0-2,.72,4.19,4.19,0,0,0-.14,2.36c-1.35-.3-2.55.84-3.32,2s-1.51,2.46-2.82,2.86-3.13-.15-3.82,1.05c-.89,1.55,1.7,3.52.79,5.06-.52.87-1.76.84-2.74,1.11-2.61.74-3.51,4.55-1.74,6.58s5.32,1.92,7.2,0c1.31-1.33,1.84-3.21,2.79-4.81s2.73-3,4.51-2.53a5.52,5.52,0,0,1,1.86,1.17l2.6,2.19a2.33,2.33,0,0,1,1.11,1.77c-.05.58-.5,1-.7,1.58-.54,1.57,1.73,3.06,3.15,2.2s1.58-3,.61-4.39c-1.35-1.86-4.39-2.8-4.31-5.1,1.55-1.27,4,.06,4.9,1.86s.94,3.91,1.7,5.77,2.9,3.51,4.69,2.6c-.47-1.61-.92-3.2-1.39-4.79,1.14-.86,2.45,1.63,3.81,1.22.83-.26.93-1.46.57-2.26a10.81,10.81,0,0,1-1.15-2.34c-.26-1.58,1.5-3,3.09-2.73a4,4,0,0,1,3,3.34,7.64,7.64,0,0,0,.41,1.85c.6,1.24,2.14,1.62,3.41,2.14s2.6,1.79,2.07,3.06c-.24.56-.83,1.09-.62,1.66s.95.73.95,1.27c0,.36-.39.61-.73.75-.85.35-1.79.47-2.62.87a2.38,2.38,0,0,0-1.51,2.1c.1,1.29,1.64,1.91,2.37,3s.59,2.38,1,3.55A12.53,12.53,0,0,0,301,92.49c2.15,2.93,2.65,6.7,3.7,10.17.47,1.56,1.32,3.31,2.93,3.61a4.92,4.92,0,0,0,2.59-.51c2.32-.92,4.73-1.9,6.34-3.78s2.18-5,.51-6.81a1.35,1.35,0,0,0-.79-.5,2.33,2.33,0,0,0-1.22.42,3.46,3.46,0,0,1-3.61-.77,10.2,10.2,0,0,1-2.15-3.23q-.94-1.92-1.92-3.87a2.26,2.26,0,0,1,2.77.26,14.86,14.86,0,0,1,1.9,2.33c1.92,2.41,5.1,3.47,8.17,3.83a7.86,7.86,0,0,1,2.3.48c2.29,1,2.95,4.43,5.37,5.16a13.71,13.71,0,0,1,2.06.46,3.76,3.76,0,0,1,1.72,2.57,42.6,42.6,0,0,0,1.52,5.72c.79,1.81,2.41,3.46,4.38,3.48a4.69,4.69,0,0,0,3.29-1.46h0c.1-1.79.16-3.58.16-5.39C341.05,104.27,341.05,103.9,341,103.52Z" style="fill:#e0e0e0"></path><path d="M307.91,137.49c-1.22.24-1.46.95-2.12,1.86-.87,1.17-2.1,2.35-2.89,3.51-1.33,2-.13,5-1.88,6.68-.36.34-.82.56-1.14.93a2.07,2.07,0,0,0,.42,2.86,2.81,2.81,0,0,0,3.05.06,4.46,4.46,0,0,0,1.87-2.56,4.23,4.23,0,0,1,.95-2.09c1-.87,2.56-.22,3.87-.41C315.65,147.55,313.24,136.44,307.91,137.49Z" style="fill:#e0e0e0"></path><rect x="352.02" y="156.08" width="107.39" height="80.19" style="fill:#f5f5f5"></rect><rect x="352.02" y="156.08" width="107.39" height="8.1" style="fill:#e0e0e0"></rect><path d="M357.14,160.13a1.08,1.08,0,1,1-1.08-1.08A1.08,1.08,0,0,1,357.14,160.13Z" style="fill:#f5f5f5"></path><path d="M360.51,160.13a1.08,1.08,0,1,1-1.08-1.08A1.08,1.08,0,0,1,360.51,160.13Z" style="fill:#f5f5f5"></path><path d="M363.88,160.13a1.08,1.08,0,1,1-1.08-1.08A1.08,1.08,0,0,1,363.88,160.13Z" style="fill:#f5f5f5"></path><rect x="340.15" y="170.14" width="107.39" height="80.19" style="fill:#ebebeb"></rect><rect x="340.15" y="170.14" width="107.39" height="8.1" style="fill:#e0e0e0"></rect><path d="M345.28,174.18a1.09,1.09,0,1,1-1.09-1.08A1.09,1.09,0,0,1,345.28,174.18Z" style="fill:#f5f5f5"></path><path d="M348.65,174.18a1.09,1.09,0,1,1-1.09-1.08A1.09,1.09,0,0,1,348.65,174.18Z" style="fill:#f5f5f5"></path><circle cx="350.94" cy="174.18" r="1.08" style="fill:#f5f5f5"></circle><rect x="322.19" y="184.31" width="107.39" height="80.19" style="fill:#f5f5f5"></rect><rect x="322.19" y="184.31" width="107.39" height="8.1" style="fill:#e0e0e0"></rect><path d="M327.31,188.35a1.08,1.08,0,1,1-1.08-1.08A1.08,1.08,0,0,1,327.31,188.35Z" style="fill:#f5f5f5"></path><path d="M330.68,188.35a1.08,1.08,0,1,1-1.08-1.08A1.08,1.08,0,0,1,330.68,188.35Z" style="fill:#f5f5f5"></path><path d="M334.05,188.35a1.08,1.08,0,1,1-1.08-1.08A1.08,1.08,0,0,1,334.05,188.35Z" style="fill:#f5f5f5"></path><path d="M384.64,264.49a1.14,1.14,0,0,1,0,.32c0,.24,0,.55,0,.95,0,.86,0,2.08.05,3.64,0,3.2,0,7.79.08,13.5v.18h-.18l-49,.08L288,283.08,273.53,283l-3.92-.05-1,0a1.6,1.6,0,0,1-.35,0l.35,0,1,0,3.92-.05,14.45-.08,47.67-.08,49,.08-.18.18c0-5.71.06-10.3.08-13.5,0-1.56,0-2.78,0-3.64,0-.4,0-.71,0-.95A1.34,1.34,0,0,1,384.64,264.49Z" style="fill:#ebebeb"></path><path d="M383.61,156c-.14,0-.26-9.18-.26-20.49s.12-20.49.26-20.49.26,9.17.26,20.49S383.76,156,383.61,156Z" style="fill:#ebebeb"></path></g></svg>