<svg xmlns="http://www.w3.org/2000/svg" viewBox="0 0 750 500"><g id="freepik--background-complete--inject-2"><rect x="242.4" y="107.14" width="56.7" height="77.59" transform="translate(-24.71 60.45) rotate(-12.19)" style="fill:#f5f5f5"></rect><rect x="365.24" y="70.85" width="188.89" height="122.83" style="fill:#f5f5f5"></rect><circle cx="459.68" cy="127.08" r="25.7" transform="translate(229.29 544.66) rotate(-76.57)" style="fill:#e0e0e0"></circle><polygon points="468.32 127.08 461.61 130.95 454.89 134.83 454.89 127.08 454.89 119.33 461.61 123.2 468.32 127.08" style="fill:#f5f5f5"></polygon><rect x="365.24" y="171.62" width="188.89" height="22.07" style="fill:#e0e0e0"></rect><polygon points="383.59 182.65 380.87 184.23 378.14 185.8 378.14 182.65 378.14 179.51 380.87 181.08 383.59 182.65" style="fill:#f5f5f5"></polygon><rect x="399.25" y="182.15" width="139.33" height="1" style="fill:#f5f5f5"></rect><path d="M402.07,182.65a2.08,2.08,0,1,1-2.08-2.07A2.08,2.08,0,0,1,402.07,182.65Z" style="fill:#f5f5f5"></path><rect x="498.94" y="159.32" width="193.38" height="174.28" rx="5.49" style="fill:#f5f5f5"></rect><path d="M505.35,159.32H685.91a6.41,6.41,0,0,1,6.41,6.41v13.05a0,0,0,0,1,0,0H498.94a0,0,0,0,1,0,0V165.73A6.41,6.41,0,0,1,505.35,159.32Z" style="fill:#ebebeb"></path><circle cx="510.74" cy="169.08" r="1.53" style="fill:#fafafa"></circle><path d="M521.42,169.08a1.53,1.53,0,1,1-1.53-1.52A1.53,1.53,0,0,1,521.42,169.08Z" style="fill:#fafafa"></path><circle cx="529.04" cy="169.08" r="1.53" style="fill:#fafafa"></circle><rect x="596.04" y="194.47" width="73.02" height="2.64" style="fill:#fafafa"></rect><rect x="596.04" y="205.34" width="73.02" height="2.64" style="fill:#fafafa"></rect><rect x="596.04" y="216.22" width="73.02" height="2.64" style="fill:#fafafa"></rect><rect x="596.04" y="227.1" width="73.02" height="2.64" style="fill:#fafafa"></rect><rect x="596.04" y="237.97" width="36.51" height="2.64" style="fill:#fafafa"></rect><rect x="518.49" y="259.36" width="73.02" height="2.64" transform="translate(1109.99 521.37) rotate(180)" style="fill:#fafafa"></rect><rect x="518.49" y="270.24" width="73.02" height="2.64" transform="translate(1109.99 543.12) rotate(180)" style="fill:#fafafa"></rect><rect x="518.49" y="281.11" width="73.02" height="2.64" transform="translate(1109.99 564.87) rotate(180)" style="fill:#fafafa"></rect><rect x="518.49" y="291.99" width="73.02" height="2.64" transform="translate(1109.99 586.62) rotate(180)" style="fill:#fafafa"></rect><rect x="555" y="302.86" width="36.51" height="2.64" transform="translate(1146.5 608.37) rotate(180)" style="fill:#fafafa"></rect><rect x="604.12" y="256.44" width="62.49" height="51.99" style="fill:#fafafa"></rect><polygon points="604.02 292.73 622.48 279.79 635.37 288.71 655.63 271.56 666.61 282.44 666.61 308.43 604.12 308.43 604.02 292.73" style="fill:#ebebeb"></polygon><circle cx="636.45" cy="271.56" r="5.23" style="fill:#ebebeb"></circle><rect x="518.49" y="192.87" width="62.49" height="51.99" style="fill:#fafafa"></rect><polygon points="518.38 229.16 536.84 216.22 549.73 225.13 569.99 207.99 580.97 218.86 580.97 244.86 518.49 244.86 518.38 229.16" style="fill:#ebebeb"></polygon><circle cx="550.81" cy="207.99" r="5.23" style="fill:#ebebeb"></circle><path d="M58.64,240.54H291.28a0,0,0,0,1,0,0V361.9a4.65,4.65,0,0,1-4.65,4.65H63.29a4.65,4.65,0,0,1-4.65-4.65V240.54A0,0,0,0,1,58.64,240.54Z" style="fill:#f5f5f5"></path><rect x="58.64" y="240.54" width="232.64" height="23.41" style="fill:#ebebeb"></rect><circle cx="72.83" cy="252.29" r="1.84" style="fill:#fafafa"></circle><circle cx="83.84" cy="252.29" r="1.84" style="fill:#fafafa"></circle><circle cx="94.85" cy="252.29" r="1.84" style="fill:#fafafa"></circle><rect x="175.46" y="282.83" width="87.85" height="3.18" style="fill:#ebebeb"></rect><rect x="175.46" y="295.91" width="87.85" height="3.18" style="fill:#ebebeb"></rect><rect x="175.46" y="308.99" width="87.85" height="3.18" style="fill:#ebebeb"></rect><rect x="175.46" y="322.08" width="87.85" height="3.18" style="fill:#ebebeb"></rect><rect x="175.46" y="335.16" width="43.92" height="3.18" style="fill:#ebebeb"></rect><rect x="77.99" y="280.6" width="75.17" height="62.55" style="fill:#fafafa"></rect><polygon points="77.86 324.26 100.08 308.69 115.58 319.42 139.95 298.79 153.16 311.87 153.16 343.15 77.99 343.15 77.86 324.26" style="fill:#ebebeb"></polygon><path d="M123.17,298.79a6.3,6.3,0,1,1-6.29-6.3A6.3,6.3,0,0,1,123.17,298.79Z" style="fill:#ebebeb"></path></g></svg>