<svg xmlns="http://www.w3.org/2000/svg" viewBox="0 0 750 500"><g id="freepik--background-complete--inject-2"><path d="M637.77,117.56a51.51,51.51,0,0,1,11.14,7.85l11.91-4.23L672,138.84l-8.91,9a51.1,51.1,0,0,1,2.33,13.43l11.42,5.42-4.58,20.4-12.63,0a51.51,51.51,0,0,1-7.86,11.15l4.24,11.9-17.66,11.19-9-8.91A51.51,51.51,0,0,1,616,214.74l-5.42,11.42-20.41-4.58,0-12.63A51.51,51.51,0,0,1,579,201.09l-11.91,4.24-11.19-17.66,8.92-9a51.94,51.94,0,0,1-2.34-13.43L551,159.86l4.58-20.4,12.63,0a51.27,51.27,0,0,1,7.86-11.15l-4.24-11.9,17.66-11.19,9,8.91a51.51,51.51,0,0,1,13.43-2.33l5.42-11.42,20.4,4.58,0,12.63Zm-18,24a22.43,22.43,0,1,0,17,26.8A22.43,22.43,0,0,0,619.78,141.57Z" style="fill:#e0e0e0;fill-rule:evenodd"></path><path d="M525.53,78.51a12.64,12.64,0,0,1,3.91,1.23,16.46,16.46,0,0,1,7.81,7.89,16.62,16.62,0,0,1,1.59,7.63,17,17,0,0,1-2.62,8.56,17,17,0,0,1-7.5,6.43,16.92,16.92,0,0,1-19.64-4.4,17.06,17.06,0,0,1-4-9A16.91,16.91,0,0,1,506.34,88a16.73,16.73,0,0,1,4.7-6.22A16.48,16.48,0,0,1,521.47,78a12.6,12.6,0,0,1,4.06.56c0,.12-1.45-.29-4-.19a16.46,16.46,0,0,0-10,4,16.14,16.14,0,0,0-5.54,14.45,15,15,0,0,0,1.26,4.45,15.21,15.21,0,0,0,2.6,4.07,16,16,0,0,0,18.56,4.16,16.19,16.19,0,0,0,7.13-6.06,16.28,16.28,0,0,0,2.57-8.11,16.11,16.11,0,0,0-1.41-7.32,16.55,16.55,0,0,0-7.36-7.84C527,78.87,525.5,78.62,525.53,78.51Z" style="fill:#e0e0e0"></path><path d="M538.81,60.79a5.08,5.08,0,0,1,0-.59c0-.43,0-1,0-1.76q0-2.43-.09-7l.12.15-15.09-3.3.27-.13-4,8.44-.07.16h-.17a38.17,38.17,0,0,0-9.84,1.75l-.18.06-.13-.14L503,51.89l.42,0-13,8.29.15-.44c1,2.72,2.05,5.72,3.15,8.79l.08.22-.17.18a37.43,37.43,0,0,0-5.72,8.15l-.11.22h-.25l-9.33,0,.42-.33c-1.06,4.73-2.2,9.84-3.36,15.07l-.25-.5,8.43,4,.25.11V96a37.75,37.75,0,0,0,1.71,9.79l.09.27-.2.19-6.58,6.62.06-.58c2.62,4.13,5.43,8.55,8.27,13l-.56-.19,8.79-3.13.28-.1.21.19a37.08,37.08,0,0,0,8.11,5.72h0l.26.42h0v9.32l-.37-.47,15.07,3.39-.53.25q2-4.25,4-8.42l.13-.26h.28a37.28,37.28,0,0,0,9.79-1.7l.27-.08.2.2,6.6,6.59L539,137l13-8.24-.18.51c-1.06-3-2.09-5.91-3.12-8.79l-.08-.25.17-.19a37.39,37.39,0,0,0,5.75-8.12l.11-.22h9.58l-.39.31c1.2-5.3,2.34-10.3,3.41-15.06l.2.41-8.41-4-.19-.09V93a37.68,37.68,0,0,0-1.68-9.83l-.06-.18.14-.14,6.6-6.59,0,.35-8.2-13.07.25.08-8.81,3.08-.09,0-.07-.07a38.73,38.73,0,0,0-6-4.61l-1.6-1a5.56,5.56,0,0,1-.53-.32,4.14,4.14,0,0,1,.57.25c.37.19.92.48,1.64.9a37,37,0,0,1,6.12,4.53l-.15,0,8.77-3.19.16-.06.09.15,8.32,13,.12.19-.16.16c-2,2-4.18,4.22-6.56,6.64l.07-.32a38,38,0,0,1,1.77,10l-.19-.3,8.44,4,.26.13-.07.28c-1,4.77-2.17,9.77-3.34,15.07l-.07.31h-.32l-9.33,0,.37-.22a38.1,38.1,0,0,1-5.85,8.32l.09-.43q1.53,4.32,3.14,8.79l.11.33-.29.19-13,8.27-.31.19-.25-.25-6.62-6.58.46.11a37.88,37.88,0,0,1-10,1.75l.41-.26-4,8.43-.16.34-.37-.09L503.55,138l-.37-.08v-.38c0-1.55,0-3.1,0-4.65v-4.67h0c.51.84.14.23.25.42h0a38.78,38.78,0,0,1-8.32-5.87l.48.1L486.77,126l-.36.12-.2-.32-8.25-13-.2-.31.26-.27,6.59-6.61-.11.47a38.38,38.38,0,0,1-1.74-10l.25.39-8.42-4-.32-.15.08-.35,3.4-15,.07-.34h9.67l-.36.22A38.08,38.08,0,0,1,493,68.43l-.08.4L489.8,60l-.1-.28.26-.16L503,51.36l.23-.14.19.19C505.75,53.72,508,56,510,58l-.32-.08a38.05,38.05,0,0,1,10-1.7l-.24.15c1.46-3,2.82-5.86,4-8.4l.08-.18.19,0,15,3.47.12,0v.12q0,4.5-.06,6.92c0,.76,0,1.35,0,1.79A5.31,5.31,0,0,1,538.81,60.79Z" style="fill:#e0e0e0"></path><path d="M133.33,280.93a26.3,26.3,0,0,1,4.93,4.84l6.31-1.15,4.15,9.75-5.19,3.75a25.76,25.76,0,0,1,.08,6.91l5.27,3.64-3.95,9.84-6.33-1a26,26,0,0,1-4.83,4.94l1.15,6.3-9.75,4.16-3.75-5.19a25.77,25.77,0,0,1-6.91.07L110.87,333l-9.84-4,1-6.32a25.76,25.76,0,0,1-4.94-4.84l-6.3,1.15-4.16-9.75,5.19-3.75a25.77,25.77,0,0,1-.07-6.91L86.5,295l4-9.83,6.32,1a25.76,25.76,0,0,1,4.84-4.94l-1.15-6.3,9.74-4.16L114,276a26.18,26.18,0,0,1,6.91-.07l3.64-5.27,9.83,3.95-1,6.32Zm-11,10.55a11.37,11.37,0,1,0,6.31,14.79A11.37,11.37,0,0,0,122.37,291.48Z" style="fill:none"></path><path d="M122.37,291.48a8.79,8.79,0,0,1,2.52,1.26,11.31,11.31,0,0,1,4.42,6.21,11.6,11.6,0,0,1,.24,5.35,11.74,11.74,0,0,1-2.73,5.51,11.7,11.7,0,0,1-5.78,3.53,11.63,11.63,0,0,1-12.83-5.15,11.37,11.37,0,0,1-1.37-3.22,10.91,10.91,0,0,1-.36-3.34,11.71,11.71,0,0,1,1.85-5.86,11.49,11.49,0,0,1,11.35-5.12,8.58,8.58,0,0,1,2.69.83c0,.08-1-.35-2.72-.58a11.31,11.31,0,0,0-7.22,1.58,11.1,11.1,0,0,0-3.65,3.58,11.28,11.28,0,0,0-1.7,5.59,10.7,10.7,0,0,0,.36,3.16,10.36,10.36,0,0,0,1.32,3,11,11,0,0,0,12.12,4.87,11.17,11.17,0,0,0,5.5-3.32,11.13,11.13,0,0,0,2.48-10.32,11.33,11.33,0,0,0-4.12-6.13A26.71,26.71,0,0,0,122.37,291.48Z" style="fill:#e0e0e0"></path><path d="M133.33,280.93a1.68,1.68,0,0,1,0-.39c0-.3.09-.69.17-1.2.16-1.1.39-2.69.7-4.74l.06.11-9.85-3.9.19-.06c-1.09,1.61-2.31,3.38-3.61,5.29l-.07.09h-.12a25.49,25.49,0,0,0-6.85.1l-.13,0-.08-.11L110,271l.27.08-9.73,4.18.15-.28c.36,1.95.76,4.09,1.16,6.3l0,.16-.13.1A25.81,25.81,0,0,0,97,286.38l-.1.14-.17,0-6.33-1,.32-.18c-1.24,3.09-2.57,6.43-3.94,9.84l-.11-.36,5.27,3.64.16.1,0,.19a26.05,26.05,0,0,0,.08,6.82l0,.19-.15.12-5.19,3.75.1-.38L91.11,319l-.36-.19,6.3-1.15.2,0,.12.15a25.65,25.65,0,0,0,4.87,4.77h0c.06.14-.12-.31.13.32h0V323l0,.2-.07.4-.12.79-.26,1.59c-.17,1.05-.34,2.11-.51,3.15l-.2-.35,9.84,3.95-.39.12,3.64-5.27.11-.16.2,0a25.1,25.1,0,0,0,6.82-.07l.19,0,.11.15,3.75,5.2-.37-.11,9.75-4.15-.18.33q-.57-3.21-1.14-6.3l0-.18.14-.1a26,26,0,0,0,4.79-4.88l.1-.14.17,0,6.32,1-.3.16,4-9.82.09.3-5.26-3.66-.12-.08,0-.14a26,26,0,0,0-.06-6.85l0-.13.11-.07,5.2-3.74-.06.23c-1.6-3.78-3-7-4.12-9.76l.16.08-6.31,1.11h-.06l0-.05a26.36,26.36,0,0,0-3.55-3.78l-1-.84c-.23-.18-.33-.27-.32-.28l.35.24c.23.17.58.43,1,.79a26.13,26.13,0,0,1,3.65,3.74l-.11,0,6.3-1.2.11,0,0,.11,4.2,9.73.06.14-.12.09-5.18,3.77.09-.2a26.05,26.05,0,0,1,.09,7l-.1-.22,5.28,3.63.17.11-.08.18c-1.24,3.12-2.55,6.38-3.93,9.85l-.08.2-.22,0-6.32-1,.27-.11a26.21,26.21,0,0,1-4.88,5l.11-.29q.57,3.11,1.15,6.3l0,.24L135,329l-9.75,4.17-.22.1-.15-.2-3.76-5.19.3.13a26.36,26.36,0,0,1-7,.08l.3-.14q-1.8,2.61-3.64,5.27l-.14.22-.24-.1-9.84-3.95-.24-.09,0-.26.51-3.15.25-1.59.13-.79.06-.4,0-.2,0-.1v-.08h0c.25.62.07.17.12.31h0a25.75,25.75,0,0,1-5-4.89l.31.12-6.3,1.15-.26.05-.1-.24c-1.43-3.35-2.84-6.66-4.15-9.75l-.1-.24.2-.15,5.2-3.75-.13.31a26.55,26.55,0,0,1-.07-7l.13.3-5.26-3.65-.2-.14.09-.22c1.37-3.42,2.71-6.75,4-9.83l.09-.22.23,0,6.32,1-.27.11a26.29,26.29,0,0,1,4.89-5l-.1.26c-.4-2.2-.78-4.35-1.14-6.3l0-.2.19-.08,9.75-4.14.17-.07.11.15,3.74,5.2-.2-.09a26.22,26.22,0,0,1,7-.05l-.18.08,3.66-5.25.08-.11.12.05,9.81,4,.08,0v.08l-.81,4.68c-.09.51-.17.91-.22,1.21A2.39,2.39,0,0,1,133.33,280.93Z" style="fill:#e0e0e0"></path><path d="M216.94,334.08a45.34,45.34,0,0,1,8.64,8.47l11-2,7.29,17.08-9.1,6.58a45.41,45.41,0,0,1,.14,12.11l9.23,6.38-6.93,17.23-11.08-1.78a45.11,45.11,0,0,1-8.47,8.65l2,11-17.08,7.29L196.06,416a45.84,45.84,0,0,1-12.11.13l-6.37,9.23-17.24-6.92,1.78-11.08a45.45,45.45,0,0,1-8.65-8.48l-11.05,2-7.28-17.08,9.09-6.58a45.85,45.85,0,0,1-.13-12.11l-9.23-6.38,6.92-17.23,11.08,1.78a45.45,45.45,0,0,1,8.48-8.65l-2-11.05,17.08-7.29,6.58,9.1a45.43,45.43,0,0,1,12.11-.13l6.38-9.23L218.71,323l-1.77,11.08Zm-19.2,18.48a19.93,19.93,0,1,0,11.06,25.92A19.93,19.93,0,0,0,197.74,352.56Z" style="fill:#e0e0e0;fill-rule:evenodd"></path></g><g id="freepik--React--inject-2"><path d="M652.65,312.48c-.19.11-1.88-2.7-5.29-7.52-1.7-2.41-3.85-5.31-6.52-8.53a95,95,0,0,0-9.79-10.21,54.26,54.26,0,0,0-6.46-5,24.43,24.43,0,0,0-7.83-3.52,9.55,9.55,0,0,0-4.22-.06,6.29,6.29,0,0,0-3.44,2.21,10.17,10.17,0,0,0-1.89,4.08,22.08,22.08,0,0,0-.6,4.87,48.11,48.11,0,0,0,1.14,10.39,84.39,84.39,0,0,0,3,10.62A133,133,0,0,0,634,350.06a86.31,86.31,0,0,0,7.68,7.93,48.2,48.2,0,0,0,8.43,6.19,23,23,0,0,0,4.52,1.92,10.37,10.37,0,0,0,4.48.4,6.25,6.25,0,0,0,3.63-1.89,9.42,9.42,0,0,0,2.06-3.67,24.32,24.32,0,0,0,.86-8.54,52.82,52.82,0,0,0-1.07-8.09,93.8,93.8,0,0,0-4-13.58c-1.45-3.92-2.89-7.23-4.12-9.91-2.47-5.37-4.06-8.23-3.87-8.34a9.3,9.3,0,0,1,1.4,1.94c.82,1.33,2,3.32,3.38,5.95s3,5.91,4.57,9.83a89.73,89.73,0,0,1,4.39,13.73,54.48,54.48,0,0,1,1.28,8.35,26.34,26.34,0,0,1-.81,9.31,11.7,11.7,0,0,1-2.5,4.55,8.43,8.43,0,0,1-4.87,2.61,12.52,12.52,0,0,1-5.49-.39,24.58,24.58,0,0,1-5-2.08,49.43,49.43,0,0,1-8.94-6.43,86.26,86.26,0,0,1-8-8.13,131.91,131.91,0,0,1-23.7-41,85.29,85.29,0,0,1-3-11,49.77,49.77,0,0,1-1.11-11,24.45,24.45,0,0,1,.72-5.39,12.64,12.64,0,0,1,2.4-5,8.54,8.54,0,0,1,4.7-2.91,11.65,11.65,0,0,1,5.2.11,26.38,26.38,0,0,1,8.46,3.95,56.1,56.1,0,0,1,6.6,5.28A90.55,90.55,0,0,1,642,295.52c2.6,3.35,4.64,6.36,6.23,8.87s2.73,4.53,3.46,5.91A9.09,9.09,0,0,1,652.65,312.48Z" style="fill:#FF725E"></path><path d="M621.77,312.42c.18.11-1.44,2.84-4,8-1.26,2.56-2.74,5.73-4.23,9.49a86.1,86.1,0,0,0-4.07,13.06,49.16,49.16,0,0,0-1.12,7.8,23,23,0,0,0,.8,8.24,9.49,9.49,0,0,0,2,3.57,6.56,6.56,0,0,0,3.48,1.94,10,10,0,0,0,4.35-.12,20.23,20.23,0,0,0,4.46-1.6,43.78,43.78,0,0,0,8.43-5.55,79.38,79.38,0,0,0,7.74-7.34,122.52,122.52,0,0,0,23.63-38.18,78.38,78.38,0,0,0,3.11-10.21,43.81,43.81,0,0,0,1.21-10,20.51,20.51,0,0,0-.56-4.7,10.06,10.06,0,0,0-1.83-3.95,6.57,6.57,0,0,0-3.3-2.25,9.48,9.48,0,0,0-4.08-.18,23.09,23.09,0,0,0-7.73,2.95,50.75,50.75,0,0,0-6.48,4.49,87.15,87.15,0,0,0-9.87,9.47c-2.7,3-4.88,5.75-6.61,8-3.46,4.54-5.18,7.21-5.36,7.1a7.6,7.6,0,0,1,1-2.09c.75-1.31,1.9-3.23,3.53-5.6a105,105,0,0,1,6.33-8.38,82.53,82.53,0,0,1,9.8-9.94,49.51,49.51,0,0,1,6.63-4.8,25,25,0,0,1,8.42-3.36,11.77,11.77,0,0,1,5,.18,8.82,8.82,0,0,1,4.46,2.95,12.47,12.47,0,0,1,2.33,4.8,23.24,23.24,0,0,1,.68,5.24A45.66,45.66,0,0,1,668.81,302a80,80,0,0,1-3.15,10.56,122.35,122.35,0,0,1-24.15,39,80.2,80.2,0,0,1-8,7.54,45.84,45.84,0,0,1-9,5.78,22.86,22.86,0,0,1-5,1.73,12.28,12.28,0,0,1-5.33.06,8.82,8.82,0,0,1-4.63-2.67,11.73,11.73,0,0,1-2.41-4.42,25,25,0,0,1-.75-9,49.54,49.54,0,0,1,1.34-8.08,82.47,82.47,0,0,1,4.52-13.21,104.14,104.14,0,0,1,4.67-9.4c1.4-2.52,2.6-4.4,3.44-5.66S621.69,312.37,621.77,312.42Z" style="fill:#FF725E"></path><path d="M635.24,300.91c0,.22-3.18.27-8.87.82-2.84.28-6.31.7-10.29,1.4a87.75,87.75,0,0,0-13.25,3.42,50.07,50.07,0,0,0-7.22,3.15,22.89,22.89,0,0,0-6.59,5,9.53,9.53,0,0,0-2,3.56,6.65,6.65,0,0,0,.18,4,10.22,10.22,0,0,0,2.39,3.64,20.88,20.88,0,0,0,3.71,2.94,43.83,43.83,0,0,0,9.15,4.25,78.16,78.16,0,0,0,10.33,2.72,122.14,122.14,0,0,0,44.89,0A78,78,0,0,0,668,333.1a43.68,43.68,0,0,0,9.16-4.25,20.88,20.88,0,0,0,3.71-2.94,10.22,10.22,0,0,0,2.39-3.64,6.65,6.65,0,0,0,.18-4,9.53,9.53,0,0,0-2-3.56,22.89,22.89,0,0,0-6.59-5,48,48,0,0,0-7.22-3.15,87.75,87.75,0,0,0-13.25-3.42c-4-.7-7.45-1.12-10.29-1.4-5.69-.55-8.87-.6-8.86-.82a7.76,7.76,0,0,1,2.3-.24c1.51-.05,3.75-.08,6.63.05s6.39.4,10.45,1a82.6,82.6,0,0,1,13.61,3.1,50.72,50.72,0,0,1,7.57,3.12,24.86,24.86,0,0,1,7.29,5.39,11.7,11.7,0,0,1,2.49,4.37,8.86,8.86,0,0,1-.16,5.34,12.36,12.36,0,0,1-2.86,4.51,22.22,22.22,0,0,1-4.1,3.33,45.69,45.69,0,0,1-9.64,4.59,79.18,79.18,0,0,1-10.64,2.87,121.84,121.84,0,0,1-45.89,0,79.18,79.18,0,0,1-10.64-2.87,45.69,45.69,0,0,1-9.64-4.59,22.55,22.55,0,0,1-4.1-3.33,12.28,12.28,0,0,1-2.86-4.51,8.86,8.86,0,0,1-.16-5.34,11.77,11.77,0,0,1,2.49-4.37,24.91,24.91,0,0,1,7.29-5.39,49.19,49.19,0,0,1,7.57-3.11,81.48,81.48,0,0,1,13.61-3.11c4.06-.58,7.58-.85,10.45-1s5.12-.1,6.63-.05A7.87,7.87,0,0,1,635.24,300.91Z" style="fill:#FF725E"></path><circle cx="637.71" cy="322.29" r="8.37" transform="translate(217.19 899.96) rotate(-80.76)" style="fill:#FF725E"></circle></g></svg>