<svg xmlns="http://www.w3.org/2000/svg" viewBox="0 0 750 500"><g id="freepik--background-complete--inject-14"><path d="M683.24,369.21c5.15-2.66,11.21-3,16.93-2.06,3.07.51,6.27,1.43,8.36,3.74s2.49,6.36.09,8.34c-1.43,1.18-3.42,1.36-5.27,1.34-4.48-.05-9.45-.84-13,1.86-2,1.53-3.4,4.09-5.84,4.84s-5.08-.67-6.34-2.82a9.83,9.83,0,0,1-.72-7.27A11.11,11.11,0,0,1,683.24,369.21Z" style="fill:#ebebeb"></path><path d="M671.44,346.43c3.15,4.5,9.27,3,12.11.27s4-6.73,5.13-10.52c2.49-8.67,5-17.76,3.15-26.59a14.78,14.78,0,0,0-3.39-7.23,7.72,7.72,0,0,0-7.32-2.43c-3.08.81-5,3.83-6.39,6.71a63.42,63.42,0,0,0-6.26,27.2c0,4.38.5,9,3,12.59" style="fill:#ebebeb"></path><path d="M662.79,352.89c3.42-4.06,4.07-10,2.55-15.06s-5-9.41-8.92-12.94a47.87,47.87,0,0,0-16-9.42,16.8,16.8,0,0,0-7.18-1.22,7.51,7.51,0,0,0-6,3.64c-1.68,3.21-.07,7.1,1.67,10.27a121.39,121.39,0,0,0,10.49,16c3.15,4.06,6.75,8.06,11.54,9.89s9.77,1.61,12.31-1.71" style="fill:#ebebeb"></path><path d="M671.23,414.28a10.11,10.11,0,0,0,.28-2q.22-2.24.55-5.57a81.41,81.41,0,0,1,1.25-8.19,63.77,63.77,0,0,1,3-9.65,36.22,36.22,0,0,1,4.93-8.74,18.41,18.41,0,0,1,6.24-5.18,17.14,17.14,0,0,1,5.25-1.63,9.84,9.84,0,0,0,2-.3,9.19,9.19,0,0,0-2.07,0,15.83,15.83,0,0,0-5.47,1.42,18.4,18.4,0,0,0-6.58,5.23,35,35,0,0,0-5.11,8.91,59.07,59.07,0,0,0-3,9.82,69.68,69.68,0,0,0-1.09,8.28c-.18,2.37-.24,4.29-.28,5.61A9.9,9.9,0,0,0,671.23,414.28Z" style="fill:#e0e0e0"></path><path d="M671.61,410a3.79,3.79,0,0,0,.06-.94c0-.72,0-1.61,0-2.72,0-2.35,0-5.75.12-10,.21-8.41.93-17.46,2.33-30.22,1.33-12,3.1-26,5-35.05.4-2.06.81-3.92,1.19-5.55s.67-3,1-4.17.47-1.95.64-2.64a4,4,0,0,0,.16-.93,3.67,3.67,0,0,0-.33.89c-.2.68-.46,1.54-.78,2.59s-.71,2.53-1.12,4.15-.87,3.48-1.31,5.54a308.45,308.45,0,0,0-5.24,32.52c-1.4,12.78-2,24.43-2.09,32.86,0,4.22,0,7.63.15,10,.07,1.1.12,2,.17,2.71A3.57,3.57,0,0,0,671.61,410Z" style="fill:#e0e0e0"></path><path d="M671.67,387.53a17.67,17.67,0,0,0,0-2.84c-.11-1.82-.36-4.45-.87-7.67a100.77,100.77,0,0,0-2.49-11.18,92.57,92.57,0,0,0-4.68-13.23,70.59,70.59,0,0,0-13.73-21.38,35.71,35.71,0,0,0-3.23-3c-.5-.41-.94-.83-1.38-1.16l-1.25-.87a17.52,17.52,0,0,0-2.39-1.52c-.13.18,3.38,2.25,7.82,7a74.33,74.33,0,0,1,13.39,21.3,105.13,105.13,0,0,1,4.7,13.11c1.22,4.11,2,7.89,2.65,11.07s.93,5.8,1.13,7.6A18,18,0,0,0,671.67,387.53Z" style="fill:#e0e0e0"></path><polygon points="649.96 427.14 652.21 457.97 691.82 457.97 694.07 427.14 649.96 427.14" style="fill:#e0e0e0"></polygon><rect x="646.14" y="414.99" width="52.66" height="12.15" style="fill:#e0e0e0"></rect><polygon points="646.14 456.79 646.14 460.16 648.61 460.16 697.92 460.16 697.92 456.79 646.14 456.79" style="fill:#ebebeb"></polygon><polygon points="651.04 466.09 648.61 460.16 696.04 460.16 693.21 466.09 651.04 466.09" style="fill:#e0e0e0"></polygon><path d="M693.33,437.22s-.05.1-.18.28l-.59.79c-.57.72-1.34,1.7-2.31,2.95l-.1.13-.1-.14-5.67-7.84h.33l-5.59,7.9-.17.25-.2-.23-6.61-7.88h.38l-.37.46-5.92,7.42-.19.24-.18-.25-5.59-7.9h.33l-6.88,7.84-.12.14-.09-.16-2.16-3.62-.55-1a2,2,0,0,1-.17-.34s.09.09.23.3l.61.93,2.26,3.55-.21,0,6.76-7.93.17-.2.16.22,5.63,7.86h-.38l5.91-7.43.36-.46.19-.23.19.23,6.6,7.89h-.37c2-2.84,3.94-5.48,5.64-7.86l.16-.23.17.23,5.54,7.93h-.2l2.4-2.88.65-.74C693.24,437.29,693.32,437.21,693.33,437.22Z" style="fill:#f5f5f5"></path><path d="M694.62,426.94c0,.13-9.92.25-22.16.25s-22.17-.12-22.17-.25,9.92-.25,22.17-.25S694.62,426.8,694.62,426.94Z" style="fill:#f5f5f5"></path><path d="M696.62,460.49c0,.14-10.78.25-24.09.25s-24.09-.11-24.09-.25,10.79-.24,24.09-.24S696.62,460.36,696.62,460.49Z" style="fill:#f5f5f5"></path><polygon points="102.32 365.76 102.32 396.56 147.35 396.56 197.03 396.56 197.03 365.76 102.32 365.76" style="fill:#f5f5f5"></polygon><polygon points="98.34 357.15 98.34 365.76 200.34 365.76 200.34 357.15 147.35 357.15 98.34 357.15" style="fill:#e0e0e0"></polygon><polygon points="149.34 396.56 197.03 396.56 197.03 365.76 200.34 365.76 200.34 357.15 147.35 357.15 147.35 364.97 149.34 396.56" style="fill:#e0e0e0"></polygon><rect x="115.56" y="370.73" width="19.21" height="4.64" style="fill:#e0e0e0"></rect><rect x="113.09" y="381.16" width="24.66" height="9.79" style="fill:#fff"></rect><path d="M211.25,462.76,209.26,41H201.1V124H180L179.61,41h-8.17V124H98.88L98.48,41H90.32V124h-21L68.89,41H60.73V462.76H70.88l-.27-56.6H90.32v56.6h10.15l-.26-56.6h71.23v56.6H181.6l-.27-56.6H201.1v56.6ZM79.93,350.27,72.64,319h15Zm10.39-29.35v73.85l-8.84-37.88Zm0-107.35-8.84-37.88,8.84-36Zm-1.58,6.78H70.5l9.36-38Zm-8.81-51.29-8.35-35.8H88.73Zm-1.62,6.61-8.62,35.06-.34-73.46ZM70.22,322.21l8.09,34.66-7.78,31.65Zm9.63,41.29,7.81,33.44h-16Zm-9.36-53.72-.07-.28-.26.06-.38-80H90.32v80.21Zm28.89-80.21h72.06v80.21H99.75Zm90.68-47.28L199,220.35H180.71Zm-9.66,26.4-.33-69.19,8.45,36.17ZM201.1,216l-9.41-40.32,9.41-38.3Zm0,4.21v.13h-.57Zm0,102.89v69.35l-8.3-35.57Zm-9.85,27.16L184,319h15Zm-1.11-181.21-8.36-35.8h17.16Zm11,60.51v80.21H181.8l-.06-.28-.86.2-.38-80.13Zm-11.47,127.3-8.37,34-.33-71.32Zm1.54,6.63L199,396.94H183ZM171.44,133.26v87.09H99.33l-.41-87.09Zm-70,263.68h-1.31L99.8,319h71.64v77.94Z" style="fill:#e0e0e0"></path><rect x="151.63" y="157.84" width="13.49" height="62.87" style="fill:#e0e0e0"></rect><path d="M161.32,205.63a2.67,2.67,0,1,1-2.67-2.67A2.68,2.68,0,0,1,161.32,205.63Z" style="fill:#fafafa"></path><rect x="156.47" y="174.5" width="4.13" height="25.69" style="fill:#fafafa"></rect><rect x="137.93" y="157.84" width="13.49" height="62.87" style="fill:#ebebeb"></rect><path d="M147.62,205.63a2.68,2.68,0,1,1-2.68-2.67A2.68,2.68,0,0,1,147.62,205.63Z" style="fill:#fafafa"></path><rect x="142.76" y="174.5" width="4.13" height="25.69" style="fill:#fafafa"></rect><rect x="124.88" y="157.84" width="13.49" height="62.87" style="fill:#f5f5f5"></rect><path d="M134.57,205.63a2.68,2.68,0,1,1-2.68-2.67A2.68,2.68,0,0,1,134.57,205.63Z" style="fill:#e0e0e0"></path><rect x="129.72" y="174.5" width="4.13" height="25.69" style="fill:#e0e0e0"></rect><polygon points="108.2 219.75 124.41 164.45 118.82 162 102.19 217.75 108.2 219.75" style="fill:#f5f5f5"></polygon><polygon points="84.18 309.79 84.18 300.26 151.42 300.26 151.63 309.79 84.18 309.79" style="fill:#f5f5f5"></polygon><path d="M151.45,301.82s-59.63.44-63.49,1.35c-.83.19-1.68,3.85,0,4.19s63.49.84,63.49.84Z" style="fill:#fff"></path><polygon points="91.99 299.89 91.99 290.37 145.25 290.37 145.42 299.89 91.99 299.89" style="fill:#ebebeb"></polygon><path d="M145.28,291.92S98,292.36,95,293.27c-.65.2-1.32,3.86,0,4.19s50.3.84,50.3.84Z" style="fill:#fafafa"></path><polygon points="91.75 290.48 91.75 280.97 145.01 280.97 145.18 290.48 91.75 290.48" style="fill:#e0e0e0"></polygon><path d="M145,282.52s-47.23.44-50.29,1.35c-.66.19-1.33,3.85,0,4.19s50.29.84,50.29.84Z" style="fill:#fafafa"></path><rect x="157.68" y="62.38" width="13.49" height="62.87" style="fill:#f5f5f5"></rect><path d="M167.37,110.17a2.67,2.67,0,1,1-2.67-2.67A2.66,2.66,0,0,1,167.37,110.17Z" style="fill:#e0e0e0"></path><rect x="162.52" y="79.04" width="4.13" height="25.69" style="fill:#e0e0e0"></rect><rect x="143.98" y="62.38" width="13.49" height="62.87" style="fill:#ebebeb"></rect><path d="M153.67,110.17A2.67,2.67,0,1,1,151,107.5,2.67,2.67,0,0,1,153.67,110.17Z" style="fill:#fafafa"></path><rect x="148.82" y="79.04" width="4.13" height="25.69" style="fill:#fafafa"></rect><rect x="130.93" y="62.38" width="13.49" height="62.87" style="fill:#e0e0e0"></rect><path d="M140.62,110.17A2.67,2.67,0,1,1,138,107.5,2.67,2.67,0,0,1,140.62,110.17Z" style="fill:#fafafa"></path><rect x="135.77" y="79.04" width="4.13" height="25.69" style="fill:#fafafa"></rect><polygon points="345.09 433.49 345.09 466.83 393.84 466.83 447.61 466.83 447.61 433.49 345.09 433.49" style="fill:#f5f5f5"></polygon><polygon points="340.79 424.17 340.79 433.49 451.19 433.49 451.19 424.17 393.84 424.17 340.79 424.17" style="fill:#ebebeb"></polygon><polygon points="395.99 466.83 447.61 466.83 447.61 433.49 451.19 433.49 451.19 424.17 393.84 424.17 393.84 432.63 395.99 466.83" style="fill:#ebebeb"></polygon><rect x="359.43" y="438.87" width="20.79" height="5.02" style="fill:#e0e0e0"></rect><rect x="356.75" y="450.16" width="26.7" height="10.6" style="fill:#fff"></rect><polygon points="360.86 390.88 360.86 424.21 409.61 424.21 463.38 424.21 463.38 390.88 360.86 390.88" style="fill:#f5f5f5"></polygon><polygon points="356.56 381.56 356.56 390.88 466.97 390.88 466.97 381.56 409.61 381.56 356.56 381.56" style="fill:#ebebeb"></polygon><polygon points="411.76 424.21 463.38 424.21 463.38 390.88 466.97 390.88 466.97 381.56 409.61 381.56 409.61 390.02 411.76 424.21" style="fill:#ebebeb"></polygon><rect x="375.2" y="396.25" width="20.79" height="5.02" style="fill:#e0e0e0"></rect><rect x="372.53" y="407.55" width="26.7" height="10.6" style="fill:#fff"></rect><rect x="602.09" y="42.29" width="96.22" height="139.47" style="fill:#e0e0e0"></rect><rect x="597.27" y="42.29" width="96.22" height="139.47" style="fill:#f5f5f5"></rect><rect x="609.22" y="57.4" width="72.31" height="109.26" style="fill:#fff"></rect><path d="M681.53,166.65s0-.18,0-.53,0-.88,0-1.55c0-1.37,0-3.38,0-6,0-5.24,0-12.87-.07-22.51,0-19.27-.07-46.55-.12-78.67l.24.24-72.3,0h0l.27-.26c0,41.21,0,79.21-.06,109.25l-.21-.21,52.64.11,14.54.06,3.82,0,1.31,0s-.42,0-1.27,0l-3.78,0-14.49.05-52.77.11H609v-.21c0-30,0-68-.06-109.25v-.27h.27l72.3,0h.25v.24c0,32.19-.08,59.52-.11,78.83,0,9.61,0,17.23-.07,22.45,0,2.59,0,4.58,0,5.94,0,.67,0,1.17,0,1.53S681.53,166.65,681.53,166.65Z" style="fill:#e0e0e0"></path><path d="M693.76,42.29A16.4,16.4,0,0,1,692,44.78c-1.11,1.5-2.7,3.53-4.51,5.73S684,54.65,682.77,56a17,17,0,0,1-2.11,2.16,16.72,16.72,0,0,1,1.83-2.4l4.64-5.62c1.75-2.13,3.34-4.06,4.62-5.63A19.25,19.25,0,0,1,693.76,42.29Z" style="fill:#e0e0e0"></path><path d="M681.9,166.3a89.14,89.14,0,0,0,12.62,15.77" style="fill:#fff"></path><path d="M694.52,182.07a13.51,13.51,0,0,1-2.2-2,66.67,66.67,0,0,1-4.76-5.36,71.63,71.63,0,0,1-4.19-5.82,14.69,14.69,0,0,1-1.47-2.59,18.85,18.85,0,0,1,1.78,2.38c1.06,1.49,2.55,3.52,4.29,5.7s3.4,4.08,4.62,5.44A22.37,22.37,0,0,1,694.52,182.07Z" style="fill:#e0e0e0"></path><path d="M597.26,181.65l12.6-15.55" style="fill:#fff"></path><path d="M609.86,166.1a98.28,98.28,0,0,1-6.1,7.94,98.15,98.15,0,0,1-6.5,7.61,92.15,92.15,0,0,1,6.09-7.94A94.66,94.66,0,0,1,609.86,166.1Z" style="fill:#e0e0e0"></path><path d="M597.27,42.29a89.9,89.9,0,0,1,6.12,7.31,85.67,85.67,0,0,1,5.7,7.64A86.7,86.7,0,0,1,603,49.93,87.11,87.11,0,0,1,597.27,42.29Z" style="fill:#e0e0e0"></path><rect x="634.79" y="79.58" width="24.21" height="68.75" style="fill:#e0e0e0"></rect></g><g id="freepik--Floor--inject-14"><path d="M664.93,466.09c0,.14-134.29.26-299.92.26s-299.94-.12-299.94-.26,134.26-.26,299.94-.26S664.93,465.94,664.93,466.09Z"></path></g><g id="freepik--Character--inject-14"><path d="M614.06,103.21c1.51,3.91,2.42,4.86,4.42,9,1.76,3.59.18,8.47-2.75,11.17-1.91,1.76-4.53,2.47-7.05,3-5.62,1.3-11.48,2.26-17.15,1.2a25.22,25.22,0,0,1-14-7.84,25.75,25.75,0,0,1-6.47-14.8" style="fill:#455a64"></path><g style="opacity:0.30000000000000004"><path d="M614.06,103.21c1.51,3.91,2.42,4.86,4.42,9,1.76,3.59.18,8.47-2.75,11.17-1.91,1.76-4.53,2.47-7.05,3-5.62,1.3-11.48,2.26-17.15,1.2a25.22,25.22,0,0,1-14-7.84,25.75,25.75,0,0,1-6.47-14.8"></path></g><path d="M610.1,116.38a82.71,82.71,0,0,0,3.79-13.84,29,29,0,0,0-1-14.18c-.24-.69-2.34-5.28-3.06-5.21-.52,0,.76,4.31.49,4.76-2.54,4.25-3.28,9.38-3,14.32a65.14,65.14,0,0,0,2.7,14.15" style="fill:#263238"></path><path d="M586.43,162.59c7.43-.07,23.7-12.38,23.79-19.8l.58-44.67c.53-12-6-22.31-18-22.52l-1.11.05a21.45,21.45,0,0,0-20.56,20.6c-.41,10.4-.73,21.9-.43,27.46.62,11.5,11.93,12.78,11.93,12.78s0,4.56,0,7.95c0,7.59-2,18.21,5.55,18.15Z" style="fill:#ffbe9d"></path><path d="M582.62,136.49a28.2,28.2,0,0,0,15.08-5s-3.55,8.8-15.08,8.24Z" style="fill:#eb996e"></path><path d="M574.31,105.64a1.66,1.66,0,0,0,1.66,1.6,1.58,1.58,0,0,0,1.63-1.56,1.65,1.65,0,0,0-1.65-1.59A1.58,1.58,0,0,0,574.31,105.64Z" style="fill:#263238"></path><path d="M573.77,100.93c.22.21,1.42-.77,3.19-.84s3.11.77,3.29.54-.13-.48-.72-.86a4.49,4.49,0,0,0-2.64-.7,4.33,4.33,0,0,0-2.53.93C573.84,100.44,573.67,100.84,573.77,100.93Z" style="fill:#263238"></path><path d="M589.46,106.18a1.64,1.64,0,0,0,1.65,1.6,1.59,1.59,0,0,0,1.64-1.55,1.66,1.66,0,0,0-1.66-1.6A1.58,1.58,0,0,0,589.46,106.18Z" style="fill:#263238"></path><path d="M591.13,100.43c.21.15,1.42-.56,3.19-.61s3.1.56,3.29.39-.14-.35-.72-.63a5.8,5.8,0,0,0-2.64-.51,5.29,5.29,0,0,0-2.53.68C591.2,100.07,591,100.36,591.13,100.43Z" style="fill:#263238"></path><path d="M585.35,114.79a11.1,11.1,0,0,0-2.9-.4c-.45,0-.88-.1-1-.41a2.28,2.28,0,0,1,.25-1.35c.38-1.11.77-2.28,1.19-3.5,1.65-5,2.83-9,2.63-9.12s-1.71,3.92-3.36,8.89c-.4,1.23-.77,2.4-1.14,3.51a2.75,2.75,0,0,0-.16,1.79,1.17,1.17,0,0,0,.77.63,3.22,3.22,0,0,0,.78.07A11.94,11.94,0,0,0,585.35,114.79Z" style="fill:#263238"></path><path d="M590.89,91.55c.2.47,2,.17,4,.33s3.79.66,4.05.22c.11-.21-.2-.65-.89-1.09a6.74,6.74,0,0,0-3-.92,6.63,6.63,0,0,0-3.13.5C591.18,90.93,590.81,91.32,590.89,91.55Z" style="fill:#263238"></path><path d="M574.26,92.08c.33.39,1.53-.08,3-.16s2.71.16,3-.27c.12-.21-.09-.61-.65-1a4.38,4.38,0,0,0-4.82.35C574.27,91.47,574.12,91.89,574.26,92.08Z" style="fill:#263238"></path><path d="M610.21,106.68c.19-.09,7.81-2.67,7.89,5.21s-7.86,6.33-7.87,6.11S610.21,106.68,610.21,106.68Z" style="fill:#ffbe9d"></path><path d="M612.61,115s.13.09.37.2a1.36,1.36,0,0,0,1,0c.83-.31,1.52-1.64,1.55-3.06a4.78,4.78,0,0,0-.4-2,1.6,1.6,0,0,0-1-1,.69.69,0,0,0-.8.38c-.11.23-.06.38-.1.4s-.17-.13-.11-.46a.86.86,0,0,1,.31-.5,1,1,0,0,1,.75-.2,1.92,1.92,0,0,1,1.45,1.2,4.72,4.72,0,0,1,.5,2.2c0,1.58-.84,3.08-2,3.42a1.48,1.48,0,0,1-1.26-.2C612.62,115.18,612.58,115,612.61,115Z" style="fill:#eb996e"></path><path d="M576.21,83.19c-1.28-.7,2.55-4.83,5.68-6.26,4.74-2.15,12-3.48,16.34-2.24,5.26,1.49,9.63,4.1,12.27,8.89A30.91,30.91,0,0,1,614,99.4a9.36,9.36,0,0,1-1.11,4.82c-1.1,1.74-3.21,2.84-3.11,5.25a3.32,3.32,0,0,1-.82,2.4c-1.44,1.54-3.21.1-4-1.35-1.73-3.08-1.93-6.77-2.08-10.31a22.92,22.92,0,0,1,.49-7.49c.39-1.32,1-2.56,1.32-3.89a4.73,4.73,0,0,0-.56-3.93,5.41,5.41,0,0,0-.64-.65,8.22,8.22,0,0,0-8.16-1.55c-4.44,1.57-12,3.92-14,2.42-2.85-2.17-3.54-3.58-3.54-3.58Z" style="fill:#263238"></path><path d="M571.08,95.17a37.17,37.17,0,0,1,2.63-6.06c1.31-2.11,5.57-3.89,6.49-4.22s11.53-.25,19.06,1.3,14.48,17.22,14.48,17.22l.85-4.35s-.76-8.39-.76-10.28-3.2-8.15-4-9.12-8.93-5.52-9.81-6-8-2.35-11.4-1.68-12.09,4.74-14,6.29a10.76,10.76,0,0,0-3.5,3.9C570,84.07,571.08,95.17,571.08,95.17Zm8.3-13.27.11-1.5c.06-1,4.25-6.35,10.32-5.43s7.89,8.18,7.89,8.18Z" style="fill:#455a64"></path><path d="M579.55,84.9s-.19-.12-.37-.38a1.33,1.33,0,0,1-.18-1.16,2.93,2.93,0,0,1,.61-1.1c.2-.27.33-.44.31-.47s-.21.1-.46.34a2.52,2.52,0,0,0-.73,1.16,1.41,1.41,0,0,0,.3,1.36C579.29,84.92,579.55,84.93,579.55,84.9Z" style="fill:#263238"></path><path d="M581.92,83s.09.14.06.35a.4.4,0,0,1-.15.29.32.32,0,0,1-.36,0,.33.33,0,0,1-.16-.32.43.43,0,0,1,.2-.26c.18-.11.33,0,.35-.08s-.13-.19-.43-.1a.58.58,0,0,0-.37.38.56.56,0,0,0,.26.61.54.54,0,0,0,.66,0,.57.57,0,0,0,.2-.48C582.15,83,581.93,82.94,581.92,83Z" style="fill:#263238"></path><path d="M585.39,83.19s.1.14.07.36a.37.37,0,0,1-.16.28.3.3,0,0,1-.35,0,.32.32,0,0,1-.17-.32.43.43,0,0,1,.2-.26c.19-.11.34,0,.36-.08s-.14-.19-.44-.1a.59.59,0,0,0-.36.39.58.58,0,0,0,.91.59.52.52,0,0,0,.2-.48C585.62,83.23,585.4,83.15,585.39,83.19Z" style="fill:#263238"></path><path d="M588.87,83.4s.09.14.06.36a.39.39,0,0,1-.15.28.32.32,0,0,1-.36,0,.33.33,0,0,1-.16-.32.43.43,0,0,1,.2-.26c.18-.11.33,0,.35-.08s-.13-.19-.43-.1a.58.58,0,0,0-.37.39.55.55,0,0,0,.26.6.54.54,0,0,0,.66,0,.57.57,0,0,0,.2-.48C589.1,83.44,588.88,83.36,588.87,83.4Z" style="fill:#263238"></path><path d="M592.35,83.61s.09.14.06.36a.37.37,0,0,1-.16.28.3.3,0,0,1-.35,0,.32.32,0,0,1-.17-.32.43.43,0,0,1,.2-.26c.19-.11.34,0,.36-.08s-.14-.19-.44-.1a.59.59,0,0,0-.36.39.54.54,0,0,0,.25.6.55.55,0,0,0,.66,0,.58.58,0,0,0,.21-.49C592.57,83.65,592.35,83.57,592.35,83.61Z" style="fill:#263238"></path><path d="M595.82,83.82s.09.14.06.36a.39.39,0,0,1-.15.28.32.32,0,0,1-.36,0,.33.33,0,0,1-.16-.32.43.43,0,0,1,.2-.26c.18-.11.33,0,.35-.08s-.13-.19-.43-.09a.54.54,0,0,0-.37.38.6.6,0,0,0,.92.6.6.6,0,0,0,.2-.49C596.05,83.86,595.83,83.78,595.82,83.82Z" style="fill:#263238"></path><path d="M589.57,75.34c-.64,0-.94-.93-1.59-.93a1.88,1.88,0,0,0-1.58.94,1.51,1.51,0,0,0-2.87.22,2.23,2.23,0,0,0-1.52-.12c-.47.2-.71,1-.29,1.24a2,2,0,0,0-2.08-.11,1.19,1.19,0,0,0-.19,1.85,1.69,1.69,0,0,0-2,2.66.67.67,0,0,0,.45.27c.32,0,.56-.33.62-.65a4.37,4.37,0,0,1,.15-1c.14-.3.55-.51.79-.29-.32.55-.63,1.28-.23,1.76.28.33.57.73,1,.74,2.48.05,15,1.13,17.43,1.19C597.7,83.15,595.53,75.6,589.57,75.34Z" style="fill:#263238"></path><path d="M613.06,102.05c.08.66.78,1.07,1.43,1.21a7.4,7.4,0,0,1,1.94.44c.59.31,1,1.15.55,1.65a1.45,1.45,0,0,1-1.55.18,7.61,7.61,0,0,1-5-5.17,2.14,2.14,0,0,1-2.74-.72,6.28,6.28,0,0,1-.92-3,5.18,5.18,0,0,1-5.22-5c0-1.5.71-3.05.17-4.45a29.91,29.91,0,0,1,5.35,5.07C608.88,94.71,613.06,102.05,613.06,102.05Z" style="fill:#263238"></path><path d="M616.13,105.34a.6.6,0,0,1,.6.64.9.9,0,0,1-.6.72,1.92,1.92,0,0,1-1,.08,5.9,5.9,0,0,1-2.76-1.07,1.77,1.77,0,0,1-1.91.8,2.55,2.55,0,0,1-1.65-1.38,4.69,4.69,0,0,1-.42-2.16,2,2,0,0,1-2.29-.08,3.16,3.16,0,0,1-1.17-2.08,7.36,7.36,0,0,1,.1-2.43,1.37,1.37,0,0,1-2-.56,2.58,2.58,0,0,1,.33-2.35,2,2,0,0,1-1.09-2.76,1.12,1.12,0,0,1-1.55-.44,2.37,2.37,0,0,1-.11-1.76,13.72,13.72,0,0,0,.44-1.76,3,3,0,0,0-.74-2.28,7.35,7.35,0,0,1,3.83,2.19,22,22,0,0,1,2.69,3.59q3.32,5.13,6.65,10.26" style="fill:#263238"></path><path d="M600.66,86.58A2,2,0,0,1,601,87a2.19,2.19,0,0,1,.1,1.53,7.76,7.76,0,0,1-.38,1.07,5,5,0,0,0-.38,1.31,1.83,1.83,0,0,0,.42,1.52,1.49,1.49,0,0,0,.81.38,1,1,0,0,0,.89-.33l-.21-.11A3.19,3.19,0,0,0,605,96.47l-.13-.18a4,4,0,0,0,.15,3,4.07,4.07,0,0,0,1.92,2l-.07-.11a9.75,9.75,0,0,0,.39,1.89,3.58,3.58,0,0,0,1,1.57,2.49,2.49,0,0,0,1.66.56,1.66,1.66,0,0,0,1.41-.78h-.19a3.61,3.61,0,0,0,2.05,1.79,3.46,3.46,0,0,0,2.08.06,3.35,3.35,0,0,0,1.18-.6,2.38,2.38,0,0,0,.26-.23l.08-.09s-.13.1-.38.27a3.57,3.57,0,0,1-1.18.52,3.25,3.25,0,0,1-2-.1,3.41,3.41,0,0,1-1.91-1.72l-.09-.18-.11.18a1.43,1.43,0,0,1-1.23.65,2.28,2.28,0,0,1-1.48-.51,3.31,3.31,0,0,1-.91-1.47,9.52,9.52,0,0,1-.37-1.84v-.07l-.07,0a3.92,3.92,0,0,1-1.93-4.7l.07-.17H605a2.81,2.81,0,0,1-2.21-1.36,2.74,2.74,0,0,1-.34-2.37l.22-.63-.43.51a1,1,0,0,1-1.36-.06,1.63,1.63,0,0,1-.38-1.34,21.46,21.46,0,0,1,.71-2.37,2.17,2.17,0,0,0-.18-1.59A1,1,0,0,0,600.66,86.58Z" style="fill:#455a64"></path><path d="M579.62,79.44a.67.67,0,0,1,0-.45.48.48,0,0,1,.41-.29.51.51,0,0,1,.52.37l.16,0a1.72,1.72,0,0,1,.9-1.7,1.66,1.66,0,0,1,2.18.76l.18-.18c-.16-.07-.2-.35-.1-.54a.73.73,0,0,1,.59-.35,3.4,3.4,0,0,1,1.66.32,3.86,3.86,0,0,1,1.94,1.92l.19-.17a.54.54,0,0,1-.25-.54.7.7,0,0,1,.3-.54,1.84,1.84,0,0,1,1.26-.27,4,4,0,0,1,2.08.8A4.67,4.67,0,0,1,593,80.12s0-.05,0-.14a3.31,3.31,0,0,0-.17-.38,3.78,3.78,0,0,0-1-1.18,4,4,0,0,0-2.17-.89,2.06,2.06,0,0,0-1.42.29,1,1,0,0,0-.41.72.8.8,0,0,0,.39.8l.33.17-.15-.35a4.19,4.19,0,0,0-2.08-2.07,3.75,3.75,0,0,0-1.8-.33,1,1,0,0,0-.8.5.8.8,0,0,0-.07.48.57.57,0,0,0,.29.42l.35.18-.17-.36a1.84,1.84,0,0,0-3.48,1.08l.16,0a.68.68,0,0,0-.69-.46.58.58,0,0,0-.47.38C579.46,79.29,579.62,79.46,579.62,79.44Z" style="fill:#455a64"></path><path d="M571.05,94.73a3,3,0,0,1-.67,2,12.3,12.3,0,0,0-1.54,1.93,1.58,1.58,0,0,0,.52,2.14,3.39,3.39,0,0,0-.42,3c.36,1,.79,2.7,1.82,3,.16-3.47.53-9.22.55-12.7" style="fill:#263238"></path><path d="M590.75,115.76c-.27,0-.2,1.82-1.71,3.19s-3.47,1.25-3.47,1.51.45.33,1.28.32a4.63,4.63,0,0,0,2.9-1.15,4,4,0,0,0,1.31-2.68C591.1,116.19,590.87,115.74,590.75,115.76Z" style="fill:#263238"></path><polygon points="518.21 241.57 573.45 242.81 574.44 224.38 507.9 229.81 518.21 241.57" style="fill:#ffbe9d"></polygon><path d="M476.4,183.36c0,.07-.6,1.36-.6,1.36,4.82,9.2,22.32,42.49,22.32,42.49l21.51,10.43,45.39-2v-2.77l-20.44-10.52-33,.81L493.79,188a3.24,3.24,0,0,0-2.28-1.72Z" style="fill:#455a64"></path><path d="M519.63,237.64a12.72,12.72,0,0,1-1.37-2.09c-.78-1.32-1.83-3.17-3-5.22s-2.12-3.92-2.82-5.28a10.81,10.81,0,0,1-1-2.27,11.47,11.47,0,0,1,1.36,2.08c.79,1.33,1.84,3.17,3,5.23s2.13,3.92,2.83,5.29A11.41,11.41,0,0,1,519.63,237.64Z" style="fill:#263238"></path><polygon points="524.42 233.1 546.42 232.38 529.82 223.72 512.06 224.12 524.42 233.1" style="fill:#263238"></polygon><path d="M565,232.75a1.58,1.58,0,0,1-.48.06l-1.36.06-5,.16c-4.23.14-10.08.4-16.53.69s-12.31.48-16.55.51c-2.11,0-3.83,0-5,0l-1.37-.05a2.48,2.48,0,0,1-.47,0,1.47,1.47,0,0,1,.47-.06l1.37-.07,5-.16c4.23-.13,10.07-.39,16.53-.68s12.31-.48,16.54-.52c2.12,0,3.83,0,5,0l1.36,0A1.44,1.44,0,0,1,565,232.75Z" style="fill:#263238"></path><path d="M516.49,236.11a3,3,0,0,1-.38-.61l-1-1.81c-.86-1.64-2-3.92-3.5-6.71-2.94-5.73-6.95-13.57-11.37-22.22L491.8,188l.16.12-11.75-2.39-3.27-.7a6.08,6.08,0,0,1-1.14-.3,9.89,9.89,0,0,1,1.17.16l3.29.58,11.79,2.2.1,0,.06.1c2.46,4.83,5.39,10.58,8.54,16.74L512,226.81c1.39,2.82,2.53,5.12,3.34,6.78.37.77.66,1.39.89,1.86A5.07,5.07,0,0,1,516.49,236.11Z" style="fill:#263238"></path><path d="M503.39,223.83s.91-.92,2.74,1.42,4.87,9.14,4.87,9.14l3.35,1.52s-2.94-3.45-2.94-4.87,2.23-1.42,3.45.61a59.74,59.74,0,0,0,4.77,6s-1.11,4.11-1.42,3.93-5.89-.48-5.89-.48l-1.52-.71s-3.76,0-4-1-6.4-5.28-6.4-6.2v-5.89s-2.84-6.9-2.23-7.62S501.35,217.43,503.39,223.83Z" style="fill:#ffbe9d"></path><path d="M503.79,223.72s-.11,0-.27.08a.57.57,0,0,0-.33.58v0c.24.75.52,1.91.83,3.32s.64,3.1,1.16,4.82A8.82,8.82,0,0,0,507,235.6l1.85,2.4a13.83,13.83,0,0,1,1.6,2.29,14.34,14.34,0,0,1-1.89-2l-1.95-2.33a13.37,13.37,0,0,1-1.09-1.45,7.36,7.36,0,0,1-.82-1.8,42.66,42.66,0,0,1-1.1-4.9c-.24-1.27-.44-2.39-.62-3.35v0h0a.72.72,0,0,1,.54-.7C503.69,223.65,503.79,223.71,503.79,223.72Z" style="fill:#eb996e"></path><path d="M502.88,235.66a35.14,35.14,0,0,1-2.44-8.38,17.83,17.83,0,0,1,1.48,4.12A18.22,18.22,0,0,1,502.88,235.66Z" style="fill:#eb996e"></path><path d="M513.29,230.23s-.15.05-.41.08a1.31,1.31,0,0,0-.89.36c-.25.28-.15.79.12,1.33s.57,1.2.87,1.84l.89,1.8c.3.53.62,1,.88,1.39.52.79.75,1.36.68,1.39s-.39-.44-1-1.17a15.35,15.35,0,0,1-1-1.35c-.3-.56-.63-1.18-1-1.84s-.56-1.25-.83-1.86a2.73,2.73,0,0,1-.25-.93,1.09,1.09,0,0,1,.3-.86,1.44,1.44,0,0,1,1.17-.31C513.16,230.14,513.3,230.19,513.29,230.23Z" style="fill:#eb996e"></path><path d="M597,427.15,603,448s-19.22,13.15-18.48,17.12l40.94-10.24L617.38,422Z" style="fill:#455a64"></path><path d="M615.2,443.1a1.71,1.71,0,0,1,1.63,1.62,1.64,1.64,0,0,1-1.59,1.63,1.82,1.82,0,0,1-1.72-1.72,1.73,1.73,0,0,1,1.85-1.52" style="fill:#e0e0e0"></path><g style="opacity:0.6000000000000001"><path d="M625.45,454.92l-1-3.29-38.89,11.05s-1.62,1.25-1.1,2.48Z" style="fill:#fff"></path></g><path d="M602.27,448c.06.2,1.08,0,2.22.43s1.88,1.11,2,1-.43-1.21-1.82-1.67S602.18,447.83,602.27,448Z" style="fill:#263238"></path><path d="M598.42,450.85c0,.2,1,.33,1.85,1s1.31,1.52,1.5,1.47,0-1.23-1.08-2S598.38,450.66,598.42,450.85Z" style="fill:#263238"></path><path d="M597.27,456.6c.19,0,.22-1.07-.57-2s-1.83-1.17-1.87-1,.68.63,1.32,1.43S597.07,456.63,597.27,456.6Z" style="fill:#263238"></path><path d="M601.43,443.08c.12.17,1-.34,2.12-.54s2.12-.07,2.18-.27-1-.7-2.31-.44S601.29,443,601.43,443.08Z" style="fill:#263238"></path><path d="M611.31,432.07l1,21.72s-21.77,8.27-22,12.3l42.2-.33-.09-33.91Z" style="fill:#455a64"></path><path d="M625.29,451.86a1.71,1.71,0,0,1,1.2,2,1.63,1.63,0,0,1-1.92,1.21A1.8,1.8,0,0,1,623.3,453a1.7,1.7,0,0,1,2.14-1" style="fill:#e0e0e0"></path><g style="opacity:0.6000000000000001"><path d="M632.47,465.76l-.15-3.42-40.4,1.59s-1.87.84-1.65,2.16Z" style="fill:#fff"></path></g><path d="M611.57,453.58c0,.21,1,.3,2.06.95s1.56,1.52,1.75,1.43-.12-1.27-1.37-2S611.52,453.4,611.57,453.58Z" style="fill:#263238"></path><path d="M607.16,455.45c0,.2.85.54,1.55,1.41s.92,1.78,1.13,1.77.32-1.17-.58-2.23S607.16,455.25,607.16,455.45Z" style="fill:#263238"></path><path d="M604.69,460.77c.18,0,.46-1-.08-2.12s-1.5-1.56-1.59-1.39.52.77,1,1.7S604.48,460.75,604.69,460.77Z" style="fill:#263238"></path><path d="M611.9,448.61c.09.19,1-.11,2.2,0s2.07.43,2.18.26-.77-.91-2.15-1S611.8,448.45,611.9,448.61Z" style="fill:#263238"></path><path d="M637.41,273.08v17.18l-4.62,66.93s2.88,32.46,4.64,50.79c1.53,15.92-1,43.64-1,43.64H609.6L600,359.17l-6-57.65-10.38-26.24Z" style="fill:#263238"></path><polygon points="565.28 276.14 571.83 369.45 599 439.36 600.25 443.57 616.29 439.69 604.36 274.25 565.28 276.14" style="fill:#263238"></polygon><path d="M594.1,302.21a2.29,2.29,0,0,0,0,.39c0,.28,0,.66,0,1.14,0,1,.08,2.5.14,4.38.11,3.8.38,9.29.76,16.08.81,13.58,2.33,32.31,4.68,52.93s4.88,39.24,6.76,52.71c.95,6.71,1.72,12.15,2.26,15.94.27,1.86.48,3.31.63,4.33.08.48.14.85.18,1.13a3.1,3.1,0,0,0,.08.38,1.92,1.92,0,0,0,0-.39c0-.28-.07-.65-.13-1.13-.12-1-.31-2.48-.54-4.35-.5-3.79-1.22-9.24-2.1-16-1.78-13.48-4.29-32.1-6.61-52.72s-3.92-39.32-4.82-52.89c-.43-6.78-.76-12.27-.93-16.07-.1-1.88-.17-3.35-.23-4.37,0-.49-.05-.86-.07-1.14A2.33,2.33,0,0,0,594.1,302.21Z" style="fill:#455a64"></path><path d="M592.4,278.85a1.38,1.38,0,1,0,1.38-1.38A1.38,1.38,0,0,0,592.4,278.85Z" style="fill:#455a64"></path><path d="M568.79,291.9a9.35,9.35,0,0,0,1.89-1.78,21.22,21.22,0,0,0,5.07-11.32,8.38,8.38,0,0,0,.06-2.6c-.08,0-.14,1-.41,2.54a24.83,24.83,0,0,1-5,11.15C569.43,291.14,568.73,291.84,568.79,291.9Z" style="fill:#455a64"></path><path d="M641.45,282s-3.08-23.51-3.41-26.2-5.54-36.76-5.54-36.76l4.87-64.8c-3.7-4-23-16.51-23-16.51l-3.79-8.71-23.38,18.51L584,157.45l-1.42-13.34-4.21,11.12a16.11,16.11,0,0,0-4.53,6.74l-3.64,22.6a71,71,0,0,0-.89,9.53l-.77,28.5-5.64,63.65,19,5.93a41.35,41.35,0,0,0,21.15.93c10.09-2.19,24.06-5.17,26.58-5.38,4-.33,7.8,4.17,7.8,4.17C638.19,291.9,641.86,286.5,641.45,282Z" style="fill:#FF725E"></path><path d="M613.6,137.14a8.36,8.36,0,0,1-.89,1.21c-.61.76-1.51,1.83-2.68,3.12-2.31,2.59-5.69,6-9.35,9.78-1.8,1.89-3.49,3.71-5,5.42l-.17.21-.19-.19c-2.47-2.46-4.25-4.81-5.62-6.37l-1.59-1.81a3.88,3.88,0,0,1-.56-.67,3.14,3.14,0,0,1,.67.55c.42.39,1,1,1.71,1.73,1.44,1.51,3.28,3.82,5.74,6.21l-.37,0c1.47-1.74,3.15-3.58,5-5.47,3.66-3.81,7.08-7.15,9.45-9.67,1.2-1.25,2.14-2.28,2.8-3A7.43,7.43,0,0,1,613.6,137.14Z" style="fill:#263238"></path><path d="M575.87,255a.93.93,0,0,1,0-.25c0-.2,0-.44,0-.74,0-.7.09-1.65.16-2.85.16-2.52.4-6.08.68-10.46.61-8.84,1.51-21,2.58-34.51s2.12-25.66,3-34.47c.43-4.41.83-8,1.13-10.43.16-1.19.29-2.14.39-2.83l.11-.73a.83.83,0,0,1,.06-.25.86.86,0,0,1,0,.26c0,.2,0,.44-.07.74-.07.69-.16,1.64-.28,2.83-.23,2.51-.56,6.07-1,10.44-.78,8.82-1.78,21-2.85,34.49s-2,25.62-2.73,34.48c-.36,4.38-.65,7.94-.85,10.46-.11,1.19-.2,2.14-.26,2.84,0,.29-.06.54-.08.73A.7.7,0,0,1,575.87,255Z" style="fill:#263238"></path><g style="opacity:0.30000000000000004"><path d="M568.19,228.68c2.53,1.26,5.42,1.7,7.91,3a28.73,28.73,0,0,1,4.8,3.66c10.6,9.12,23.92,15.67,37.9,15.91,4.8.09,9.93-.71,13.5-3.92,2-1.76,3.36-4.5,2.6-7-.92-3.08-4.42-4.45-7.48-5.41L598.78,226a131.3,131.3,0,0,0-18.33-4.76,65.67,65.67,0,0,0-12.68-.75"></path></g><path d="M600,268.62c-.08.13-7-3.6-15.44-8.33s-15.24-8.67-15.17-8.8,7,3.6,15.44,8.33S600,268.49,600,268.62Z" style="fill:#263238"></path><path d="M578.06,291a6.66,6.66,0,0,1,0-1.35c.06-1,.12-2.2.2-3.66.14-3.1.16-7.37.1-12.1s-.07-9-.06-12.12c0-1.47,0-2.7,0-3.67a6.05,6.05,0,0,1,.09-1.35,6.14,6.14,0,0,1,.12,1.35c0,1,.08,2.2.13,3.67.09,3.1.17,7.38.22,12.11s0,9-.26,12.13c-.11,1.55-.25,2.8-.37,3.66A7.34,7.34,0,0,1,578.06,291Z" style="fill:#263238"></path><g style="opacity:0.30000000000000004"><path d="M610.08,216.52c2.41-9.26,2.17-19.91,1.92-29.42,1.71,6.54,3.61,16.53,5,23.4l-2.71,6.58Z"></path></g><g style="opacity:0.30000000000000004"><path d="M584,157.45c.08-.18-.88.85,0,0a30.1,30.1,0,0,0,3.46-4.88,75.48,75.48,0,0,1,7.27,7.69c3.34-3.49,6.69-7,9.7-10.74A80.82,80.82,0,0,0,611,140l-15.49,16.53-8.34-8.94Z"></path></g><path d="M571.45,211.68l.78,13.95s20.69,9.67,34.23,13.15,29.48,2.95,29.48,2.95l-5.69-22.67Z" style="fill:#ffbe9d"></path><path d="M531.43,214.53a3,3,0,0,1,1.51-2.85c1.8-1.11,5.57-3.57,5.57-3.57l11.42-1,21.52,4.61.78,13.95s-11,.6-13.52.51-9.63-2.36-9.63-2.36-11.89,1.51-12.46.85-1.32-1.42-.56-1.89,9.91-2.83,9.91-2.83l-6.14-.47s-9,1.89-9.62,1.6-1.51-1.41-1-2.26l.57-.85a1.9,1.9,0,0,1,.94-2.36l.85-.28Z" style="fill:#ffbe9d"></path><path d="M547.71,214.36a7.37,7.37,0,0,1-2.75.46c-1.71.13-4.12-.14-6.57.57a35,35,0,0,0-3.36,1.42,27.17,27.17,0,0,1-2.85,1,9.51,9.51,0,0,1-2.73.55c0-.08,1-.34,2.61-.92.8-.28,1.75-.65,2.77-1.12a28.84,28.84,0,0,1,3.4-1.48,12.85,12.85,0,0,1,3.72-.48c1.14,0,2.15,0,3,0C546.66,214.46,547.7,214.28,547.71,214.36Z" style="fill:#eb996e"></path><path d="M546.72,211.15a5.81,5.81,0,0,1-2.46.32,13,13,0,0,0-5.75.75c-2.13.89-4.06,1.75-5.47,2.31a11,11,0,0,1-2.34.83,11,11,0,0,1,2.18-1.17c1.38-.66,3.27-1.57,5.43-2.47a9.05,9.05,0,0,1,3.27-.73c1,0,1.93.06,2.69.1C545.78,211.19,546.71,211.07,546.72,211.15Z" style="fill:#eb996e"></path><path d="M637.37,154.28s5.74,9.16,6.64,13.62,3.12,51.52,2.23,52.41a25.63,25.63,0,0,1-2.46,2s5.13,1.11,3.57,3.79a46.44,46.44,0,0,1-3.12,4.68s-.77,8.7-1.72,8.92-6.38,3.29-6.38,3.29-15.62-8.42-17-12.88-4.76-13.38-4.76-13.38L617,210.5l-8-37.92s-4.31-12.13,3.45-17.09S634.45,149.28,637.37,154.28Z" style="fill:#FF725E"></path><path d="M610.51,179.77a2.53,2.53,0,0,1,.16.57l.4,1.67c.33,1.5.8,3.62,1.4,6.29,1.18,5.45,2.84,13.11,4.79,22.15l0,.07,0,.07c-.84,2-1.74,4.09-2.66,6.25v-.19c1.53,4.25,3.15,8.89,4.88,13.59l.28.6.41.55a8.07,8.07,0,0,0,.91,1,27,27,0,0,0,2.05,1.85c1.42,1.17,2.9,2.21,4.38,3.2,3,2,5.92,3.73,8.76,5.31H636c1.36-.76,2.69-1.49,4-2.16.65-.34,1.29-.67,2-1l.26-.1.23-.08a.76.76,0,0,0,.19-.3,7.53,7.53,0,0,0,.31-.95,62.54,62.54,0,0,0,1.09-7.46v-.06l0,0c.79-1,1.5-2.05,2.12-3,.32-.48.61-.95.89-1.41a6,6,0,0,0,.34-.67,1.75,1.75,0,0,0,0-.68c-.18-.9-1.05-1.41-1.72-1.77a10.36,10.36,0,0,0-2-.72l-.19,0,.16-.12c.87-.61,1.49-1.1,1.9-1.43a7.2,7.2,0,0,1,.61-.5.67.67,0,0,1-.13.15l-.42.42a23.58,23.58,0,0,1-1.86,1.51l0-.16a10.08,10.08,0,0,1,2.05.69,5.78,5.78,0,0,1,1.11.69,2.22,2.22,0,0,1,.79,1.24,2.07,2.07,0,0,1,0,.82,4.61,4.61,0,0,1-.36.74c-.27.46-.56.94-.87,1.43-.62,1-1.31,2-2.1,3.07l0-.1a64.17,64.17,0,0,1-1,7.54,7.53,7.53,0,0,1-.33,1,1,1,0,0,1-.41.53c-.16.07-.17.06-.27.1l-.23.09c-.64.28-1.28.61-1.92.95q-2,1-4,2.18l-.12.06-.11-.06c-2.87-1.57-5.83-3.31-8.82-5.3a54.64,54.64,0,0,1-4.43-3.22,13.31,13.31,0,0,1-1.07-.92,11.85,11.85,0,0,1-1-1,9.05,9.05,0,0,1-.95-1.09c-.14-.19-.3-.38-.44-.59l-.33-.68c-1.74-4.76-3.33-9.35-4.85-13.61l0-.1,0-.09c.93-2.16,1.84-4.25,2.69-6.24v.15c-1.88-9.05-3.47-16.73-4.6-22.19-.54-2.68-1-4.81-1.27-6.32-.13-.71-.24-1.26-.32-1.68A4.67,4.67,0,0,1,610.51,179.77Z" style="fill:#263238"></path><path d="M644,222.13s-.26.16-.79.33a7.44,7.44,0,0,1-2.32.35,4,4,0,0,1-1.62-.4,13.52,13.52,0,0,1-1.61-.93c-1.08-.73-2.19-1.6-3.42-2.44-2.43-1.69-4.72-3.11-6.36-4.16a18.59,18.59,0,0,1-2.61-1.79,18.89,18.89,0,0,1,2.81,1.46c1.69,1,4,2.35,6.47,4,1.24.84,2.35,1.74,3.39,2.47a6.32,6.32,0,0,0,3,1.36,9.28,9.28,0,0,0,2.25-.17A3.92,3.92,0,0,1,644,222.13Z" style="fill:#263238"></path><path d="M644.23,230.79a2.52,2.52,0,0,1-1,.23,5.36,5.36,0,0,1-2.75-.49,45.93,45.93,0,0,1-7.73-4.88,75.08,75.08,0,0,1-6.78-6.09c-.83-.83-1.48-1.51-1.92-2s-.68-.75-.65-.78a27.64,27.64,0,0,1,2.83,2.49c1.71,1.58,4.06,3.77,6.85,5.95a56.35,56.35,0,0,0,7.56,5,5.51,5.51,0,0,0,2.58.63A9.66,9.66,0,0,1,644.23,230.79Z" style="fill:#263238"></path><g style="opacity:0.30000000000000004"><path d="M625.53,213.34a18.38,18.38,0,0,0,3.77,4l6.65,5.79c1.27,1.11,2.77,2.3,4.44,2.06a5.45,5.45,0,0,0,2.32-1.09c.65-.44,1.37-1.11,1.18-1.87a6.53,6.53,0,0,1-5.66-.6,18.65,18.65,0,0,1-2-1.65,50.7,50.7,0,0,0-10.64-6.52"></path></g><path d="M572.23,225.63a6.29,6.29,0,0,1-1.32.16l-3.58.22-5.33.26-3.14.13a8.38,8.38,0,0,1-1.7-.29l-1.67-.39c-2.31-.58-4.5-1.16-6.47-1.7h.09c-3,.27-5.46.48-7.24.61l-2.06.13a2.62,2.62,0,0,1-.75,0,3.16,3.16,0,0,1,.73-.15l2.06-.27c1.76-.22,4.26-.49,7.21-.81h.09l6.47,1.65,1.66.4a8.11,8.11,0,0,0,1.58.28l3.14-.1,5.32-.14,3.59,0A7.4,7.4,0,0,1,572.23,225.63Z" style="fill:#eb996e"></path><path d="M610.51,162.59a3.62,3.62,0,0,1,.53-1,18.75,18.75,0,0,1,1.92-2.43,36.5,36.5,0,0,1,3.35-3.13,16.15,16.15,0,0,1,4.75-3.07,13.53,13.53,0,0,1,5.62-.57,39.15,39.15,0,0,1,4.53.69c1.28.24,2.32.44,3,.59a5.47,5.47,0,0,1,1.09.29,4.19,4.19,0,0,1-1.13-.08c-.72-.09-1.76-.23-3-.43s-2.81-.47-4.51-.56a13.43,13.43,0,0,0-5.41.58,16.32,16.32,0,0,0-4.61,2.94,43.06,43.06,0,0,0-3.39,3C611.41,161.24,610.59,162.64,610.51,162.59Z" style="fill:#263238"></path></g></svg>