<svg xmlns="http://www.w3.org/2000/svg" viewBox="0 0 750 500"><g id="freepik--background-complete--inject-14"><path d="M637.24,89.06a22.64,22.64,0,0,1,5.45-2.37l1.12-5.39,9.11-.16,1.31,5.35a22.31,22.31,0,0,1,5.53,2.17l4.6-3L670.91,92l-2.85,4.71a22.3,22.3,0,0,1,2.37,5.45l5.39,1.12.16,9.11-5.35,1.31a22.8,22.8,0,0,1-2.17,5.52l3,4.61-6.32,6.55-4.71-2.85a22.43,22.43,0,0,1-5.45,2.36l-1.12,5.39-9.11.16-1.31-5.35a22.09,22.09,0,0,1-5.52-2.17l-4.61,3-6.55-6.33,2.85-4.71a22,22,0,0,1-2.36-5.44l-5.39-1.12-.16-9.11,5.34-1.31a22.34,22.34,0,0,1,2.18-5.53l-3-4.6,6.33-6.55,4.7,2.85Zm4.86,12.13a9.77,9.77,0,1,0,13.82-.24A9.78,9.78,0,0,0,642.1,101.19Z" style="fill:#ebebeb"></path><path d="M339.35,110.72a18,18,0,0,1,4.39-1.91l.9-4.34,7.35-.13,1.05,4.31a18.06,18.06,0,0,1,4.46,1.75l3.71-2.43,5.28,5.1-2.3,3.8a17.61,17.61,0,0,1,1.91,4.39l4.35.9.13,7.35-4.31,1.05a18.09,18.09,0,0,1-1.76,4.46l2.44,3.71L361.84,144l-3.79-2.3a17.94,17.94,0,0,1-4.39,1.91l-.91,4.35-7.34.13-1.06-4.31A17.87,17.87,0,0,1,339.9,142l-3.72,2.44-5.28-5.11,2.3-3.79a18.33,18.33,0,0,1-1.91-4.39l-4.34-.91-.13-7.34,4.31-1.06a17.84,17.84,0,0,1,1.75-4.45l-2.43-3.72,5.1-5.28,3.8,2.3Zm3.91,9.78a7.88,7.88,0,1,0,11.14-.19A7.89,7.89,0,0,0,343.26,120.5Z" style="fill:#f5f5f5"></path><path d="M343.26,120.5a5.81,5.81,0,0,1,1.47-1.28,7.84,7.84,0,0,1,5.14-1.22,8,8,0,0,1,6.32,4.43,7.63,7.63,0,0,1,.71,2.21,7.26,7.26,0,0,1,.05,2.42A8,8,0,0,1,350.3,134a7.36,7.36,0,0,1-2.43,0,7.45,7.45,0,0,1-2.23-.63,8.14,8.14,0,0,1-3.29-2.72A8,8,0,0,1,341,127.2a7.79,7.79,0,0,1,1-5.18,5.94,5.94,0,0,1,1.23-1.52s-.47.52-1.08,1.6a7.91,7.91,0,0,0-.87,5.05,7.68,7.68,0,0,0,4.5,5.83,7.68,7.68,0,0,0,4.41.54,7.64,7.64,0,0,0,6.29-6.52,7.32,7.32,0,0,0,0-2.29,7.07,7.07,0,0,0-.67-2.1,7.69,7.69,0,0,0-6-4.29,7.87,7.87,0,0,0-5,1.05C343.76,120,343.3,120.55,343.26,120.5Z" style="fill:#f5f5f5"></path><path d="M339.35,110.72a1.34,1.34,0,0,1-.25-.13l-.73-.42-2.86-1.69h.09l-5.07,5.31,0-.14,2.44,3.7.05.07,0,.07a18.25,18.25,0,0,0-1.73,4.43l0,.08-.08,0-4.31,1.07.12-.16q.06,3.46.14,7.34l-.14-.17,4.35.89.11,0,0,.11a18.39,18.39,0,0,0,1.9,4.34l.06.1-.06.1-2.3,3.8,0-.25c1.66,1.6,3.45,3.33,5.29,5.09l-.26,0,3.71-2.44.11-.07.11.06a17.7,17.7,0,0,0,4.4,1.73l.13,0,0,.13c.34,1.35.7,2.83,1.06,4.31l-.21-.16,7.34-.14-.22.18c.29-1.37.6-2.85.91-4.34l0-.14.14,0a18,18,0,0,0,4.33-1.89h0l.12-.07.12.07,3.79,2.3-.28,0,5.1-5.28,0,.27-2.43-3.71-.08-.11.07-.12a17.59,17.59,0,0,0,1.73-4.4l0-.13.12,0,4.32-1-.17.21q-.06-3.76-.12-7.34l.17.2-4.35-.91-.12,0,0-.12A17.76,17.76,0,0,0,364,117l-.06-.1.06-.11,2.3-3.79,0,.24-5.27-5.12.22,0-3.72,2.43-.08,0-.09,0a18.49,18.49,0,0,0-4.41-1.75l-.09,0,0-.09c-.38-1.56-.72-3-1-4.31l.13.1-7.35.1.1-.08c-.37,1.73-.68,3.15-.93,4.34v0h0a19,19,0,0,0-3.36,1.29l-.79.42a1.12,1.12,0,0,1-.26.13l.24-.17c.17-.1.42-.25.78-.44a17.54,17.54,0,0,1,3.35-1.37l-.05.06c.24-1.19.52-2.62.87-4.35l0-.08h.08l7.34-.17h.11l0,.11,1.07,4.3-.11-.1a18.25,18.25,0,0,1,4.5,1.75h-.17c1.18-.78,2.4-1.59,3.71-2.44l.11-.08.1.1,5.29,5.09.11.1-.08.13-2.29,3.8v-.21a18.62,18.62,0,0,1,1.94,4.44l-.16-.14,4.35.9.16,0v.17c0,2.39.09,4.84.13,7.34v.17l-.17.05-4.31,1.06.16-.16a18.63,18.63,0,0,1-1.77,4.51v-.23l2.43,3.71.1.15-.12.13-5.1,5.28-.13.13-.15-.09-3.8-2.3h.23a18.35,18.35,0,0,1-4.44,1.93l.16-.17c-.31,1.49-.62,3-.91,4.34l0,.18h-.18l-7.35.13h-.17l-.05-.17c-.36-1.49-.72-3-1.05-4.31l.16.16a18.45,18.45,0,0,1-4.51-1.78H340l-3.71,2.43-.14.09-.12-.11-5.28-5.11-.11-.11.08-.14,2.3-3.79v.2a18.54,18.54,0,0,1-1.92-4.44l.15.13-4.35-.91-.14,0v-.14c0-2.58-.08-5-.11-7.35v-.13l.13,0,4.31-1-.1.11a18.06,18.06,0,0,1,1.78-4.49v.14l-2.42-3.72-.05-.08.07-.06,5.13-5.26,0,0,0,0,2.79,1.74c.31.19.55.34.72.46Z" style="fill:#f5f5f5"></path><path d="M133.91,85.2a10.72,10.72,0,0,1-.27-2.37,20.77,20.77,0,0,0-.32-2.85,26.59,26.59,0,0,0-.75-3.82,35.58,35.58,0,0,0-4-9.84,37,37,0,0,0-9.15-10.54,36.48,36.48,0,0,0-34.37-5.91,34.36,34.36,0,0,0-9.3,4.74A40.81,40.81,0,0,0,71.59,58a40,40,0,0,0-3.65,4.13,36.14,36.14,0,0,0-1,42.87,42.71,42.71,0,0,0,3.45,4.3,40.17,40.17,0,0,0,4,3.61,34.37,34.37,0,0,0,9,5.19,36.72,36.72,0,0,0,44.27-14.32,36.17,36.17,0,0,0,4.45-9.63,28.75,28.75,0,0,0,.93-3.79,19.79,19.79,0,0,0,.45-2.83,10.86,10.86,0,0,1,.39-2.35,10.37,10.37,0,0,1,0,2.39,16.65,16.65,0,0,1-.27,2.89,25.41,25.41,0,0,1-.77,3.9,34.91,34.91,0,0,1-4.24,10,37.8,37.8,0,0,1-25.9,17.51,38.15,38.15,0,0,1-20-2,36,36,0,0,1-9.58-5.41,43.15,43.15,0,0,1-4.26-3.78,42.16,42.16,0,0,1-3.65-4.52,38,38,0,0,1,1.1-45.25,42.19,42.19,0,0,1,3.87-4.34A42.83,42.83,0,0,1,74.66,53a35.93,35.93,0,0,1,9.82-4.93A38.2,38.2,0,0,1,104.57,47a37.84,37.84,0,0,1,25,18.74A35.08,35.08,0,0,1,133.35,76a27.5,27.5,0,0,1,.58,3.93,16.9,16.9,0,0,1,.12,2.9A10.29,10.29,0,0,1,133.91,85.2Z" style="fill:#ebebeb"></path><path d="M126.45,61.9c.08.12-.59.7-1.89,1.67l-2.4,1.72c-.48.33-1,.7-1.53,1l-1.83,1a42,42,0,0,1-21.92,5.52l-3.32-.14-3.19-.5c-.52-.09-1-.16-1.55-.26l-1.48-.4c-1-.27-2-.5-2.87-.79a48.37,48.37,0,0,1-9.3-4.29c-5-3-7.43-5.77-7.24-6s2.92,2.07,7.95,4.69A55.91,55.91,0,0,0,85,68.91c.89.26,1.82.46,2.76.7l1.43.35,1.48.23,3.05.45,3.16.12A45.39,45.39,0,0,0,118.15,66l1.85-.81c.57-.29,1.08-.61,1.58-.89l2.54-1.4C125.54,62.15,126.37,61.79,126.45,61.9Z" style="fill:#ebebeb"></path><path d="M66.8,107.24c-.09-.12.59-.7,1.88-1.67l2.4-1.72c.48-.32,1-.69,1.53-1l1.84-1a42.07,42.07,0,0,1,21.92-5.52l3.32.15,3.18.5c.52.09,1,.15,1.55.26l1.48.39c1,.27,1.95.5,2.87.8a48.39,48.39,0,0,1,9.3,4.28c5,3,7.43,5.77,7.24,6s-2.92-2.07-8-4.68a56.11,56.11,0,0,0-9.15-3.75c-.9-.26-1.83-.45-2.77-.7L104,99.18,102.53,99l-3-.45-3.17-.13a45.43,45.43,0,0,0-21.22,4.77l-1.86.8c-.57.3-1.08.62-1.57.89l-2.55,1.4C67.71,107,66.88,107.36,66.8,107.24Z" style="fill:#ebebeb"></path><path d="M133.89,86.07c0,.56-16.72.62-37.31.12s-37.27-1.37-37.25-1.93,16.71-.62,37.3-.12S133.9,85.5,133.89,86.07Z" style="fill:#ebebeb"></path><path d="M94.89,121.54c-.57,0-.62-16.71-.12-37.29S96.13,47,96.7,47s.62,16.7.12,37.29S95.45,121.55,94.89,121.54Z" style="fill:#ebebeb"></path><path d="M94.89,121.48c-.14.22-4.25-2.56-9-8.87a50.28,50.28,0,0,1-6.66-12.1A45.09,45.09,0,0,1,76.35,83.8a42.8,42.8,0,0,1,3.77-16.54A51.25,51.25,0,0,1,87.4,55.54c5-6.07,9.16-8.76,9.3-8.54s-3.55,3.28-8.16,9.43A56.14,56.14,0,0,0,81.85,68,43,43,0,0,0,78.4,83.84a45.41,45.41,0,0,0,2.61,16,53.87,53.87,0,0,0,6.07,11.91C91.4,118.13,95.1,121.26,94.89,121.48Z" style="fill:#ebebeb"></path><path d="M97.53,47c.14-.22,4.25,2.57,9,8.87A49.94,49.94,0,0,1,113.19,68a44.89,44.89,0,0,1,2.88,16.71,42.8,42.8,0,0,1-3.76,16.54A52,52,0,0,1,105,113c-5,6.07-9.17,8.76-9.31,8.54s3.55-3.28,8.16-9.43a56.14,56.14,0,0,0,6.69-11.58A42.77,42.77,0,0,0,114,84.66a45.19,45.19,0,0,0-2.61-16,53.87,53.87,0,0,0-6.07-11.91C101,50.37,97.33,47.24,97.53,47Z" style="fill:#ebebeb"></path><path d="M178.67,123.86a40.81,40.81,0,0,1,9.91-4.31l2-9.8,16.56-.29,2.38,9.73a40.33,40.33,0,0,1,10.05,4l8.37-5.49,11.92,11.51-5.19,8.56a40.74,40.74,0,0,1,4.31,9.9l9.8,2,.29,16.56-9.73,2.39a40.49,40.49,0,0,1-3.95,10l5.49,8.37L229.41,199l-8.56-5.19a40.71,40.71,0,0,1-9.9,4.3l-2,9.8-16.56.3L190,198.43a40.88,40.88,0,0,1-10.05-4L171.54,200l-11.92-11.5,5.19-8.56a40.39,40.39,0,0,1-4.3-9.91l-9.8-2-.3-16.56,9.73-2.38a40.33,40.33,0,0,1,4-10l-5.48-8.37,11.5-11.92,8.56,5.19Zm8.83,22.06a17.77,17.77,0,1,0,25.13-.44A17.77,17.77,0,0,0,187.5,145.92Z" style="fill:#e0e0e0"></path><path d="M187.5,145.92a13.39,13.39,0,0,1,3.31-2.9,17.64,17.64,0,0,1,11.59-2.74,17.85,17.85,0,0,1,7.88,2.8,18.09,18.09,0,0,1,6.37,7.18,16.73,16.73,0,0,1,1.62,5,17,17,0,0,1,.1,5.48,18.12,18.12,0,0,1-15,15.53,17.06,17.06,0,0,1-5.47.1,17.24,17.24,0,0,1-5-1.44,18.21,18.21,0,0,1-7.4-6.12,18,18,0,0,1-3.08-7.78,17.63,17.63,0,0,1,2.34-11.68,13.39,13.39,0,0,1,2.78-3.41c.1.08-1.07,1.17-2.44,3.61a17.7,17.7,0,0,0-2,11.37,17.41,17.41,0,0,0,10.15,13.15,17.39,17.39,0,0,0,10,1.22,17.24,17.24,0,0,0,14.18-14.69,16.06,16.06,0,0,0-.07-5.18,16.35,16.35,0,0,0-1.5-4.73A17.35,17.35,0,0,0,202.32,141a17.7,17.7,0,0,0-11.3,2.37C188.63,144.81,187.59,146,187.5,145.92Z" style="fill:#e0e0e0"></path><path d="M178.67,123.86s-.18-.09-.55-.29l-1.64-.95L170,118.81l.2,0-11.44,12,0-.32,5.52,8.34.1.15-.09.16a40.92,40.92,0,0,0-3.89,10l0,.19-.2.05-9.72,2.41.28-.35c.1,5.21.21,10.75.33,16.56l-.32-.39,9.8,2,.25,0,.07.25a40.3,40.3,0,0,0,4.28,9.79l.14.23-.14.23c-1.61,2.65-3.38,5.58-5.18,8.56l-.07-.56,11.93,11.49-.59-.05,8.37-5.5.24-.16.26.14a40.23,40.23,0,0,0,9.93,3.9l.29.07.07.29c.75,3.05,1.57,6.37,2.39,9.73l-.49-.38,16.56-.3-.49.4c.65-3.1,1.34-6.44,2-9.8l.06-.3.3-.09a40.32,40.32,0,0,0,9.77-4.24h0l.27-.16.26.16,8.55,5.19-.62.08,11.5-11.91-.06.63L235,178.93l-.16-.25.14-.27a39.86,39.86,0,0,0,3.91-9.92l.08-.29.29-.07,9.72-2.38-.37.48q-.13-8.47-.27-16.56l.37.45-9.8-2.05-.27-.06-.07-.26a40.28,40.28,0,0,0-4.25-9.81l-.13-.23.13-.22,5.21-8.55.07.52-11.9-11.53.49,0-8.39,5.46-.18.13-.2-.11a40.19,40.19,0,0,0-10-3.95l-.2-.05,0-.2c-.86-3.53-1.63-6.72-2.35-9.73l.29.23-16.56.22.22-.18c-.84,3.91-1.53,7.12-2.1,9.79l0,.1-.09,0a41.12,41.12,0,0,0-7.57,2.92l-1.79.93a4.49,4.49,0,0,1-.59.3s.19-.14.55-.38,1-.58,1.75-1a38.26,38.26,0,0,1,7.56-3.08l-.11.12c.53-2.68,1.18-5.89,2-9.82l0-.17h.18l16.56-.36h.24l.06.24c.75,3,1.54,6.18,2.42,9.72l-.25-.25a41,41,0,0,1,10.15,4h-.38l8.36-5.5.26-.18.22.22,11.94,11.48.25.24-.18.29-5.17,8.56v-.45a40.87,40.87,0,0,1,4.36,10l-.34-.33,9.8,2,.37.08v.37q.15,8.08.3,16.57v.38l-.38.1-9.72,2.39.36-.36a41,41,0,0,1-4,10.17l0-.52q2.72,4.16,5.49,8.37l.22.34-.28.29-11.5,11.92-.28.29-.35-.21-8.56-5.19h.52a41.21,41.21,0,0,1-10,4.35l.36-.38c-.71,3.36-1.4,6.7-2,9.8l-.08.39h-.4l-16.57.28H192l-.1-.39c-.82-3.35-1.63-6.68-2.38-9.72l.36.36a41.57,41.57,0,0,1-10.16-4l.5,0-8.38,5.48-.32.21-.27-.27-11.9-11.52-.26-.25.19-.31c1.81-3,3.58-5.9,5.2-8.55v.46a41.18,41.18,0,0,1-4.34-10l.32.3-9.8-2.06-.31-.07V168c-.08-5.81-.17-11.35-.25-16.56v-.29l.28-.07,9.73-2.36-.24.25a41,41,0,0,1,4-10.12v.31l-5.45-8.39-.11-.18.14-.14L170,118.56l.1-.1.11.07,6.3,3.92,1.62,1A3.91,3.91,0,0,1,178.67,123.86Z" style="fill:#e0e0e0"></path><path d="M266.57,57.6A30.4,30.4,0,0,1,274,54.37L275.54,47,288,46.79l1.79,7.3a30.65,30.65,0,0,1,7.55,3l6.28-4.12,8.95,8.64L308.66,68a30.4,30.4,0,0,1,3.23,7.44L319.25,77l.22,12.44-7.3,1.79a31,31,0,0,1-3,7.55l4.12,6.28L304.68,114l-6.43-3.89a30.4,30.4,0,0,1-7.44,3.23l-1.53,7.36-12.44.22-1.79-7.3a31,31,0,0,1-7.55-3l-6.28,4.12-9-8.64,3.89-6.43a30.4,30.4,0,0,1-3.23-7.44l-7.36-1.53-.22-12.44,7.3-1.79a30.65,30.65,0,0,1,3-7.55l-4.12-6.28,8.64-8.95,6.43,3.89Zm6.63,16.57a13.35,13.35,0,1,0,18.87-.33A13.35,13.35,0,0,0,273.2,74.17Z" style="fill:#ebebeb"></path><path d="M124,391.39a5.17,5.17,0,0,1,.76-.86l2.18-2.19c1.85-1.83,4.44-4.34,7.32-7.09l.07-.06v.37c-2.9-2.69-5.51-5.15-7.38-6.95l-2.19-2.15a5.44,5.44,0,0,1-.76-.83,4.29,4.29,0,0,1,.89.69l2.31,2c1.93,1.73,4.57,4.14,7.47,6.84l.2.18-.2.19-.06.06c-2.88,2.75-5.51,5.21-7.43,7l-2.29,2.08A5.06,5.06,0,0,1,124,391.39Z" style="fill:#e0e0e0"></path><path d="M101.63,371.63a6,6,0,0,1-.76.85l-2.18,2.19c-1.85,1.83-4.44,4.34-7.32,7.09l-.07.06v-.37c2.9,2.7,5.51,5.15,7.38,6.95l2.19,2.15a4.71,4.71,0,0,1,.76.84,5.24,5.24,0,0,1-.89-.7c-.63-.55-1.4-1.22-2.31-2-1.93-1.72-4.57-4.14-7.47-6.84l-.2-.18.2-.19.06-.06c2.88-2.75,5.51-5.21,7.43-7l2.29-2.07A4.51,4.51,0,0,1,101.63,371.63Z" style="fill:#e0e0e0"></path><path d="M107.37,396c-.13-.05,2.22-6.66,5.25-14.76s5.6-14.63,5.73-14.58-2.22,6.66-5.25,14.76S107.51,396.09,107.37,396Z" style="fill:#e0e0e0"></path><path d="M149.48,410.18s0-.38,0-1.11,0-1.79,0-3.17c0-2.8,0-6.86-.06-12,0-10.37-.06-25.18-.1-43.05l.21.22-72.85,0h0l.25-.26c0,21.47,0,41.73,0,59.37l-.23-.23,52.61.12,14.91.06,4,0,1,0h0l-1,0-3.92,0-14.86.06-52.75.12h-.23v-.23c0-17.64,0-37.9,0-59.37v-.25h.26l72.85,0h.21v.21c-.05,17.92-.09,32.78-.11,43.18,0,5.16,0,9.21-.06,12,0,1.36,0,2.41,0,3.14S149.48,410.18,149.48,410.18Z" style="fill:#e0e0e0"></path><path d="M150.05,359.62c0,.14-16.45.26-36.73.26s-36.73-.12-36.73-.26,16.44-.25,36.73-.25S150.05,359.48,150.05,359.62Z" style="fill:#e0e0e0"></path><path d="M82.57,355.29a1,1,0,1,1-2,0,1,1,0,0,1,2,0Z" style="fill:#e0e0e0"></path><ellipse cx="85.16" cy="355.29" rx="0.98" ry="0.98" style="fill:#e0e0e0"></ellipse><path d="M89.72,355.29a1,1,0,1,1-1-1A1,1,0,0,1,89.72,355.29Z" style="fill:#e0e0e0"></path></g></svg>