<svg xmlns="http://www.w3.org/2000/svg" viewBox="0 0 750 500"><g id="freepik--background-complete--inject-17"><path d="M62.21,162.76a2.74,2.74,0,0,1,2.88,0l.74.42c.25.13.5.26.76.38A2.77,2.77,0,0,1,68.2,166l.11,3.54,11.53-.35-.11-3.54a2.75,2.75,0,0,1,1.45-2.49c.5-.28,1-.58,1.47-.91a2.73,2.73,0,0,1,2.86-.18l3.12,1.67,5.45-10.18L91,151.85a2.72,2.72,0,0,1-1.43-2.48,16.38,16.38,0,0,0-.06-1.72,2.76,2.76,0,0,1,1.27-2.59l3-1.86-6.08-9.81-3,1.87a2.75,2.75,0,0,1-2.87,0c-.24-.15-.48-.29-.74-.42s-.5-.26-.75-.38a2.76,2.76,0,0,1-1.61-2.39l-.11-3.55L67,128.86l.11,3.53a2.73,2.73,0,0,1-1.44,2.49,15.69,15.69,0,0,0-1.47.91,2.75,2.75,0,0,1-2.87.19l-3.11-1.67-5.46,10.17,3.12,1.67a2.76,2.76,0,0,1,1.43,2.49,16.58,16.58,0,0,0,0,1.73A2.75,2.75,0,0,1,56.12,153l-3,1.86,6.08,9.81Zm2.89-18.22A9.45,9.45,0,1,1,69,157.34,9.47,9.47,0,0,1,65.1,144.54Z" style="fill:#ebebeb"></path><path d="M670.64,279.09a1.91,1.91,0,0,1,.94,1.78c0,.2,0,.4,0,.6s0,.4,0,.6a1.94,1.94,0,0,1-.93,1.78l-2.15,1.24,4,7,2.15-1.24a1.92,1.92,0,0,1,2,.07c.34.22.69.42,1,.6a1.93,1.93,0,0,1,1.07,1.71v2.48h8.09v-2.48a1.92,1.92,0,0,1,1.06-1.71,10.77,10.77,0,0,0,1-.6,1.93,1.93,0,0,1,2-.07l2.15,1.24,4-7-2.16-1.25a1.93,1.93,0,0,1-.94-1.78c0-.2,0-.39,0-.59s0-.4,0-.6a1.93,1.93,0,0,1,.94-1.78l2.16-1.24-4-7L691,272.08a1.89,1.89,0,0,1-2-.07,10.93,10.93,0,0,0-1-.6,1.91,1.91,0,0,1-1.06-1.71v-2.48h-8.09v2.48a1.92,1.92,0,0,1-1.07,1.71,9.69,9.69,0,0,0-1,.6,1.91,1.91,0,0,1-2,.07l-2.14-1.24-4,7Zm12.21-4.25a6.63,6.63,0,1,1-6.62,6.63A6.63,6.63,0,0,1,682.85,274.84Z" style="fill:#ebebeb"></path><path d="M79.25,79.3a31.49,31.49,0,1,0,31.49-31.49A31.5,31.5,0,0,0,79.25,79.3ZM96,79.3A14.71,14.71,0,1,1,110.74,94,14.72,14.72,0,0,1,96,79.3Z" style="fill:#ebebeb"></path><polygon points="104.69 49.12 116.8 49.12 116.13 40.54 105.36 40.54 104.69 49.12" style="fill:#ebebeb"></polygon><polygon points="127.74 53.2 136.3 61.76 141.89 55.22 134.27 47.61 127.74 53.2" style="fill:#ebebeb"></polygon><polygon points="141.15 72.38 141.15 84.49 149.73 83.82 149.73 73.05 141.15 72.38" style="fill:#ebebeb"></polygon><polygon points="137.07 95.43 128.51 104 135.04 109.59 142.66 101.97 137.07 95.43" style="fill:#ebebeb"></polygon><polygon points="117.89 108.85 105.78 108.85 106.44 117.42 117.22 117.42 117.89 108.85" style="fill:#ebebeb"></polygon><polygon points="94.83 104.77 86.27 96.2 80.68 102.74 88.3 110.36 94.83 104.77" style="fill:#ebebeb"></polygon><polygon points="81.42 85.58 81.42 73.47 72.85 74.14 72.85 84.91 81.42 85.58" style="fill:#ebebeb"></polygon><polygon points="85.5 62.53 94.06 53.97 87.53 48.38 79.91 55.99 85.5 62.53" style="fill:#ebebeb"></polygon><path d="M660.14,176.83c-2.66.6-4.73-1-4.73-3.53a3.64,3.64,0,0,1,2.41-3.53c8.35-2.58,9.55-5.25,9.55-11.1,0-1.72-.17-4.56-.17-6.37,0-6.71,3.19-9.9,8.95-11.79-5.68-1.81-8.95-5.08-8.95-11.79,0-1.81.17-4.65.17-6.37,0-5.85-1.2-8.52-9.55-11.1a3.63,3.63,0,0,1-2.41-3.53c0-2.5,2.07-4.13,4.73-3.53,13.34,2.93,16.87,8.26,16.87,16.61,0,1.29-.17,4.74-.17,6.2,0,6.37,2.24,9.12,8.09,9.38,2.76.17,4.39,1.81,4.39,4.13s-1.63,4-4.39,4.13c-5.85.17-8.09,3-8.09,9.3,0,1.46.17,4.9.17,6.19C677,168.57,673.48,173.91,660.14,176.83Z" style="fill:#ebebeb"></path><path d="M643.45,104.19c2.67-.6,4.73,1,4.73,3.53a3.59,3.59,0,0,1-2.49,3.53c-8.27,2.58-9.47,5.25-9.47,11.1,0,1.72.17,4.56.17,6.37,0,6.71-3.18,9.9-8.95,11.79,5.68,1.81,8.95,5.08,8.95,11.79,0,1.81-.17,4.65-.17,6.37,0,5.85,1.2,8.52,9.47,11.1a3.6,3.6,0,0,1,2.49,3.53c0,2.5-2.06,4.13-4.73,3.53-13.34-2.92-16.87-8.26-16.87-16.7,0-1.29.17-4.73.17-6.19,0-6.29-2.32-9.13-8.18-9.3-2.66-.17-4.3-1.8-4.3-4.13s1.64-4,4.3-4.13c5.86-.26,8.18-3,8.18-9.38,0-1.46-.17-4.91-.17-6.2C626.58,112.45,630.11,107.12,643.45,104.19Z" style="fill:#ebebeb"></path><path d="M97.35,281.05a3.51,3.51,0,0,1,0,5,3.56,3.56,0,0,1-2.44,1,3.74,3.74,0,0,1-2.56-1L76.71,270.19a.41.41,0,0,1-.28-.33.7.7,0,0,0-.17-.11,1.66,1.66,0,0,1-.17-.45.32.32,0,0,1-.17-.22c0-.11,0-.28-.1-.34s-.12-.22-.12-.27v-.39c0-.12-.06-.17-.06-.34s.06-.22.06-.28v-.38c0-.12.12-.17.12-.23s.05-.28.1-.45.06,0,.06-.1a3.9,3.9,0,0,1,.28-.51.11.11,0,0,1,.11-.11,1.08,1.08,0,0,1,.34-.39l15.64-15.86a3.61,3.61,0,0,1,5,0,3.51,3.51,0,0,1,0,5l-13.18,13.3Z" style="fill:#ebebeb"></path><path d="M111.53,282.83l13.64-32.46a3.09,3.09,0,0,1,4.06-1.61,3,3,0,0,1,1.56,4l-13.64,32.51a3.08,3.08,0,0,1-2.84,1.84,2.78,2.78,0,0,1-1.11-.22A3,3,0,0,1,111.53,282.83Z" style="fill:#ebebeb"></path><path d="M157.72,269.75a0,0,0,0,1-.05.05,3,3,0,0,1-.4.39l-15.64,15.87a3.62,3.62,0,0,1-5,0,3.51,3.51,0,0,1,0-5l13.18-13.31-13.18-13.3a3.51,3.51,0,0,1,0-5,3.61,3.61,0,0,1,5,0l15.64,15.86a3,3,0,0,1,.4.39c.05,0,.05.11.05.11.11.23.22.34.28.51s.06.05.06.1a2.4,2.4,0,0,0,.16.51s.06,0,.06.17v.38c0,.06.06.22.06.28s-.06.22-.06.28v.45s-.06,0-.06.11a3.77,3.77,0,0,0-.16.5c0,.05-.06.05-.06.16S157.83,269.52,157.72,269.75Z" style="fill:#ebebeb"></path><rect x="50.72" y="199.08" width="195.12" height="259.17" style="fill:#ebebeb"></rect><g style="opacity:0.1"><rect x="50.72" y="199.08" width="195.12" height="259.17"></rect></g><rect x="56.02" y="199.08" width="195.12" height="259.17" style="fill:#ebebeb"></rect><rect x="67.46" y="210.52" width="172.25" height="233.5" transform="translate(-4.15 1.98) rotate(-0.73)" style="fill:#ebebeb"></rect><rect x="36.84" y="241.14" width="233.5" height="172.25" transform="translate(-176.92 473.75) rotate(-88.76)" style="fill:#dbdbdb"></rect><rect x="67.46" y="210.52" width="172.25" height="233.5" style="fill:#fff"></rect><rect x="93.77" y="250.41" width="16.52" height="16.52" style="fill:#ebebeb"></rect><rect x="119.22" y="250.41" width="53.53" height="2.42" style="fill:#a6a6a6"></rect><rect x="119.22" y="255.11" width="94.17" height="2.42" style="fill:#ebebeb"></rect><rect x="119.22" y="259.81" width="94.17" height="2.42" style="fill:#ebebeb"></rect><rect x="119.22" y="264.51" width="94.17" height="2.42" style="fill:#ebebeb"></rect><path d="M95,257.82c.61.51,1.19,1,1.77,1.57s1.13,1.09,1.69,1.63c1.11,1.1,2.19,2.24,3.24,3.38l-1.89.12a73.61,73.61,0,0,1,5.14-9c1-1.45,2-2.86,3.06-4.22a38.3,38.3,0,0,1,3.52-3.94,38.44,38.44,0,0,1-1.84,4.95c-.71,1.6-1.48,3.15-2.31,4.67a75.06,75.06,0,0,1-5.59,8.76l-1,1.38-.86-1.26c-.87-1.29-1.73-2.59-2.55-3.93-.4-.67-.82-1.33-1.21-2S95.35,258.53,95,257.82Z" style="fill:#a6a6a6"></path><rect x="93.77" y="285.04" width="16.52" height="16.52" style="fill:#ebebeb"></rect><rect x="119.22" y="285.04" width="53.53" height="2.42" style="fill:#a6a6a6"></rect><rect x="119.22" y="289.74" width="94.17" height="2.42" style="fill:#ebebeb"></rect><rect x="119.22" y="294.44" width="94.17" height="2.42" style="fill:#ebebeb"></rect><rect x="119.22" y="299.14" width="94.17" height="2.42" style="fill:#ebebeb"></rect><path d="M95,292.46c.61.51,1.19,1,1.77,1.58s1.13,1.08,1.69,1.63c1.11,1.1,2.19,2.23,3.24,3.37l-1.89.12a74.36,74.36,0,0,1,5.14-9c1-1.44,2-2.85,3.06-4.22a39.38,39.38,0,0,1,3.52-3.94,38.58,38.58,0,0,1-1.84,5q-1.07,2.38-2.31,4.67a75.79,75.79,0,0,1-5.59,8.75l-1,1.39-.86-1.27c-.87-1.29-1.73-2.59-2.55-3.92-.4-.68-.82-1.34-1.21-2S95.35,293.17,95,292.46Z" style="fill:#a6a6a6"></path><rect x="93.77" y="319.66" width="16.52" height="16.52" style="fill:#ebebeb"></rect><rect x="119.22" y="319.66" width="53.53" height="2.42" style="fill:#a6a6a6"></rect><rect x="119.22" y="324.36" width="94.17" height="2.42" style="fill:#ebebeb"></rect><rect x="119.22" y="329.06" width="94.17" height="2.42" style="fill:#ebebeb"></rect><rect x="119.22" y="333.76" width="94.17" height="2.42" style="fill:#ebebeb"></rect><rect x="93.77" y="354.28" width="16.52" height="16.52" style="fill:#ebebeb"></rect><rect x="119.22" y="354.28" width="53.53" height="2.42" style="fill:#a6a6a6"></rect><rect x="119.22" y="358.98" width="94.17" height="2.42" style="fill:#ebebeb"></rect><rect x="119.22" y="363.68" width="94.17" height="2.42" style="fill:#ebebeb"></rect><rect x="119.22" y="368.38" width="94.17" height="2.42" style="fill:#ebebeb"></rect><rect x="111.28" y="194.35" width="84.61" height="25.79" style="fill:#c7c7c7"></rect><path d="M179.45,180.25H126.94l-2.32,14.1h57.93ZM153.58,190.4a3.1,3.1,0,1,1,3.1-3.1A3.09,3.09,0,0,1,153.58,190.4Z" style="fill:#c7c7c7"></path><polygon points="182.55 194.35 124.62 194.35 125.14 191.2 181.85 191.2 182.55 194.35" style="fill:#a6a6a6"></polygon></g></svg>